<?xml version="1.0" encoding="utf-8"?>
<!-- Generator: Adobe Illustrator 16.0.0, SVG Export Plug-In . SVG Version: 6.00 Build 0)  -->
<!DOCTYPE svg PUBLIC "-//W3C//DTD SVG 1.1//EN" "http://www.w3.org/Graphics/SVG/1.1/DTD/svg11.dtd">
<svg version="1.1" id="Layer_1" xmlns="http://www.w3.org/2000/svg" xmlns:xlink="http://www.w3.org/1999/xlink" x="0px" y="0px"
	 width="406px" height="306px" viewBox="0 0 406 306" enable-background="new 0 0 406 306" xml:space="preserve">
<path opacity="0.1" fill="#E6E6E6" enable-background="new    " d="M56.14,113.841c0,0-55.47,125.292,90.579,127.047
	s212.815-17.488,213.475-81.199c0.659-63.712-51.938-123.282-143.623-123.942C124.886,35.087,75.303,59.062,56.14,113.841z"/>
<path fill="#3995B8" d="M271.705,70.176h-91.624l1.259,89.828h125.769v-54.425C307.108,86.026,291.258,70.176,271.705,70.176z"/>
<path fill="#24285B" d="M180.081,70.176L180.081,70.176c19.553,0,35.403,15.851,35.403,35.403v54.425l0,0h-70.806l0,0v-54.425
	C144.678,86.026,160.529,70.176,180.081,70.176z"/>
<path fill="#3995B8" d="M180.081,249.831L180.081,249.831c-19.552,0-35.403-15.851-35.403-35.403l0,0v-54.424l0,0h70.806l0,0v54.424
	C215.484,233.98,199.634,249.831,180.081,249.831L180.081,249.831z"/>
<path opacity="0.09" enable-background="new    " d="M180.081,249.831L180.081,249.831c-19.552,0-35.403-15.851-35.403-35.403l0,0
	v-54.424l0,0h70.806l0,0v54.424C215.484,233.98,199.634,249.831,180.081,249.831L180.081,249.831z"/>
<path fill="#3995B8" d="M246.158,30.368L246.158,30.368c1.121,0,2.029,0.909,2.029,2.03v74.755l0,0h-4.15l0,0V32.438
	c0-1.121,0.908-2.03,2.029-2.03L246.158,30.368z"/>
<path opacity="0.44" fill="#FFFFFF" enable-background="new    " d="M246.158,30.368L246.158,30.368c1.121,0,2.029,0.909,2.029,2.03
	v74.755l0,0h-4.15l0,0V32.438c0-1.121,0.908-2.03,2.029-2.03L246.158,30.368z"/>
<circle fill="#FFD200" cx="246.279" cy="107.193" r="7.897"/>
<polygon fill="#FFD200" points="248.229,32.438 267.666,32.438 267.666,40.091 248.229,45.014 "/>
<rect x="228.883" y="160.004" fill="#24285B" width="34.205" height="12.434"/>
<rect x="237.52" y="172.438" fill="#3995B8" width="16.646" height="98.941"/>
<rect x="237.52" y="172.438" opacity="0.44" fill="#FFFFFF" enable-background="new    " width="16.646" height="98.941"/>
<polygon opacity="0.09" enable-background="new    " points="237.52,172.438 237.52,205.598 254.166,194.99 254.166,172.438 "/>
<ellipse fill="#FFD200" cx="95.085" cy="71.526" rx="36.804" ry="35.038"/>
<polygon fill="#FFD200" points="112.493,97.357 135.563,108.746 118.653,87.33 "/>
<path fill="#FFFFFF" d="M112.828,71.13c2.688-1.52,4.249-4.463,3.999-7.541c-0.2-3.314-2.56-6.1-5.796-6.841
	c-2.842-0.731-8.465-0.629-9.724,2.68c-1.594,4.162,3.248,7.024,3.228,10.982c0.029,3.807-3.033,6.915-6.839,6.944
	c-0.351,0.002-0.7-0.021-1.047-0.072c-2.312-0.489-4.45-1.59-6.191-3.188c-1.381-1.167-2.649-3.106-4.477-3.603
	c-1.827-0.498-3.654,1.106-4.933,2.324c-1.555,1.324-2.626,3.127-3.045,5.126c-0.68,4.182,2.639,6.628,6.395,7.186
	c2.252,0.324,4.544,0.224,6.76-0.294c1.654-0.386,3.664-1.015,4.699-2.456c1.147-1.645,0.305-3.38-0.741-4.832
	c-1.218-1.712-2.605-3.297-4.141-4.73c-1.563-1.423-3.263-2.688-5.075-3.776c-1.854-1.023-3.762-1.948-5.714-2.771
	c-4.507-2.111-1.645-8.831,0.954-11.429c1.461-1.461,3.664-2.852,5.816-2.619c2.436,0.264,2.801,2.72,2.264,4.689
	c-1.188,4.293-5.42,6.912-9.358,8.272c-8.039,2.761-6.719,13.723-2.578,19.204c4.994,6.669,14.21,8.242,21.731,5.136
	c3.289-1.37,7.227-4.121,5.633-8.201c-0.849-1.911-1.959-3.693-3.299-5.298c-1.191-1.619-2.679-2.996-4.385-4.06
	c-2.852-1.695-6.78-1.949-9.561,0.061c-3.654,2.659-2.142,6.963-2.649,10.749c-0.223,1.645-1.177,3.989-3.045,4.162
	c-1.228,0.112-2.284-0.832-3.136-1.594c-0.895-0.795-1.749-1.635-2.558-2.517c-1.545-1.728-2.906-3.612-4.06-5.623
	c-1.188-2.03-2.568-4.486-2.456-6.942c0.213-4.527,5.917-7.166,9.541-8.567c4.852-1.877,9.704-1.269,14.636-0.071
	c2.385,0.579,4.75,1.238,7.105,1.695c2.091,0.396,4.497,0.894,6.537,0c3.228-1.38,4.578-5.694,4.913-8.901
	c0.278-1.657-0.109-3.356-1.076-4.73c-1.229-1.512-3.137-1.776-4.974-1.847c-4.06-0.173-8.881-0.112-11.602,3.461
	c-2.416,3.167-0.863,6.557,1.015,9.5c1.015,1.604,2.233,3.319,2.345,5.288c0.094,2.131-0.934,4.157-2.71,5.339
	c-1.35,0.883-3.289,1.015-4.182,2.548s0.102,3.755,0.792,5.268c1.63,3.471,4.297,6.351,7.633,8.242
	c3.583,2.03,8.282,3.136,11.875,0.548c3.42-2.466,5.826-6.719,6.953-10.718c0.568-2.03,0.599-4.06-0.934-5.583
	c-1.613-1.477-3.48-2.649-5.511-3.461c-3.197-1.431-7.815-1.786-10.069,1.482c-0.936,1.361-1.183,3.08-0.67,4.649
	c0.648,1.559,2.073,2.659,3.746,2.893c4.06,0.873,9.135,1.34,13.032-0.416c3.137-1.411,5.714-4.578,5.329-8.12
	c-0.102-0.964-1.624-1.015-1.522,0c0.446,4.06-3.35,6.912-7.014,7.531c-2.179,0.305-4.389,0.305-6.567,0
	c-1.735-0.193-4.456-0.172-5.41-1.959c-0.797-1.803-0.061-3.915,1.685-4.831c1.769-0.867,3.82-0.952,5.654-0.233
	c1.971,0.706,3.823,1.709,5.491,2.974c1.084,0.67,1.709,1.885,1.624,3.157c-0.146,1.185-0.467,2.341-0.954,3.431
	c-1.411,3.603-4.284,8.475-8.435,9.196c-3.836,0.67-8.12-1.604-10.779-4.151c-1.299-1.212-2.402-2.62-3.268-4.171
	c-0.446-0.797-0.82-1.633-1.117-2.497c-0.396-1.137-0.69-2.304,0.477-3.045c1.411-0.863,2.934-1.126,4.151-2.355
	c1.097-1.108,1.83-2.524,2.101-4.06c0.599-3.36-1.451-5.989-3.045-8.699c-0.873-1.421-1.715-3.045-1.4-4.76
	c0.463-1.849,1.79-3.361,3.562-4.06c2.195-0.792,4.54-1.08,6.861-0.842c2.03,0,4.415,0,5.197,2.263
	c0.44,1.677,0.352,3.45-0.254,5.075c-0.41,1.776-1.339,3.391-2.669,4.638c-1.837,1.482-4.578,0.833-6.688,0.417
	c-2.111-0.417-4.182-1.015-6.263-1.482c-3.989-1.015-8.12-1.837-12.18-1.178c-3.866,0.701-7.512,2.308-10.637,4.689
	c-2.781,2.101-4.506,5.024-3.685,8.597c0.822,3.573,3.218,7.166,5.542,10.028c1.283,1.59,2.713,3.055,4.273,4.375
	c1.088,1.131,2.627,1.713,4.192,1.583c2.923-0.528,4.171-3.989,4.222-6.598c0-2.03-0.355-4.06,0.203-6.019
	c0.506-1.691,1.869-2.988,3.583-3.41c3.755-1.015,7.105,1.106,9.46,3.877c1.256,1.497,2.355,3.12,3.278,4.842
	c1.238,2.314,0.314,4.222-1.726,5.623c-6.344,4.364-16.108,3.796-21.478-1.847c-2.535-2.64-4.016-6.117-4.161-9.774
	c-0.099-1.833,0.25-3.661,1.015-5.329c1.015-2.03,2.599-2.71,4.628-3.42c3.39-1.15,6.301-3.396,8.272-6.384
	c1.431-2.192,2.365-5.705,0.396-7.876c-2.355-2.619-6.364-1.096-8.709,0.721c-2.547,2.001-4.22,4.912-4.669,8.12
	c-0.223,1.634-0.254,3.603,0.741,5.014c0.995,1.411,2.518,1.817,4,2.395c3.724,1.531,7.095,3.808,9.906,6.689
	c1.463,1.332,2.691,2.899,3.634,4.639c1.086,2.396-2.253,3.289-3.918,3.674c-3.289,0.771-10.079,1.086-11.165-3.228
	c-0.558-2.183,0.609-4.304,2.091-5.816c0.71-0.75,1.516-1.406,2.396-1.949c1.319-0.771,2.263-0.081,3.208,0.863
	c2.598,2.588,5.592,5.075,9.348,5.613c4.611,0.525,8.776-2.787,9.302-7.398c0.176-1.542-0.079-3.102-0.735-4.508
	c-0.893-1.817-2.578-3.471-2.659-5.593c-0.102-2.385,2.03-2.954,3.999-3.248c3.471-0.527,7.643,0.629,8.587,4.436
	c0.757,2.851-0.491,5.854-3.045,7.329c-0.863,0.447-0.102,1.766,0.771,1.309H112.828z"/>
</svg>
