<?xml version="1.0" encoding="utf-8"?>
<!-- Generator: Adobe Illustrator 16.0.0, SVG Export Plug-In . SVG Version: 6.00 Build 0)  -->
<!DOCTYPE svg PUBLIC "-//W3C//DTD SVG 1.1//EN" "http://www.w3.org/Graphics/SVG/1.1/DTD/svg11.dtd">
<svg version="1.1" id="Layer_1" xmlns="http://www.w3.org/2000/svg" xmlns:xlink="http://www.w3.org/1999/xlink" x="0px" y="0px"
	 width="406px" height="306px" viewBox="0 0 406 306" enable-background="new 0 0 406 306" xml:space="preserve">
<title>_</title>
<ellipse opacity="0.1" fill="#E6E6E6" enable-background="new    " cx="189.125" cy="268.873" rx="139.269" ry="8.364"/>
<path fill="#F4A28C" d="M289.823,147.032c2.198,3.052,1.507,7.308-1.546,9.507c-0.568,0.41-1.197,0.729-1.865,0.947
	c-4.78,1.613-12.423,2.781-22.786,0c-18.858-5.075-25.437-36.459-25.437-36.459s-3.553-5.278-0.894-7.542
	c2.659-2.263,4.821,5.999,4.821,5.999s3.896,15.052,17.976,20.554C271.533,144.504,284.352,139.48,289.823,147.032z"/>
<path opacity="0.09" enable-background="new    " d="M289.823,147.032c2.198,3.052,1.507,7.308-1.546,9.507
	c-0.568,0.41-1.197,0.729-1.865,0.947c-4.78,1.613-12.423,2.781-22.786,0c-18.858-5.075-25.437-36.459-25.437-36.459
	s-3.553-5.278-0.894-7.542c2.659-2.263,4.821,5.999,4.821,5.999s3.896,15.052,17.976,20.554
	C271.533,144.504,284.352,139.48,289.823,147.032z"/>
<polygon fill="#F4A28C" points="294.533,213.818 276.264,262.428 272.67,262.225 278.941,211.413 "/>
<path fill="#F4A28C" d="M307.302,208.521l-4.253,20.016l13.996-9.773l2.406,3.146c0,0-14.434,20.808-24.908,17.731
	s-1.949-35.465-1.949-35.465L307.302,208.521z"/>
<polygon fill="#F4A28C" points="289.559,124.905 293.254,141.479 283.967,142.86 285.012,130.244 "/>
<path opacity="0.31" fill="#CE8172" enable-background="new    " d="M284.667,132.994c1.151-0.372,2.165-1.079,2.913-2.03
	c0,0,0.061,3.106-3.156,6.384L284.667,132.994z"/>
<path fill="#F4A28C" d="M280.027,124.834c0.102,2.88,0.586,5.733,1.441,8.485c0.52,1.344,2.028,2.013,3.372,1.495
	c0.003-0.001,0.007-0.002,0.009-0.003c2.149-0.695,3.694-2.585,3.947-4.831l1.016-4.679c0.209-1.966-0.844-3.85-2.629-4.7
	C284.027,118.866,279.773,121.677,280.027,124.834z"/>
<path fill="#F4A28C" d="M286.027,128.64c0,0-0.193-2.03,1.309-2.03s1.807,2.842-0.182,3.35L286.027,128.64z"/>
<path fill="#F4A28C" d="M280.303,128.092l-1.178,2.152c-0.225,0.401-0.083,0.908,0.318,1.133c0.106,0.061,0.228,0.097,0.352,0.105
	l2.029,0.132L280.303,128.092z"/>
<path fill="#3995B8" d="M283.967,142.85c0,0-22.594,8.526-16.453,24.085c4.445,11.268,10.383,9.195,11.875,18.18l1.573,8.84
	l22.989-6.861c0,0-2.699-12.941-1.207-21.527C304.236,156.979,308.783,135.623,283.967,142.85z"/>
<path opacity="0.09" enable-background="new    " d="M290.016,147.854c0,0-8.77,12.292-1.015,24.847
	c1.31,2.121,2.466,4.354,3.583,6.588l4.872,9.764l6.517-1.949l-0.904-5.43L290.016,147.854z"/>
<path fill="#FFD200" d="M287.336,126.61c0,0-3.998,16.017,1.359,18.189c5.359,2.172,14.078,0.305,14.312-6.323
	s-6.322-7.318-7.674-16.342c-1.35-9.023-18.604-5.897-18.036-0.68C277.866,126.671,287.336,126.61,287.336,126.61z"/>
<path fill="#24285B" d="M303.951,187.104l-22.989,6.861l-4.294,27.04l30.816-0.396C307.484,220.609,315.391,200.309,303.951,187.104
	z"/>
<path fill="#3995B8" d="M272.934,262.234c0,0-2.121,2.404-4.647,2.131c-2.527-0.273-3.106,3.299,1.015,3.156
	c1.274-0.037,2.545-0.18,3.797-0.426c1.15-0.199,2.336-0.093,3.43,0.313c0.44,0.124,0.91-0.033,1.188-0.396
	c1.238-1.3-1.432-4.588-1.432-4.588L272.934,262.234z"/>
<path fill="#3995B8" d="M319.126,222.02c0,0,3.197,0.112,4.608,2.233c1.41,2.122,4.517,0.284,1.797-2.78
	c-0.836-0.965-1.757-1.852-2.751-2.649c-0.886-0.767-1.557-1.749-1.949-2.853c-0.171-0.408-0.573-0.669-1.015-0.66
	c-1.786-0.131-2.73,3.492-2.73,3.492L319.126,222.02z"/>
<path fill="#3995B8" d="M117.74,262.326c0,0,1.604,2.588,4.182,2.253s3.755,2.03,1.624,3.136c-2.132,1.107-8.618-0.537-8.618-0.537
	l-0.781-4.67L117.74,262.326z"/>
<path fill="#F4A28C" d="M133.219,153.518c0,0,25.538-16.382,35.19-33.353l-3.248-3.573c0,0-21.954,19.427-41.199,22.777
	L133.219,153.518z"/>
<path fill="#F4A28C" d="M168.409,120.165c0.051,0,2.03-2.487,2.101-2.659c0.796-1.103,1.293-2.393,1.441-3.745
	c-0.081-1.605-1.053-3.032-2.517-3.695c-0.637-0.393-1.454-0.335-2.03,0.142c-0.179,0.215-0.313,0.463-0.396,0.731
	c-0.213,0.574-0.393,1.161-0.538,1.756c-0.103-0.444-0.253-0.876-0.447-1.289c-0.081-0.172-0.193-0.365-0.386-0.396
	c-0.185-0.02-0.362,0.083-0.437,0.254c-0.069,0.167-0.104,0.347-0.101,0.528c-0.051,1.015-0.122,2.03-0.152,3.045
	c0.026,0.365,0.077,0.728,0.152,1.086c0,0.132,0,0.568,0.101,0.68L168.409,120.165z"/>
<path fill="#3995B8" d="M98.597,160.663c9.267,3.157,24.36,4.78,40.488-8.008l-4.334-18.463c0,0-25.933,3.583-38.57,14.21
	c-3.009,2.58-3.358,7.11-0.779,10.12C96.253,159.512,97.357,160.253,98.597,160.663z"/>
<path opacity="0.46" fill="#FFFFFF" enable-background="new    " d="M98.597,160.663c9.267,3.157,24.36,4.78,40.488-8.008
	l-4.334-18.463c0,0-25.933,3.583-38.57,14.21c-3.009,2.58-3.358,7.11-0.779,10.12C96.253,159.512,97.357,160.253,98.597,160.663z"/>
<path fill="#F4A28C" d="M114.238,122.316c0.825,2.34,1.331,4.782,1.502,7.257c0,1.241-1.002,2.248-2.243,2.253
	c-1.942,0.113-3.771-0.918-4.679-2.639l-2.243-3.441c-0.785-1.509-0.528-3.35,0.639-4.588
	C109.173,118.774,113.467,119.708,114.238,122.316z"/>
<polygon fill="#F4A28C" points="106.961,126.366 108.341,140.921 116.309,139.582 112.107,129.533 "/>
<path fill="#FFD200" d="M113.213,122.773c-1.336,0.328-2.692,0.568-4.06,0.721c1.096,1,1.495,2.555,1.015,3.958
	c-0.468,1.358-1.822,2.204-3.248,2.03c-0.212-0.642-0.372-1.301-0.477-1.969c-0.264-0.751-0.67-1.583-1.512-1.776
	c-0.526-0.013-1.05-0.077-1.563-0.193c-0.614-0.301-0.868-1.043-0.567-1.657c0.023-0.048,0.05-0.095,0.08-0.14
	c0.305-0.406,0.883-0.69,0.863-1.188c-0.021-0.497-0.498-0.69-0.812-1.015c-0.571-0.647-0.706-1.57-0.345-2.354
	c0.372-0.759,0.914-1.423,1.583-1.938c0.134-0.086,0.229-0.221,0.264-0.376c0-0.233-0.213-0.386-0.366-0.558
	c-0.34-0.462-0.34-1.091,0-1.553c0.343-0.458,0.807-0.809,1.34-1.015c1.414-0.577,2.912-0.919,4.436-1.015
	c0.679-0.123,1.379-0.066,2.03,0.163c0.642,0.239,1.053,0.869,1.015,1.553c-0.091,0.629-0.7,1.167-0.579,1.797
	c0.122,0.629,0.934,0.883,1.594,0.893c0.663-0.105,1.34,0.044,1.898,0.416c0.68,0.66,0.132,1.949-0.771,2.243
	c-0.179,0.041-0.348,0.117-0.497,0.223c-0.264,0.244-0.152,0.701,0.061,1.015c0.248,0.271,0.432,0.593,0.538,0.944
	c0.112,0.833-1.208,0.629-1.685,0.71L113.213,122.773z"/>
<path fill="#F4A28C" d="M110.635,127.199c0,0-0.457-1.654-1.674-1.198c-1.218,0.457-0.569,2.842,1.188,2.629L110.635,127.199z"/>
<path fill="#F4A28C" d="M115.04,125.017l1.634,1.36c0.301,0.252,0.341,0.7,0.089,1.001c-0.066,0.079-0.148,0.143-0.242,0.187
	l-1.573,0.741L115.04,125.017z"/>
<path opacity="0.31" fill="#CE8172" enable-background="new    " d="M113.122,131.685c-1.037,0.008-2.053-0.289-2.923-0.853
	c0.823,1.947,2.354,3.51,4.283,4.375L113.122,131.685z"/>
<path fill="#3995B8" d="M87.615,149.285c4.68-8.396,14.222-12.838,23.66-11.013l3.522,0.649c0,0,24.878,3.644,23.345,26.562
	c-1.149,14.168-6.15,27.752-14.464,39.281l-33.586-3.815C90.091,200.949,77.394,168.225,87.615,149.285z"/>
<path fill="#24285B" d="M118.755,262.62l4.923-57.854l-33.586-3.815l-11.094,62.219h6.262l21-40.366
	c0.244-2.111,6.729,40.366,6.729,40.366L118.755,262.62z"/>
<path opacity="0.08" enable-background="new    " d="M104.829,149.326c0,0,2.233,17.529-1.969,33.545
	c-4.202,16.018,0,19.568,0,19.568l-12.769-1.45c0,0-2.801-7.104-3.309-10.708C86.275,186.678,86.58,147.255,104.829,149.326z"/>
<path fill="#3995B8" d="M88.731,159.364c6.872,6.973,19.65,15.174,39.788,10.94l-2.578-22.259c0,0-17.834-4.578-33.871-0.67
	c-3.837,0.969-6.162,4.866-5.193,8.703C87.191,157.32,87.832,158.454,88.731,159.364z"/>
<path opacity="0.46" fill="#FFFFFF" enable-background="new    " d="M88.731,159.364c6.872,6.973,19.65,15.174,39.788,10.94
	l-2.578-22.259c0,0-17.834-4.578-33.871-0.67c-3.837,0.969-6.162,4.866-5.193,8.703C87.191,157.32,87.832,158.454,88.731,159.364z"
	/>
<path fill="#F4A28C" d="M128.276,168.225c0,0,30.176-3.228,46.396-14.088l-1.31-4.647c0,0-28.318,7.551-47.035,1.949
	L128.276,168.225z"/>
<path fill="#F4A28C" d="M174.671,154.117c1.436-0.624,2.826-1.346,4.162-2.163c0.935-0.61,1.669-1.482,2.111-2.507
	c0.312-1.329,0.042-2.729-0.741-3.847c-0.321-0.526-0.942-0.788-1.543-0.649c-0.315,0.136-0.593,0.345-0.812,0.609
	c-0.548,0.599-1.096,1.198-1.634,1.807c-0.001-0.558-0.069-1.113-0.203-1.654c0-0.112-0.081-0.254-0.203-0.264
	c-0.074-0.001-0.146,0.024-0.203,0.071c-1.431,0.954-3.136,2.832-2.679,4.446C173.261,151.173,174.336,152.919,174.671,154.117z"/>
<path fill="#3995B8" d="M79.962,263.087c0,0-1.614,2.589-4.182,2.253c-2.568-0.334-3.766,2.03-1.624,3.137
	c2.142,1.107,8.618-0.537,8.618-0.537l0.781-4.67L79.962,263.087z"/>
<path fill="#F4A28C" d="M298.045,145.651c3.625,1.021,5.737,4.789,4.717,8.416c-0.188,0.668-0.479,1.306-0.859,1.887
	c-2.729,4.242-7.969,9.928-17.803,14.211c-17.896,7.805-42.631-12.627-42.631-12.627s-6.09-1.908-5.41-5.329
	c0.68-3.42,7.512,1.675,7.512,1.675s12.443,9.328,26.867,4.842C282.17,155.091,289.062,143.165,298.045,145.651z"/>
<path fill="#3995B8" d="M158.553,89.501c2.389,4.59,8.046,6.374,12.636,3.985c0.085-0.045,0.17-0.091,0.255-0.138
	c9.683-5.44,25.791-12.424,31.221-24.056c7.044-15.083-23.68-34.886-23.68-34.886l-4.436,5.075c0,0,39.819,25.07-10.231,34.896
	c-6.374,1.259-8.78,9.399-5.765,15.154V89.501L158.553,89.501z"/>
<path opacity="0.46" fill="#FFFFFF" enable-background="new    " d="M158.553,89.501c2.389,4.59,8.046,6.374,12.636,3.985
	c0.085-0.045,0.17-0.091,0.255-0.138c9.683-5.44,25.791-12.424,31.221-24.056c7.044-15.083-23.68-34.886-23.68-34.886l-4.436,5.075
	c0,0,39.819,25.07-10.231,34.896c-6.374,1.259-8.78,9.399-5.765,15.154V89.501L158.553,89.501z"/>
<path fill="#3995B8" d="M247.479,95.947c0,0,2.16-1.36,1.877-3.522c-0.285-2.162,1.674-3.187,2.629-1.391
	c0.953,1.797-0.405,7.268-0.405,7.268l-3.938,0.68L247.479,95.947z"/>
<path fill="#3995B8" d="M250.624,141.703c0,0,2.386,0.934,3.958-0.589c1.572-1.522,3.553-0.558,2.68,1.289
	c-0.873,1.848-6.09,3.989-6.09,3.989l-2.893-2.751L250.624,141.703z"/>
<path fill="#F4A28C" d="M140.862,70.785c1.987,1.444,3.77,3.151,5.298,5.075c0.672,1.005,0.41,2.364-0.589,3.045
	c-1.518,1.174-3.581,1.353-5.278,0.457l-3.756-1.553c-1.467-0.788-2.28-2.414-2.03-4.06
	C134.771,70.704,138.781,69.08,140.862,70.785z"/>
<polygon fill="#F4A28C" points="137.177,78.113 146.394,89.207 152.148,83.696 143.135,77.839 "/>
<path fill="#24285B" d="M140.283,71.708c-0.856,1.061-1.834,2.018-2.913,2.852c1.455,0.192,2.654,1.235,3.045,2.649
	c0.385,1.37-0.23,2.824-1.482,3.502l-4.202-3.786c-1.263-1.056-1.84-2.723-1.502-4.334c0.135-0.688,0.318-1.367,0.548-2.03
	c0.579-1.654,2.974-2.73,3.106-4.557c0.001-0.561,0.457-1.014,1.018-1.013c0.223,0,0.44,0.075,0.617,0.211
	c1.461,0.944,3.289,2.954,2.466,5.329C140.817,70.96,140.581,71.358,140.283,71.708z"/>
<path fill="#F4A28C" d="M140.608,76.773c0,0-1.289-1.096-2.03-0.051c-0.741,1.045,1.116,2.629,2.426,1.482L140.608,76.773z"/>
<path fill="#F4A28C" d="M143.014,72.531l2.03,0.193c0.384,0.047,0.657,0.396,0.61,0.78c-0.01,0.082-0.034,0.161-0.072,0.235
	l-0.863,1.472L143.014,72.531z"/>
<path opacity="0.31" fill="#CE8172" enable-background="new    " d="M145.145,79.037c-0.84,0.579-1.832,0.9-2.852,0.923
	c1.746,1.125,3.852,1.549,5.897,1.188L145.145,79.037z"/>
<path fill="#3995B8" d="M146.394,89.207l3.918-3.755c0.954-0.912,1.855-1.878,2.7-2.893c2.69-3.269,11.5-12.241,24.512-7.978
	c15.773,5.156,24.786,35.789,24.786,35.789l-17.996,20.655C184.314,131.025,121.8,119.353,146.394,89.207z"/>
<path fill="#F4A28C" d="M175.382,38.498c0,0-6.973-3.116-7.521-6.09c-0.548-2.974,5.379,1.573,5.379,1.573s2.781-5.257,5.745,0.396
	L175.382,38.498z"/>
<path fill="#F4A28C" d="M173.768,34.945c0,0-4.771-5.075-3.238-6.09c1.533-1.015,5.227,4.841,5.227,4.841L173.768,34.945z"/>
<path fill="#24285B" d="M184.314,131.005c0,0,13.286,11.084,21.234,0.802c7.947-10.282,9.317-34.297,42.244-32.074l-0.265-5.451
	c0,0-25.853-10.079-46.557,12.099L184.314,131.005z"/>
<path fill="#24285B" d="M194.931,135.471c0,0,25.375-17.61,51.055,9.958l4.639-3.725c0,0-15.227-30.095-54.191-25.649
	L194.931,135.471z"/>
<path opacity="0.08" enable-background="new    " d="M159.497,96.16c0,0,5.968,3.045,9.744,14.21
	c3.776,11.165,23.264,8.597,23.264,8.597l-8.191,12.099c0,0-20.209-4.283-31.11-11.277c-10.901-6.993,6.009-22.949,6.009-22.949
	L159.497,96.16z"/>
<path fill="#3995B8" d="M146.485,113.08c14.789,6.263,48.111,14.717,55.307-31.993l-6.638-2.588c0,0-13.195,31.292-39.058,17.001
	c-0.962-0.545-1.958-1.026-2.984-1.441c-4.598-1.827-16.057-5.288-15.915,5.521C137.351,105.521,140.991,110.813,146.485,113.08z"/>
<path opacity="0.46" fill="#FFFFFF" enable-background="new    " d="M146.485,113.08c14.789,6.263,48.111,14.717,55.307-31.993
	l-6.638-2.588c0,0-13.195,31.292-39.058,17.001c-0.962-0.545-1.958-1.026-2.984-1.441c-4.598-1.827-16.057-5.288-15.915,5.521
	C137.351,105.521,140.991,110.813,146.485,113.08z"/>
<path fill="#F4A28C" d="M196.332,78.956c0.426-2.307,1.479-4.453,3.045-6.202c2.406-2.395,4.861-2.03,6.223-0.162
	c1.359,1.868-4.628,4.963-4.628,4.963l-0.122,3.157L196.332,78.956z"/>
<rect x="87.755" y="101.24" transform="matrix(0.862 -0.5069 0.5069 0.862 -39.1903 62.9589)" opacity="0.5" fill="#E6E6E6" enable-background="new    " width="16.564" height="4.435"/>
<rect x="266.266" y="92.328" transform="matrix(-0.9672 0.2541 -0.2541 -0.9672 564.111 116.2223)" opacity="0.5" fill="#E6E6E6" enable-background="new    " width="16.565" height="4.436"/>
<rect x="227.545" y="66.226" transform="matrix(-0.9515 -0.3077 0.3077 -0.9515 434.7408 204.1678)" opacity="0.5" fill="#E6E6E6" enable-background="new    " width="11.844" height="3.167"/>
<rect x="266.759" y="66.213" transform="matrix(0.4272 -0.9042 0.9042 0.4272 94.8972 285.384)" opacity="0.5" fill="#E6E6E6" enable-background="new    " width="11.844" height="3.167"/>
<rect x="210.123" y="150.865" transform="matrix(0.4272 -0.9042 0.9042 0.4272 -14.0841 282.6653)" opacity="0.5" fill="#E6E6E6" enable-background="new    " width="11.846" height="3.167"/>
<rect x="304.219" y="77.471" transform="matrix(-0.9906 -0.1369 0.1369 -0.9906 606.5396 199.8227)" opacity="0.5" fill="#E6E6E6" enable-background="new    " width="11.845" height="3.167"/>
<rect x="114.7" y="81.924" transform="matrix(-0.9632 -0.2686 0.2686 -0.9632 214.3793 196.3472)" opacity="0.5" fill="#E6E6E6" enable-background="new    " width="11.845" height="3.167"/>
<rect x="152.863" y="55.958" transform="matrix(-0.9799 0.1997 -0.1997 -0.9799 325.8643 82.2126)" opacity="0.5" fill="#E6E6E6" enable-background="new    " width="11.846" height="3.167"/>
<rect x="95.419" y="59.08" transform="matrix(-0.9799 0.1997 -0.1997 -0.9799 212.7562 99.8643)" opacity="0.5" fill="#E6E6E6" enable-background="new    " width="11.846" height="3.166"/>
</svg>
