<?xml version="1.0" encoding="utf-8"?>
<!-- Generator: Adobe Illustrator 16.0.0, SVG Export Plug-In . SVG Version: 6.00 Build 0)  -->
<!DOCTYPE svg PUBLIC "-//W3C//DTD SVG 1.1//EN" "http://www.w3.org/Graphics/SVG/1.1/DTD/svg11.dtd">
<svg version="1.1" id="Layer_1" xmlns="http://www.w3.org/2000/svg" xmlns:xlink="http://www.w3.org/1999/xlink" x="0px" y="0px"
	 width="406px" height="306px" viewBox="0 0 406 306" enable-background="new 0 0 406 306" xml:space="preserve">
<title>_</title>
<path opacity="0.1" fill="#E6E6E6" enable-background="new    " d="M308.469,65.649c33.646,9.379,59.621,36.165,66.168,69.822
	c5.521,28.35-4.213,63.326-59.732,79.871c-56.668,16.899-214.866,25.842-243.946-20.026C41.879,149.447,48.486,90.334,108.93,69.029
	C151.296,54.088,242.737,47.328,308.469,65.649z"/>
<rect x="143.409" y="40.314" fill="#F39C50" width="185.177" height="203.346"/>
<g>
	<path d="M283.875,154.016L283.875,154.016z"/>
	<path d="M244.442,120.236L244.442,120.236z"/>
	<path d="M283.875,182.191v-5.613h-5.592v-11.297h5.592v-11.266h-5.633v-11.267h-5.593v-5.644h5.593v-5.623h-5.644v-5.623h-28.156
		v-5.613h-5.644V109h-5.613v11.165h-5.633v-16.818h-5.643v45.076h-16.881v5.593h16.881v5.643h5.623c0,1.867,0,3.746,0,5.613h5.592
		v5.653h-5.562v11.246h11.277v-5.603h28.105v5.633h-11.166v5.623h5.624v5.613h11.276v5.613h5.623v-11.236h16.859v-5.623H283.875z
		 M261.373,131.533h5.572v5.572h-5.572V131.533z M250.065,170.904h-5.572v-5.572h5.572V170.904z M250.065,148.412v11.227h-5.634
		v-5.623h-5.623v5.602h-11.246v-5.602h5.604v-5.624h-5.582v-11.267h11.215v-5.623h16.9v11.246h11.246v5.644h-16.85L250.065,148.412z
		 M261.312,165.291h-5.532v-5.592h5.594L261.312,165.291z M272.548,170.904h-11.186v-5.592h11.216L272.548,170.904z
		 M272.548,154.005h-5.603v-5.593h5.592L272.548,154.005z"/>
	<path d="M261.362,193.469L261.362,193.469z"/>
	<path d="M250.086,148.412L250.086,148.412z"/>
	<path d="M227.553,103.336L227.553,103.336z"/>
	<path d="M227.562,182.201L227.562,182.201z"/>
	<path d="M283.875,176.559L283.875,176.559L283.875,176.559z"/>
	<circle cx="278.252" cy="142.769" r="0.01"/>
	<path d="M227.562,165.291L227.562,165.291L227.562,165.291L227.562,165.291z"/>
	<path d="M216.256,80.833h-39.372v39.372h39.372V80.833z M210.633,114.572h-28.105V86.467h28.105V114.572z"/>
	<path d="M295.111,80.854h-39.332v39.361h39.362L295.111,80.854z M289.498,114.582h-28.105V86.477h28.105V114.582z"/>
	<path d="M176.894,199.061h39.372v-39.371h-39.372V199.061z M182.538,165.332h28.095v28.105h-28.095V165.332z"/>
	<path d="M227.553,103.336L227.553,103.336z"/>
	<path d="M233.217,97.733h5.623v5.623h5.623v5.583h5.603V97.703h-5.572V92.1h5.562V80.935H221.95V92.1h5.612v11.246h5.654V97.733z
		 M233.217,86.467h5.572v5.572h-5.572V86.467z"/>
	<path d="M193.764,131.513v16.849h-11.287v-5.511h-5.572v11.166h22.502v-11.267h16.859v-5.623h-11.236v-5.613H193.764z"/>
	<path d="M193.753,131.513L193.753,131.513z"/>
	<path d="M221.96,199.07h16.829v-5.623h-5.613v-5.623h-5.623v-5.623h-5.593V199.07z"/>
	<path d="M227.562,182.201L227.562,182.201z"/>
	<path d="M193.753,131.513L193.753,131.513z"/>
	<path d="M176.904,125.91v11.165h5.603v-5.613h11.246v-5.593L176.904,125.91z"/>
	<path d="M295.111,142.749v-16.849h-11.165v5.623h5.612v11.226H295.111z"/>
	<circle cx="205.02" cy="131.502" r="0.01"/>
	<path d="M216.256,125.91h-11.227v5.593h11.227V125.91z"/>
	<path d="M283.875,154.016L283.875,154.016z"/>
	<path d="M289.488,148.443h-5.604v5.573h5.604V148.443z"/>
	<path d="M295.111,159.689h-5.572v5.582h5.572V159.689z"/>
	<path d="M244.442,120.236L244.442,120.236z"/>
	<path d="M250.055,114.643h-5.592v5.593h5.592V114.643z"/>
	<path d="M221.96,165.312v5.612h5.593v-5.612H221.96z"/>
	<circle cx="227.553" cy="170.935" r="0.01"/>
	<path d="M283.875,176.559L283.875,176.559z"/>
	<path d="M289.488,170.965h-5.604v5.594h5.604V170.965z"/>
	<circle cx="278.252" cy="137.135" r="0.01"/>
	<path d="M283.845,142.769v-5.623h-5.593v5.623H283.845z"/>
	<path d="M244.482,193.447h5.572v-5.582h-5.572V193.447z"/>
	<path d="M261.362,193.469L261.362,193.469z"/>
	<path d="M255.779,199.061h5.594v-5.592h-5.594V199.061z"/>
	<path d="M289.539,199.081h5.572v-5.583h-5.572V199.081z"/>
	<path d="M250.086,148.412L250.086,148.412z"/>
	<path d="M244.493,142.85v5.603h5.593v-5.603H244.493z"/>
	<path d="M205.029,92.1H188.15v16.849h16.879V92.1z"/>
	<path d="M283.845,92.1h-16.839v16.839h16.839V92.1z"/>
	<path d="M188.15,187.794h16.879v-16.839H188.15V187.794z"/>
</g>
<rect x="143.714" y="60.99" opacity="0.2" enable-background="new    " width="56.424" height="146.606"/>
<path fill="#F4A28C" d="M95.187,168.58c0,0,8.435-39.727,29.689-39.727s32.541,62.443-19.143,69.244L95.187,168.58z"/>
<path opacity="0.1" enable-background="new    " d="M95.187,168.58c0,0,8.435-39.727,29.689-39.727s32.541,62.443-19.143,69.244
	L95.187,168.58z"/>
<rect x="113.771" y="56.595" fill="#3995B8" width="81.312" height="144.506"/>
<rect x="113.771" y="56.595" opacity="0.46" fill="#FFFFFF" enable-background="new    " width="81.312" height="144.506"/>
<rect x="120.379" y="68.349" fill="#FFFFFF" width="68.097" height="108.108"/>
<rect x="127.373" y="144.941" fill="#FFD200" width="52.912" height="16.341"/>
<path opacity="0.1" enable-background="new    " d="M138.345,140.932c0,0,9.043,5.43,5.572,13.489
	c-3.472,8.06-14.058,12.952-14.21,23.528c-0.152,10.576,0,23.162,0,23.162h-15.936v-24.665L138.345,140.932z"/>
<path fill="#F4A28C" d="M111.823,153.822c0,0,16.402-16.768,23.487-15.276c5.836,1.228,5.847,12.86-6.882,22.543
	c-5.234,3.932-8.504,9.942-8.962,16.473c-0.355,5.42-2.142,11.855-7.643,16.728c-11.551,10.231-20.127,1.34-19.011-12.495
	C93.928,167.961,94.679,163.891,111.823,153.822z"/>
<polygon fill="#3995B8" points="113.264,260.418 118.207,192.078 86.894,182.588 63.641,260.418 "/>
<polygon opacity="0.1" enable-background="new    " points="113.264,260.418 118.207,192.078 103.256,187.551 93.979,260.418 "/>
<circle opacity="0.1" enable-background="new    " cx="136.599" cy="62.3" r="2.477"/>
<path opacity="0.1" enable-background="new    " d="M144.973,61.437h24.065c0.583,0,1.056,0.473,1.056,1.056v0.142
	c0,0.583-0.473,1.055-1.056,1.055h-24.065c-0.583,0-1.056-0.472-1.056-1.055v-0.142C143.917,61.91,144.39,61.437,144.973,61.437z"/>
<circle opacity="0.1" enable-background="new    " cx="152.504" cy="188.251" r="7.907"/>
<polygon fill="#24285B" points="175.361,113.801 175.361,113.811 175.372,113.811 "/>
<polygon fill="#24285B" points="158.117,99.022 158.117,99.032 158.127,99.032 "/>
<path fill="#24285B" d="M175.361,126.113v-2.457h-2.446v-4.933h2.446v-4.913h-2.466v-4.933h-2.446v-2.466h2.446v-2.467h-2.466
	v-2.466h-12.312v-2.446h-2.466V94.13h-2.457v4.902h-2.456v-7.389h-2.467v19.742h-7.369v2.457h7.379v2.466h2.457
	c0,0.822,0,1.645,0,2.457h2.446v2.477h-2.446v4.913h4.933v-2.487h12.292v2.466h-4.903v2.507h2.457v2.456h4.933v2.457h2.456v-4.933
	h7.379v-2.456L175.361,126.113z M165.526,103.965h2.436v2.436h-2.436V103.965z M160.573,121.22h-2.436v-2.436h2.436V121.22z
	 M160.573,111.385v4.913h-2.467v-2.446h-2.456v2.456h-4.933v-2.456h2.446v-2.467h-2.436v-4.933h4.902v-2.457h7.389v4.903h4.933
	v2.486H160.573L160.573,111.385z M165.485,118.764h-2.446v-2.446h2.446V118.764z M170.398,121.22h-4.903v-2.446h4.903V121.22z
	 M170.398,113.831h-2.416v-2.446h2.446L170.398,113.831z"/>
<polygon fill="#24285B" points="165.516,131.045 165.516,131.045 165.506,131.045 "/>
<polygon fill="#24285B" points="160.583,111.344 160.593,111.344 160.593,111.334 "/>
<polygon fill="#24285B" points="150.728,91.633 150.728,91.643 150.738,91.643 "/>
<polygon fill="#24285B" points="150.738,126.123 150.738,126.113 150.728,126.113 "/>
<polygon fill="#24285B" points="175.361,123.656 175.361,123.656 175.372,123.656 "/>
<circle fill="#24285B" cx="172.905" cy="108.878" r="0"/>
<polygon fill="#24285B" points="150.738,118.724 150.728,118.724 150.728,118.733 150.738,118.733 "/>
<path fill="#24285B" d="M145.794,81.798H128.54v17.255h17.255V81.798z M143.328,96.546h-12.281V84.254h12.281V96.546z"/>
<path fill="#24285B" d="M180.274,81.798h-17.255v17.255h17.255V81.798z M177.818,96.546h-12.292V84.264h12.292V96.546z"/>
<path fill="#24285B" d="M128.58,133.492h17.255v-17.255H128.58V133.492z M131.047,118.744h12.292v12.292h-12.292V118.744z"/>
<polygon fill="#24285B" points="150.728,91.633 150.738,91.643 150.738,91.633 "/>
<path fill="#24285B" d="M153.204,89.187h2.466v2.456h2.457v2.487h2.446v-4.963h-2.436V86.7h2.436v-4.902h-12.292v4.913h2.457v4.923
	h2.466V89.187z M153.204,84.254h2.436v2.436h-2.436V84.254z"/>
<path fill="#24285B" d="M136.01,103.955v7.369h-4.943v-2.436h-2.436v4.902h9.846v-4.923h7.369v-2.456h-4.963v-2.457H136.01z"/>
<polygon fill="#24285B" points="135.949,103.955 135.959,103.955 135.959,103.945 "/>
<path fill="#24285B" d="M148.292,133.502h7.359v-2.467h-2.457v-2.456h-2.466v-2.456h-2.436V133.502z"/>
<polygon fill="#24285B" points="150.738,126.123 150.728,126.113 150.728,126.123 "/>
<polygon fill="#24285B" points="135.949,103.955 135.959,103.945 135.949,103.945 "/>
<path fill="#24285B" d="M128.58,101.499v4.902h2.457v-2.457h4.913v-2.446H128.58z"/>
<path fill="#24285B" d="M180.274,108.868v-7.369h-4.892v2.456h2.456v4.913H180.274z"/>
<circle fill="#24285B" cx="140.882" cy="103.955" r="0"/>
<path fill="#24285B" d="M145.794,101.499h-4.913v2.446h4.913V101.499z"/>
<polygon fill="#24285B" points="175.361,113.801 175.372,113.811 175.372,113.801 "/>
<path fill="#24285B" d="M177.818,111.385h-2.446v2.446h2.446V111.385z"/>
<path fill="#24285B" d="M180.274,116.277h-2.436v2.436h2.436V116.277z"/>
<polygon fill="#24285B" points="158.117,99.022 158.127,99.032 158.127,99.022 "/>
<path fill="#24285B" d="M160.573,96.576h-2.446v2.446h2.446V96.576z"/>
<path fill="#24285B" d="M148.281,118.733v2.457h2.446v-2.457H148.281z"/>
<circle fill="#24285B" cx="150.738" cy="121.19" r="0"/>
<polygon fill="#24285B" points="175.361,123.656 175.372,123.656 175.372,123.656 "/>
<path fill="#24285B" d="M177.818,121.21h-2.446v2.446h2.446V121.21z"/>
<circle fill="#24285B" cx="172.905" cy="106.412" r="0"/>
<path fill="#24285B" d="M175.352,108.878v-2.456h-2.446v2.456H175.352z"/>
<path fill="#24285B" d="M158.137,131.035h2.436v-2.395h-2.436V131.035z"/>
<polygon fill="#24285B" points="165.516,131.045 165.506,131.045 165.506,131.045 "/>
<path fill="#24285B" d="M163.06,133.492h2.446v-2.446h-2.446V133.492z"/>
<path fill="#24285B" d="M177.838,133.502h2.436v-2.436h-2.436V133.502z"/>
<polygon fill="#24285B" points="160.583,111.344 160.593,111.334 160.583,111.334 "/>
<path fill="#24285B" d="M158.137,108.888v2.497h2.446v-2.446L158.137,108.888z"/>
<path fill="#24285B" d="M140.862,86.721h-7.359v7.409h7.359V86.721z"/>
<path fill="#24285B" d="M175.352,86.721h-7.369v7.409h7.369V86.721z"/>
<path fill="#24285B" d="M133.503,128.569h7.359V121.2h-7.359V128.569z"/>
<rect x="188.476" y="217.533" opacity="0.46" fill="#FFFFFF" enable-background="new    " width="95.44" height="5.705"/>
</svg>
