<?xml version="1.0" encoding="utf-8"?>
<!-- Generator: Adobe Illustrator 16.0.0, SVG Export Plug-In . SVG Version: 6.00 Build 0)  -->
<!DOCTYPE svg PUBLIC "-//W3C//DTD SVG 1.1//EN" "http://www.w3.org/Graphics/SVG/1.1/DTD/svg11.dtd">
<svg version="1.1" id="Layer_1" xmlns="http://www.w3.org/2000/svg" xmlns:xlink="http://www.w3.org/1999/xlink" x="0px" y="0px"
	 width="406px" height="306px" viewBox="0 0 406 306" enable-background="new 0 0 406 306" xml:space="preserve">
<rect x="26.682" y="39.568" fill="#E6E6E6" width="305.14" height="210.43"/>
<rect x="26.682" y="83.379" opacity="0.44" fill="#CCCCCC" enable-background="new    " width="305.14" height="166.619"/>
<polygon opacity="0.08" enable-background="new    " points="320.166,137.703 296.919,170.756 318.799,170.756 318.799,181.998
	331.821,181.998 331.004,141.683 "/>
<path opacity="0.45" fill="#E6E6E6" enable-background="new    " d="M329.864,256.465c27.312,0,49.454,2.23,49.454,4.982
	s-22.142,4.984-49.454,4.984c-27.31,0-49.451-2.232-49.451-4.984S302.555,256.465,329.864,256.465z"/>
<circle fill="#FF0303" cx="51.294" cy="58.875" r="5.869"/>
<circle fill="#FFD200" cx="68.753" cy="58.875" r="5.869"/>
<circle fill="#32FF00" cx="85.204" cy="58.875" r="5.869"/>
<path fill="#FFFFFF" d="M109.723,148.507c-1.31-1.307-1.312-3.428-0.005-4.737c0.001-0.002,0.004-0.004,0.005-0.006l19.977-19.963
	c1.378-1.233,3.497-1.114,4.729,0.265c1.137,1.271,1.137,3.193,0,4.465l-19.977,19.977
	C113.146,149.81,111.029,149.81,109.723,148.507z"/>
<path fill="#FFFFFF" d="M130.021,148.83l-19.976-19.977c-1.329-1.287-1.362-3.408-0.076-4.736s3.408-1.362,4.735-0.075
	c0.028,0.027,0.056,0.054,0.082,0.082l19.964,19.963c1.333,1.283,1.373,3.404,0.089,4.736s-3.403,1.373-4.736,0.088
	C130.076,148.883,130.048,148.857,130.021,148.83L130.021,148.83z"/>
<path fill="#FFFFFF" d="M220.498,148.507c-1.31-1.307-1.312-3.428-0.008-4.737c0.003-0.002,0.005-0.004,0.008-0.006l19.976-19.963
	c1.231-1.38,3.352-1.498,4.73-0.266s1.498,3.35,0.263,4.729c-0.082,0.093-0.17,0.182-0.263,0.266l-19.965,19.977
	C223.924,149.805,221.812,149.805,220.498,148.507z"/>
<path fill="#FFFFFF" d="M240.834,148.83l-19.976-19.977c-1.33-1.287-1.36-3.408-0.077-4.736c1.289-1.328,3.408-1.362,4.739-0.075
	c0.028,0.027,0.054,0.054,0.082,0.082l19.963,19.963c1.332,1.283,1.371,3.404,0.087,4.736c-1.283,1.332-3.402,1.373-4.735,0.088
	C240.889,148.883,240.862,148.857,240.834,148.83L240.834,148.83z"/>
<path fill="#FFFFFF" d="M150.988,205.703c-1.742-0.002-3.189-1.344-3.322-3.082c-0.938-11.4,3.39-33.842,26.421-37.111
	c7.194-1.006,13.211,0.643,17.873,4.93c10.945,10.062,9.86,31.219,9.821,32.154c-0.104,1.852-1.688,3.266-3.537,3.162
	c-1.852-0.102-3.268-1.686-3.163-3.537l0,0c0-0.188,0.951-18.893-7.662-26.797c-3.164-2.893-7.209-3.936-12.395-3.215
	c-22.617,3.098-20.78,28.779-20.688,29.891c0.146,1.844-1.226,3.455-3.066,3.604h-0.282V205.703z"/>
<rect x="326.662" y="153.541" fill="#E6E6E6" width="8.671" height="87.248"/>
<polygon fill="#FFD200" points="331.821,107.598 296.919,161.07 331.821,161.07 366.737,161.07 "/>
<rect x="318.799" y="233.312" fill="#24285B" width="25.31" height="28.482"/>
<rect x="329.062" y="127.48" fill="#24285B" width="4.955" height="16.077"/>
<rect x="329.062" y="146.693" fill="#24285B" width="4.955" height="4.957"/>
<rect x="318.799" y="181.998" opacity="0.08" enable-background="new    " width="7.863" height="51.314"/>
</svg>
