<?xml version="1.0" encoding="utf-8"?>
<!-- Generator: Adobe Illustrator 16.0.0, SVG Export Plug-In . SVG Version: 6.00 Build 0)  -->
<!DOCTYPE svg PUBLIC "-//W3C//DTD SVG 1.1//EN" "http://www.w3.org/Graphics/SVG/1.1/DTD/svg11.dtd">
<svg version="1.1" id="Layer_1" xmlns="http://www.w3.org/2000/svg" xmlns:xlink="http://www.w3.org/1999/xlink" x="0px" y="0px"
	 width="406px" height="306px" viewBox="0 0 406 306" enable-background="new 0 0 406 306" xml:space="preserve">
<title>_</title>
<path opacity="0.1" fill="#E6E6E6" enable-background="new    " d="M106.809,64.583c-34.449,9.307-61.631,31.12-65.924,71.263
	c-3.624,33.829,4.974,91.35,63.458,97.593c118.238,12.615,244.188,25.273,261.119-33.029
	c11.479-39.523,15.154-110.249-48.72-132.132C273.492,53.438,180.67,44.628,106.809,64.583z"/>
<rect x="116.542" y="75.921" fill="#E6E6E6" width="245.629" height="136.934"/>
<rect x="301.638" y="99.296" opacity="0.46" fill="#FFFFFF" enable-background="new    " width="38.489" height="43.797"/>
<rect x="301.638" y="153.021" opacity="0.18" fill="#A5A5A5" enable-background="new    " width="38.489" height="7.643"/>
<rect x="301.638" y="167.434" opacity="0.18" fill="#A5A5A5" enable-background="new    " width="38.489" height="7.643"/>
<rect x="301.638" y="181.846" opacity="0.18" fill="#A5A5A5" enable-background="new    " width="30.785" height="7.644"/>
<rect x="247.285" y="99.296" opacity="0.46" fill="#FFFFFF" enable-background="new    " width="38.488" height="43.797"/>
<rect x="247.285" y="153.021" opacity="0.18" fill="#A5A5A5" enable-background="new    " width="38.488" height="7.643"/>
<rect x="247.285" y="167.434" opacity="0.18" fill="#A5A5A5" enable-background="new    " width="38.488" height="7.643"/>
<rect x="247.285" y="181.846" opacity="0.18" fill="#A5A5A5" enable-background="new    " width="30.784" height="7.644"/>
<rect x="192.941" y="99.296" opacity="0.46" fill="#FFFFFF" enable-background="new    " width="38.488" height="43.797"/>
<rect x="192.941" y="153.021" opacity="0.18" fill="#A5A5A5" enable-background="new    " width="38.488" height="7.643"/>
<rect x="192.941" y="167.434" opacity="0.18" fill="#A5A5A5" enable-background="new    " width="38.488" height="7.643"/>
<rect x="192.941" y="181.846" opacity="0.18" fill="#A5A5A5" enable-background="new    " width="30.785" height="7.644"/>
<rect x="138.588" y="99.296" opacity="0.46" fill="#FFFFFF" enable-background="new    " width="38.489" height="43.797"/>
<rect x="138.588" y="153.021" opacity="0.18" fill="#A5A5A5" enable-background="new    " width="38.489" height="7.643"/>
<rect x="138.588" y="167.434" opacity="0.18" fill="#A5A5A5" enable-background="new    " width="38.489" height="7.643"/>
<rect x="138.588" y="181.846" opacity="0.18" fill="#A5A5A5" enable-background="new    " width="30.785" height="7.644"/>
<path opacity="0.58" fill="#3995B8" enable-background="new    " d="M319.156,232.627c0,0-9.946-2.721-12.108-11.977
	c0,0,15.407-3.117,15.844,12.789L319.156,232.627z"/>
<path opacity="0.73" fill="#3995B8" enable-background="new    " d="M320.375,231.643c0,0-6.953-10.992-0.833-21.265
	c0,0,11.714,7.45,6.507,21.315L320.375,231.643z"/>
<path fill="#3995B8" d="M322.161,231.643c0,0,3.654-11.602,14.819-13.795c0,0,2.08,7.532-7.187,13.835L322.161,231.643z"/>
<polygon fill="#24285B" points="314.954,231.389 316.964,245.182 329.662,245.232 331.54,231.449 "/>
<path fill="#24285B" d="M157.812,221.736c0.112-0.305,0.213-0.609,0.325-0.894c0.445-1.206,1.021-2.359,1.715-3.44
	c1.289-1.868,2.761-2.589,4.445-1.665c0.731,0.419,1.367,0.986,1.868,1.665c0.784,1.047,1.403,2.207,1.837,3.44
	c0.111,0.284,0.203,0.589,0.304,0.894h14.748l0.142-0.894l0.538-3.44l1.847-11.855l-22.229-1.391l-12.119-0.762l-0.873-0.051
	l-5.684-0.355h-0.122v18.758L157.812,221.736z"/>
<path fill="#3995B8" d="M116.725,139.866c4.313,10.602,4.53,22.428,0.609,33.181c-6.557,18.27,7.714,27.485-19.945,29.932
	S116.725,139.866,116.725,139.866z"/>
<path opacity="0.08" enable-background="new    " d="M116.725,139.866c4.313,10.602,4.53,22.428,0.609,33.181
	c-6.557,18.27,7.714,27.485-19.945,29.932S116.725,139.866,116.725,139.866z"/>
<path fill="#F4A28C" d="M100.069,102.544c0.678,2.491,1.02,5.062,1.015,7.643c-0.065,1.288-1.162,2.278-2.45,2.213
	c-0.005,0-0.011,0-0.017-0.001c-2.02-0.017-3.845-1.206-4.679-3.045l-2.101-3.735c-0.699-1.629-0.292-3.522,1.015-4.72
	C95.055,98.505,99.47,99.784,100.069,102.544z"/>
<polygon fill="#F4A28C" points="92.71,106.482 89.066,121.261 97.349,122.692 96.699,111.649 "/>
<path fill="#F4A28C" d="M100.708,105.407l1.593,1.522c0.297,0.282,0.309,0.751,0.026,1.047c-0.075,0.08-0.167,0.141-0.27,0.181
	l-1.685,0.66L100.708,105.407z"/>
<path opacity="0.31" fill="#CE8172" enable-background="new    " d="M96.719,111.963c0,0-2.832-1.309-3.603-2.466
	c0,0,0.162,6.09,3.918,7.846L96.719,111.963z"/>
<path fill="#F4A28C" d="M95.41,106.757c0,0-0.366-1.746-1.655-1.371s-0.792,2.913,1.015,2.822L95.41,106.757z"/>
<path fill="#24285B" d="M87.676,103.955c-0.964,4.151-1.127,8.587-3.441,12.129c-0.355,0.528-0.731,1.279-0.264,1.715
	c0.193,0.156,0.433,0.242,0.68,0.244c1.961,0.074,3.832-0.822,5.004-2.396c1.144-1.573,1.936-3.373,2.325-5.278
	c0.248-1.23,0.615-2.434,1.096-3.593c0.47-1.051,1.263-1.926,2.263-2.497c0.731-0.417,1.543-1.127,2.233-1.482l1.827-0.923
	c1.582-0.822,2.198-2.771,1.376-4.352c-0.062-0.12-0.132-0.236-0.209-0.348c-0.625-0.97-1.612-1.649-2.741-1.888
	c-2.03-0.365-3.796,1.015-5.562,1.868c-1.739,0.641-3.091,2.038-3.674,3.796C88.214,101.93,87.909,102.934,87.676,103.955z"/>
<path fill="#F4A28C" d="M92.771,104.95c0,0-2.253-1.339-3.096,0.457s1.685,3.197,3.39,2.111
	C92.664,106.725,92.56,105.813,92.771,104.95z"/>
<path fill="#3995B8" d="M98.059,122.55l-8.292-1.421c0,0-27.578,0-32.399,9.48c-4.821,9.48-3.816,44.589,12.18,73.445l32.652,0.943
	c0,0-1.807-21.193,4.273-32.733C112.553,160.725,131.432,136.182,98.059,122.55z"/>
<path opacity="0.08" enable-background="new    " d="M72.309,133.969c0,0,9.054,7.938,7.227,16.697
	c-0.294,1.411-0.599,3.125-0.903,5.004c-2.409,14.721,1.883,29.747,11.703,40.975l5.704,6.527l-26.572,0.893l-2.274-4.455
	L54.81,178.953L72.309,133.969z"/>
<path fill="#3995B8" d="M56.911,131.452c-6.09,8.516-11.429,27.314-6.76,53.794c1.436,8.066,8.205,14.102,16.382,14.606
	l24.959,1.573v-8.12l-18.96-2.751c-3.978-0.576-6.735-4.268-6.16-8.245c0.053-0.366,0.134-0.729,0.242-1.083
	c3.339-10.972,8.496-30.906,7.176-45.116C72.979,127.483,61.915,124.387,56.911,131.452z"/>
<path opacity="0.46" fill="#FFFFFF" enable-background="new    " d="M56.911,131.452c-6.09,8.516-11.429,27.314-6.76,53.794
	c1.436,8.066,8.205,14.102,16.382,14.606l24.959,1.573v-8.12l-18.96-2.751c-3.978-0.576-6.735-4.268-6.16-8.245
	c0.053-0.366,0.134-0.729,0.242-1.083c3.339-10.972,8.496-30.906,7.176-45.116C72.979,127.483,61.915,124.387,56.911,131.452z"/>
<path fill="#F4A28C" d="M91.492,197.843c0,0,10.15-0.173,8.688,3.35c-1.462,3.522-8.688,0.761-8.688,0.761V197.843z"/>
<polygon fill="#FFD200" points="125.19,203.344 129.271,180.232 100.282,180.232 97.765,199.934 84.468,200.116 84.468,203.344 "/>
<circle fill="#FFFFFF" cx="113.639" cy="191.306" r="2.903"/>
<rect x="55.216" y="209.615" fill="#CCCCCC" width="160.543" height="36.085"/>
<rect x="52.364" y="202.979" fill="#B3B3B3" stroke="#B3B3B3" stroke-miterlimit="10" width="166.248" height="7.399"/>
</svg>
