<?xml version="1.0" encoding="utf-8"?>
<!-- Generator: Adobe Illustrator 16.0.0, SVG Export Plug-In . SVG Version: 6.00 Build 0)  -->
<!DOCTYPE svg PUBLIC "-//W3C//DTD SVG 1.1//EN" "http://www.w3.org/Graphics/SVG/1.1/DTD/svg11.dtd">
<svg version="1.1" id="Layer_1" xmlns="http://www.w3.org/2000/svg" xmlns:xlink="http://www.w3.org/1999/xlink" x="0px" y="0px"
	 width="406px" height="306px" viewBox="0 0 406 306" enable-background="new 0 0 406 306" xml:space="preserve">
<title>_</title>
<path opacity="0.1" fill="#E6E6E6" enable-background="new    " d="M100.952,66.004C67.112,79.108,42,112.319,37.007,152.503
	c-4.171,33.86,5.796,71.272,64.473,81.931c114.167,20.746,231.856,23.172,259.15-32.785
	c27.293-55.957-10.059-145.561-68.005-151.762C246.645,44.953,167.059,40.416,100.952,66.004z"/>
<path fill="#24285B" d="M160.238,58.179h85.523c5.365,0,9.714,4.349,9.714,9.713v161.629c0,5.364-4.349,9.713-9.714,9.713h-85.523
	c-5.365,0-9.714-4.349-9.714-9.713V67.892C150.524,62.527,154.874,58.179,160.238,58.179z"/>
<circle opacity="0.03" enable-background="new    " cx="203" cy="226.101" r="7.603"/>
<rect x="160.756" y="73.891" fill="#3995B8" width="84.479" height="140.974"/>
<circle opacity="0.03" enable-background="new    " cx="193.327" cy="203.72" r="2.761"/>
<circle opacity="0.44" fill="#FFFFFF" enable-background="new    " cx="203" cy="203.72" r="2.761"/>
<circle opacity="0.03" enable-background="new    " cx="212.673" cy="203.72" r="2.761"/>
<rect x="172.032" y="89.44" opacity="0.2" enable-background="new    " width="61.936" height="52.872"/>
<rect x="172.032" y="152.502" opacity="0.2" enable-background="new    " width="43.452" height="4.841"/>
<rect x="218.418" y="152.502" opacity="0.03" enable-background="new    " width="15.55" height="4.841"/>
<rect x="172.032" y="167.352" opacity="0.2" enable-background="new    " width="20.3" height="4.842"/>
<rect x="196.646" y="167.352" opacity="0.03" enable-background="new    " width="37.322" height="4.842"/>
<rect x="172.032" y="182.212" opacity="0.2" enable-background="new    " width="46.903" height="4.841"/>
<path opacity="0.1" enable-background="new    " d="M231.826,239.275c0-1.016-2.152-42.631-0.771-48.822
	s14.047-36.459,10.708-39.991c-3.339-3.532-15.569,4.506-15.569,4.506s2.232-36.448-3.045-39.047
	c-5.279-2.598-7.623,7.582-7.623,7.582l-2.812,40.772l-13.925,74.806L231.826,239.275z"/>
<path fill="#F4A28C" d="M222.417,196.838c1.776-7.105,4.446-14.037,6.151-21.213c1.126-4.751,8.414-24.604,10.454-30.451
	c0.63-1.796,1.167-3.969-0.051-5.43c-0.835-0.869-2.056-1.251-3.237-1.015c-1.174,0.245-2.256,0.811-3.127,1.634
	c-2.029,1.786-5.775,10.627-8.516,10.617c-3.319,0-1.756-9.135-1.848-10.891c-0.375-7.562,0.184-17.255-2.771-24.36
	c-2.192-5.278-7.633-4.567-8.912,1.137c-1.278,5.704-1.228,29.607-1.228,29.607s-21.234-3.644-24.858,2.832
	c-3.624,6.476,2.497,47.613,2.497,47.613L222.417,196.838z"/>
<polygon fill="#FFD200" points="225.006,259.94 224.619,194.564 184.943,185.855 168.967,259.94 "/>
<polygon opacity="0.1" enable-background="new    " points="225.006,259.94 224.619,194.564 205.68,190.402 202.29,259.94 "/>
</svg>
