<?xml version="1.0" encoding="utf-8"?>
<!-- Generator: Adobe Illustrator 16.0.0, SVG Export Plug-In . SVG Version: 6.00 Build 0)  -->
<!DOCTYPE svg PUBLIC "-//W3C//DTD SVG 1.1//EN" "http://www.w3.org/Graphics/SVG/1.1/DTD/svg11.dtd">
<svg version="1.1" id="Layer_1" xmlns="http://www.w3.org/2000/svg" xmlns:xlink="http://www.w3.org/1999/xlink" x="0px" y="0px"
	 width="540px" height="540px" viewBox="0 0 540 540" enable-background="new 0 0 540 540" xml:space="preserve">
<rect x="-354.164" y="-118.406" fill="none" width="598.453" height="594.867"/>
<path fill="#FFFFFF" d="M523.441,269.995c0.117,54.148-17.461,106.891-50.062,150.273c-0.883,1.242-1.711,2.484-2.711,3.641
	c-6.953,8.938-14.484,17.422-22.57,25.359c-0.516,0.578-1.102,1.094-1.711,1.711c-13.719,13.125-28.82,24.711-45.094,34.539
	c-0.211,0.133-0.516,0.289-0.727,0.438c-11.078,6.656-22.672,12.438-34.664,17.258c-0.453,0.227-0.969,0.375-1.477,0.586
	c-15.023,6.062-30.617,10.625-46.555,13.609c-2.125,0.438-4.242,0.797-6.375,1.086c-13.688,2.273-27.539,3.422-41.406,3.406h-0.516
	c-65.664-0.07-128.734-25.508-175.867-70.969c-0.578-0.57-1.18-1.086-1.711-1.695c-8.078-7.945-15.617-16.422-22.57-25.359
	c-0.945-1.156-1.828-2.398-2.703-3.648c-32.719-43.625-50.312-96.633-50.141-151.055c0.164-54.414,18.094-107.312,51.078-150.742
	c0.516-0.797,1.188-1.594,1.711-2.398c7.258-9.383,15.195-18.219,23.758-26.445l0.578-0.578
	c13.656-13.164,28.75-24.75,45.016-34.547c0.734-0.445,1.383-0.867,2.125-1.242c11.109-6.578,22.727-12.258,34.75-17
	c0.289-0.133,0.648-0.219,0.938-0.352c15.469-6.109,31.508-10.672,47.883-13.602c2.727-0.516,5.508-0.938,8.211-1.312
	c12.352-1.844,24.828-2.773,37.32-2.766h2.859c0.633-0.023,1.266,0.008,1.898,0.078c64.133,1.086,125.438,26.406,171.445,70.82
	l0.594,0.578c8.57,8.227,16.508,17.062,23.742,26.461c0.602,0.797,1.258,1.594,1.711,2.391
	C505.504,162.073,523.496,215.284,523.441,269.995z"/>
<linearGradient id="SVGID_1_" gradientUnits="userSpaceOnUse" x1="172.5806" y1="94.958" x2="679.4424" y2="94.958" gradientTransform="matrix(1 0 0 -1 -156 365)">
	<stop  offset="0" style="stop-color:#DB1D7A"/>
	<stop  offset="1" style="stop-color:#772A81"/>
</linearGradient>
<path fill="url(#SVGID_1_)" d="M523.441,269.995c0.117,54.148-17.461,106.891-50.062,150.273c-0.883,1.242-1.711,2.484-2.711,3.641
	c-6.953,8.938-14.484,17.422-22.57,25.359c-0.516,0.578-1.102,1.094-1.711,1.711c-13.719,13.125-28.82,24.711-45.094,34.539
	c-0.211,0.133-0.516,0.289-0.727,0.438c-11.078,6.656-22.672,12.438-34.664,17.258c-0.453,0.227-0.969,0.375-1.477,0.586
	c-15.023,6.062-30.617,10.625-46.555,13.609c-2.125,0.438-4.242,0.797-6.375,1.086c-13.688,2.273-27.539,3.422-41.406,3.406h-0.516
	c-65.664-0.07-128.734-25.508-175.867-70.969c-0.578-0.57-1.18-1.086-1.711-1.695c-8.078-7.945-15.617-16.422-22.57-25.359
	c-0.945-1.156-1.828-2.398-2.703-3.648c-32.719-43.625-50.312-96.633-50.141-151.055c0.164-54.414,18.094-107.312,51.078-150.742
	c0.516-0.797,1.188-1.594,1.711-2.398c7.258-9.383,15.195-18.219,23.758-26.445l0.578-0.578
	c13.656-13.164,28.75-24.75,45.016-34.547c0.734-0.445,1.383-0.867,2.125-1.242c11.109-6.578,22.727-12.258,34.75-17
	c0.289-0.133,0.648-0.219,0.938-0.352c15.469-6.109,31.508-10.672,47.883-13.602c2.727-0.516,5.508-0.938,8.211-1.312
	c12.352-1.844,24.828-2.773,37.32-2.766h2.859c0.633-0.023,1.266,0.008,1.898,0.078c64.133,1.086,125.438,26.406,171.445,70.82
	l0.594,0.578c8.57,8.227,16.508,17.062,23.742,26.461c0.602,0.797,1.258,1.594,1.711,2.391
	C505.504,162.073,523.496,215.284,523.441,269.995z"/>
<path fill="#FFFFFF" d="M270.035,528.933h-0.508c-67.492-0.008-132.328-26.156-180.742-72.891l-0.562-0.547
	c-0.391-0.359-0.852-0.812-1.352-1.344c-8.227-8.102-15.898-16.734-22.984-25.844c-1.078-1.305-2.039-2.664-2.891-3.875
	C27.41,379.604,9.34,325.151,9.496,269.261c0.164-55.898,18.539-110.234,52.391-154.875c0.445-0.664,0.883-1.258,1.297-1.789
	l0.531-0.695l0.102-0.148c7.453-9.656,15.609-18.75,24.406-27.203l0.633-0.625c14.047-13.523,29.562-25.438,46.281-35.516
	l0.531-0.32c0.523-0.328,1.125-0.703,1.828-1.055c11.312-6.711,23.148-12.508,35.383-17.359l0.961-0.375h0.164
	c15.906-6.289,32.398-10.977,49.242-14.008c2.648-0.508,5.539-0.969,8.555-1.359c12.664-1.891,25.461-2.836,38.273-2.836h2.852
	c0.781-0.039,1.555-0.039,2.328,0c65.812,1.195,128.695,27.234,175.898,72.844l0.609,0.625c8.812,8.453,16.969,17.547,24.406,27.203
	l0.125,0.133l0.516,0.695c0.406,0.547,0.867,1.148,1.32,1.805c33.844,44.641,52.219,98.984,52.375,154.875
	c0.164,55.898-17.906,110.352-51.5,155.172c-0.93,1.312-1.836,2.609-2.883,3.875c-7.094,9.109-14.773,17.742-23,25.844
	c-0.477,0.531-0.961,0.969-1.344,1.344l-0.469,0.453l-0.109,0.109c-14.031,13.461-29.516,25.352-46.172,35.445l-0.609,0.352
	l-0.281,0.172c-11.32,6.797-23.164,12.711-35.414,17.648c-0.484,0.219-0.914,0.391-1.25,0.508l-0.297,0.094h-0.133
	c-15.453,6.211-31.5,10.875-47.891,13.93c-2.203,0.461-4.445,0.852-6.664,1.156C298.457,527.722,284.262,528.909,270.035,528.933z
	 M75.191,120.386c-0.211,0.273-0.414,0.562-0.633,0.836c-0.227,0.266-0.633,0.836-0.82,1.117l-0.328,0.477
	C41.355,165.019,23.926,216.417,23.762,269.3s16.938,104.383,48.727,146.781l0.117,0.156c0.789,1.125,1.609,2.281,2.414,3.266
	l0.117,0.148c6.773,8.672,14.117,16.883,22,24.57l0.352,0.375c0.211,0.234,0.43,0.438,0.656,0.664l0.695,0.664
	c45.727,44.141,106.961,68.836,170.703,68.859h0.492c13.492-0.016,26.938-1.156,40.234-3.391h0.195
	c1.969-0.273,3.969-0.617,5.922-1.031h0.141c15.438-2.883,30.547-7.281,45.109-13.133c0.312-0.141,0.617-0.242,0.93-0.367
	l0.594-0.234c11.617-4.688,22.844-10.273,33.57-16.703l0.594-0.375l0.305-0.172c15.789-9.547,30.461-20.797,43.773-33.547
	l0.648-0.625c0.234-0.203,0.445-0.422,0.648-0.648l0.367-0.367c7.828-7.711,15.141-15.93,21.867-24.609l0.125-0.148
	c0.766-0.945,1.539-2.039,2.359-3.195l0.164-0.219c31.789-42.406,48.875-93.914,48.711-146.789s-17.578-104.273-49.633-146.477
	l-0.336-0.477c-0.188-0.289-0.5-0.695-0.82-1.125l-0.672-0.766c-7.008-9.086-14.695-17.641-22.977-25.602l-0.648-0.625
	c-44.703-43.164-104.266-67.766-166.57-68.781h-0.664h-3.938c-12.133-0.008-24.25,0.891-36.258,2.68
	c-2.836,0.375-5.469,0.797-7.93,1.258c-15.867,2.852-31.406,7.273-46.383,13.195c-0.391,0.164-0.719,0.273-0.961,0.352h-0.148
	c-11.672,4.617-22.953,10.148-33.727,16.547l-0.5,0.266c-0.32,0.172-0.641,0.359-0.977,0.57l-0.664,0.406
	C126.73,70.144,112.09,81.354,98.84,94.089l-0.633,0.625C89.918,102.706,82.223,111.284,75.191,120.386z"/>
<path fill="#FFFFFF" d="M355.879,268.714l116.469-150.242c-0.516-0.797-1.164-1.602-1.711-2.398
	c-7.234-9.391-15.172-18.234-23.734-26.453l-47.133,60.914c-1.383,1.773-3.156,3.219-5.18,4.203
	c-2.031,0.992-4.25,1.508-6.508,1.508s-4.492-0.516-6.516-1.508c-2.031-0.984-3.797-2.43-5.172-4.203L274.801,18.222
	c-0.633-0.07-1.266-0.102-1.898-0.086h-2.859c-12.492,0-24.961,0.93-37.312,2.773l120.5,157.094
	c4.336,5.617,6.242,12.711,5.312,19.727s-4.609,13.375-10.266,17.688c-5.641,4.305-12.781,6.203-19.844,5.281
	s-13.453-4.594-17.781-10.203L177.09,38.183c-0.508-0.664-0.953-1.312-1.383-1.977c-12.023,4.734-23.641,10.422-34.75,17
	l91.547,118.188c3.984,5.133,6.109,11.453,6.016,17.938s-2.398,12.742-6.523,17.758c-0.297,0.445-0.742,0.797-1.031,1.242
	c-2.688,3.492-6.148,6.32-10.117,8.266c-3.961,1.945-8.328,2.961-12.75,2.961s-8.789-1.016-12.75-2.961s-7.422-4.773-10.117-8.266
	L93.238,89.62c-8.57,8.219-16.508,17.062-23.758,26.453c-0.578,0.797-1.25,1.602-1.703,2.398l116.484,150.242L66.785,420.276
	c0.867,1.234,1.703,2.477,2.695,3.633c6.938,8.938,14.461,17.414,22.531,25.359l49.453-63.68c1.383-1.766,3.156-3.195,5.18-4.172
	c2.023-0.984,4.25-1.492,6.5-1.484s4.477,0.531,6.492,1.523c2.016,1,3.773,2.445,5.141,4.219L268.16,519.659
	c0.516,0.695,0.984,1.43,1.406,2.188h0.508c13.883,0.016,27.727-1.125,41.406-3.398L187.543,357.644
	c-2.953-3.82-4.781-8.375-5.266-13.164c-0.484-4.797,0.391-9.633,2.531-13.945c2.133-4.328,5.445-7.969,9.555-10.508
	c4.109-2.555,8.859-3.906,13.703-3.914c3.969-0.023,7.891,0.883,11.453,2.625c3.555,1.742,6.664,4.281,9.07,7.422l2.344,3
	c0.086,0,0.086,0,0.086,0l133.398,171.805c0.508,0.742,1.016,1.453,1.469,2.188c11.984-4.828,23.57-10.602,34.625-17.258
	l-93.016-119.836c-3.984-5.125-6.102-11.453-6.008-17.945c0.102-6.469,2.391-12.734,6.523-17.75
	c0.297-0.438,0.609-0.844,0.961-1.242c2.688-3.492,6.141-6.32,10.109-8.266s8.336-2.953,12.75-2.953c4.43,0,8.781,1.008,12.75,2.953
	s7.43,4.773,10.117,8.266l93.25,120.148c8.078-7.938,15.617-16.414,22.578-25.359c0.953-1.156,1.82-2.398,2.711-3.633
	L355.879,268.714z M298.332,281.245l-19.273,24.914c-1.07,1.367-2.438,2.469-4,3.227s-3.273,1.148-5.016,1.148
	c-1.734,0-3.445-0.391-5.016-1.148c-1.562-0.758-2.922-1.859-3.992-3.227l-19.297-24.914c-2.789-3.57-4.305-7.969-4.305-12.492
	s1.516-8.922,4.305-12.5l19.297-24.922c1.07-1.359,2.43-2.461,3.992-3.211c1.57-0.758,3.281-1.148,5.016-1.148
	c1.742,0,3.453,0.391,5.016,1.148c1.562,0.75,2.93,1.852,4,3.211l19.273,24.922c2.789,3.578,4.297,7.977,4.297,12.5
	S301.121,277.675,298.332,281.245z"/>
</svg>
