<?xml version="1.0" encoding="utf-8"?>
<!-- Generator: Adobe Illustrator 16.0.0, SVG Export Plug-In . SVG Version: 6.00 Build 0)  -->
<!DOCTYPE svg PUBLIC "-//W3C//DTD SVG 1.1//EN" "http://www.w3.org/Graphics/SVG/1.1/DTD/svg11.dtd">
<svg version="1.1" id="Layer_1" xmlns="http://www.w3.org/2000/svg" xmlns:xlink="http://www.w3.org/1999/xlink" x="0px" y="0px"
	 width="240px" height="40px" viewBox="0 0 240 40" enable-background="new 0 0 240 40" xml:space="preserve">
<path fill="#429EBD" d="M92.997,31.228c0.72,0,1.436-0.076,2.154-0.247c0.698-0.149,1.385-0.407,2.061-0.773
	c0.668-0.35,1.249-0.781,1.751-1.301c0.505-0.505,0.915-1.126,1.221-1.875c0.305-0.729,0.457-1.559,0.457-2.441
	c0-0.854-0.138-1.62-0.378-2.288c-0.446-1.159-1.362-2.136-2.765-2.91c-0.639-0.349-1.893-0.887-3.72-1.62
	c-1.559-0.596-2.579-1.05-3.052-1.355c-0.748-0.49-1.115-1.101-1.097-1.859c0-0.796,0.302-1.436,0.883-1.893
	c0.581-0.462,1.329-0.701,2.212-0.701c1.588,0,3.281,0.759,5.108,2.271l2.245-2.961c-2.333-1.827-4.788-2.729-7.354-2.729
	c-1.268,0-2.44,0.272-3.509,0.825c-1.068,0.548-1.922,1.297-2.547,2.241c-0.643,0.963-0.948,2.017-0.948,3.143
	c0,0.562,0.062,1.097,0.2,1.587c0.138,0.487,0.319,0.931,0.534,1.312c0.214,0.382,0.49,0.749,0.854,1.083
	c0.353,0.338,0.701,0.64,1.054,0.883c0.353,0.247,0.777,0.494,1.268,0.733c0.486,0.243,0.944,0.458,1.355,0.61
	c0.399,0.167,0.882,0.353,1.435,0.538c0.458,0.163,0.839,0.302,1.13,0.41c0.276,0.124,0.592,0.24,0.93,0.393
	c0.338,0.156,0.61,0.276,0.811,0.399c0.196,0.12,0.396,0.269,0.606,0.439c0.2,0.186,0.353,0.356,0.458,0.538
	c0.091,0.182,0.182,0.378,0.243,0.61c0.062,0.225,0.109,0.472,0.109,0.744c0,0.857-0.324,1.512-0.945,1.998
	c-0.643,0.494-1.559,0.72-2.746,0.72c-0.992,0-2.002-0.247-3.008-0.752c-1.007-0.502-1.903-1.231-2.682-2.176l-2.379,2.928
	c1.126,1.155,2.394,2.03,3.781,2.608C90.103,30.937,91.533,31.228,92.997,31.228z M111.518,31.228c1.525,0,2.899-0.323,4.119-0.974
	c1.221-0.657,2.166-1.588,2.853-2.775c0.672-1.191,1.021-2.564,1.021-4.091c0-1.525-0.349-2.898-1.021-4.104
	c-0.687-1.188-1.632-2.122-2.838-2.776c-1.221-0.657-2.59-0.991-4.134-0.991c-1.588,0-2.99,0.353-4.211,1.039
	c-1.22,0.683-2.168,1.613-2.822,2.805c-0.654,1.188-0.974,2.535-0.974,4.028c0,1.115,0.182,2.147,0.578,3.109
	c0.381,0.981,0.915,1.803,1.602,2.5c0.687,0.705,1.54,1.238,2.547,1.635C109.243,31.027,110.326,31.228,111.518,31.228z
	 M111.518,28.053c-1.297,0-2.365-0.443-3.204-1.341c-0.839-0.883-1.25-1.998-1.25-3.324c0-1.341,0.411-2.456,1.235-3.36
	c0.821-0.883,1.893-1.341,3.219-1.341c1.265,0,2.317,0.443,3.172,1.315c0.839,0.883,1.268,2.009,1.268,3.386
	c0,1.355-0.429,2.471-1.282,3.354C113.82,27.627,112.768,28.053,111.518,28.053z M130.052,31.228c1.402,0,2.667-0.247,3.814-0.748
	c1.145-0.491,2.075-1.141,2.772-1.937l-2.409-2.133c-0.167,0.178-0.349,0.363-0.545,0.513c-0.218,0.171-0.432,0.323-0.676,0.461
	c-0.243,0.142-0.501,0.258-0.773,0.349c-0.276,0.109-0.581,0.182-0.904,0.244c-0.32,0.062-0.64,0.076-0.959,0.076
	c-0.883,0-1.679-0.179-2.365-0.574c-0.683-0.399-1.217-0.952-1.602-1.664c-0.382-0.705-0.563-1.525-0.563-2.456
	c0-0.915,0.182-1.729,0.563-2.427c0.366-0.704,0.9-1.253,1.587-1.648c0.672-0.396,1.464-0.597,2.365-0.597
	c0.792,0,1.525,0.156,2.18,0.458c0.643,0.306,1.206,0.734,1.664,1.268l2.379-2.06c-0.748-0.915-1.692-1.616-2.837-2.106
	c-1.159-0.487-2.351-0.73-3.567-0.73c-1.526,0-2.899,0.334-4.091,0.991c-1.191,0.669-2.121,1.599-2.79,2.79
	c-0.672,1.192-1.006,2.565-1.006,4.091c0,1.54,0.319,2.914,0.991,4.102c0.669,1.191,1.588,2.122,2.775,2.765
	C127.229,30.904,128.556,31.228,130.052,31.228z M141.797,13.471c0.411,0,0.792-0.091,1.159-0.302
	c0.367-0.218,0.657-0.49,0.868-0.857c0.218-0.349,0.323-0.73,0.323-1.159c0-0.625-0.243-1.173-0.701-1.631s-1.006-0.687-1.649-0.687
	c-0.672,0-1.217,0.229-1.675,0.687c-0.461,0.458-0.69,0.991-0.69,1.631s0.229,1.191,0.69,1.646
	C140.58,13.256,141.125,13.471,141.797,13.471z M140.028,30.98h3.494V15.744h-3.494V30.98z M159.507,15.744v1.831h-0.062
	c-1.155-1.373-2.729-2.06-4.712-2.06c-1.039,0-2.013,0.196-2.913,0.596c-0.92,0.396-1.693,0.944-2.336,1.631
	c-0.654,0.701-1.174,1.541-1.537,2.518c-0.385,0.992-0.566,2.042-0.566,3.176c0,0.93,0.108,1.794,0.349,2.619
	c0.243,0.828,0.581,1.544,1.024,2.168c0.439,0.625,0.959,1.155,1.569,1.617c0.614,0.458,1.282,0.81,2.045,1.039
	c0.764,0.243,1.556,0.349,2.395,0.349c2.078,0,3.69-0.763,4.854-2.285h0.043v2.038h3.343V15.744H159.507z M155.314,28.053
	c-1.3,0-2.351-0.426-3.16-1.279c-0.821-0.854-1.217-1.969-1.217-3.324c0-0.704,0.105-1.354,0.334-1.969
	c0.226-0.61,0.549-1.115,0.944-1.511c0.396-0.4,0.854-0.72,1.388-0.945c0.534-0.214,1.115-0.338,1.726-0.338
	c1.235,0,2.256,0.458,3.081,1.377c0.824,0.916,1.235,2.038,1.235,3.386c0,1.355-0.426,2.471-1.269,3.324
	C157.542,27.627,156.518,28.053,155.314,28.053z M167.641,30.98h3.487V7.981h-3.487V30.98z"/>
<path fill="#F27F0C" d="M176.363,30.98h3.768v-7.916h3.828c0.96,0,1.85-0.095,2.671-0.272c0.824-0.186,1.559-0.458,2.23-0.839
	c0.653-0.367,1.217-0.843,1.675-1.392c0.457-0.545,0.82-1.217,1.067-1.994c0.244-0.763,0.382-1.632,0.382-2.579
	c0-0.701-0.076-1.355-0.2-1.966c-0.134-0.61-0.334-1.191-0.592-1.74c-0.262-0.534-0.596-1.024-1.01-1.449
	c-0.425-0.429-0.912-0.792-1.464-1.098c-0.549-0.305-1.188-0.533-1.922-0.704c-0.73-0.153-1.54-0.24-2.395-0.24h-8.039V30.98z
	 M180.131,19.664v-7.487h3.724c1.34,0,2.394,0.334,3.124,0.992c0.733,0.653,1.101,1.569,1.101,2.742c0,1.163-0.382,2.075-1.13,2.75
	c-0.748,0.669-1.86,1.003-3.356,1.003H180.131z M206.494,15.744v1.831h-0.062c-1.162-1.373-2.735-2.06-4.715-2.06
	c-1.039,0-2.017,0.196-2.914,0.596c-0.915,0.396-1.692,0.944-2.336,1.631c-0.653,0.701-1.173,1.541-1.54,2.518
	c-0.381,0.992-0.566,2.042-0.566,3.176c0,0.93,0.112,1.794,0.353,2.619c0.247,0.828,0.581,1.544,1.021,2.168
	c0.443,0.625,0.963,1.155,1.573,1.617c0.61,0.458,1.278,0.81,2.045,1.039c0.76,0.243,1.555,0.349,2.395,0.349
	c2.074,0,3.694-0.763,4.85-2.285h0.043v2.038h3.343V15.744H206.494z M202.294,28.053c-1.293,0-2.347-0.426-3.153-1.279
	c-0.828-0.854-1.224-1.969-1.224-3.324c0-0.704,0.108-1.354,0.334-1.969c0.232-0.61,0.552-1.115,0.944-1.511
	c0.403-0.4,0.854-0.72,1.388-0.945c0.541-0.214,1.115-0.338,1.726-0.338c1.235,0,2.256,0.458,3.084,1.377
	c0.821,0.916,1.235,2.038,1.235,3.386c0,1.355-0.429,2.471-1.268,3.324C204.524,27.627,203.504,28.053,202.294,28.053z
	 M219.271,31.228c0.952,0,1.787-0.105,2.518-0.349c0.733-0.247,1.329-0.567,1.787-0.992s0.792-0.919,1.039-1.464
	c0.226-0.549,0.349-1.162,0.349-1.816c0-0.628-0.095-1.173-0.272-1.66c-0.323-0.767-0.98-1.424-1.983-1.977
	c-0.399-0.192-1.406-0.621-3.022-1.26c-0.549-0.211-0.974-0.396-1.297-0.582c-0.334-0.167-0.592-0.366-0.807-0.581
	c-0.211-0.211-0.319-0.458-0.319-0.701c0-0.425,0.163-0.748,0.52-0.974c0.349-0.211,0.729-0.334,1.141-0.334
	c0.41,0,0.82,0.062,1.253,0.163c0.411,0.124,0.839,0.31,1.293,0.549c0.462,0.247,0.887,0.553,1.286,0.916l1.751-2.743
	c-1.587-1.265-3.386-1.907-5.398-1.907c-1.558,0-2.852,0.41-3.861,1.235c-1.003,0.824-1.508,1.849-1.508,3.08
	c0,0.49,0.044,0.948,0.164,1.345c0.108,0.41,0.275,0.777,0.494,1.097c0.21,0.319,0.457,0.614,0.727,0.854
	c0.265,0.262,0.585,0.487,0.948,0.705c0.363,0.211,0.733,0.378,1.101,0.534c0.349,0.148,0.759,0.302,1.217,0.458
	c1.145,0.396,1.937,0.712,2.361,0.959c0.433,0.239,0.657,0.533,0.657,0.9c0,0.454-0.192,0.807-0.577,1.083
	c-0.382,0.272-0.901,0.41-1.559,0.41c-0.916,0-1.722-0.138-2.42-0.425c-0.704-0.294-1.362-0.752-1.973-1.373l-1.769,2.619
	C214.791,30.493,216.851,31.228,219.271,31.228z M233.308,31.228c0.944,0,1.783-0.105,2.518-0.349
	c0.73-0.247,1.322-0.567,1.783-0.992c0.454-0.425,0.796-0.919,1.039-1.464c0.229-0.549,0.353-1.162,0.353-1.816
	c0-0.628-0.095-1.173-0.276-1.66c-0.319-0.767-0.977-1.424-1.983-1.977c-0.396-0.192-1.405-0.621-3.022-1.26
	c-0.548-0.211-0.977-0.396-1.293-0.582c-0.342-0.167-0.596-0.366-0.813-0.581c-0.211-0.211-0.32-0.458-0.32-0.701
	c0-0.425,0.171-0.748,0.52-0.974c0.349-0.211,0.737-0.334,1.145-0.334c0.414,0,0.825,0.062,1.25,0.163
	c0.414,0.124,0.839,0.31,1.301,0.549c0.457,0.247,0.886,0.553,1.278,0.916l1.755-2.743c-1.584-1.265-3.386-1.907-5.402-1.907
	c-1.551,0-2.848,0.41-3.858,1.235c-1.006,0.824-1.511,1.849-1.511,3.08c0,0.49,0.047,0.948,0.171,1.345
	c0.105,0.41,0.272,0.777,0.486,1.097c0.211,0.319,0.458,0.614,0.73,0.854c0.262,0.262,0.581,0.487,0.952,0.705
	c0.363,0.211,0.729,0.378,1.093,0.534c0.349,0.148,0.764,0.302,1.225,0.458c1.145,0.396,1.937,0.712,2.361,0.959
	c0.425,0.239,0.657,0.533,0.657,0.9c0,0.454-0.199,0.807-0.581,1.083c-0.378,0.272-0.897,0.41-1.555,0.41
	c-0.915,0-1.722-0.138-2.427-0.425c-0.701-0.294-1.355-0.752-1.969-1.373l-1.766,2.619
	C228.821,30.493,230.881,31.228,233.308,31.228z"/>
<g>
	<path fill="#EF7F22" d="M49.305,0.681c3.181-0.774,6.569-0.723,9.737,0.109c3.513,0.944,6.715,3.38,8.101,6.807
		c1.229,3.159,1.298,6.75,0.309,9.986c-1.054,3.326-3.842,5.924-7.111,7.049c-2.828,1.091-5.906,1.057-8.893,1.029
		c-0.006-0.799-0.006-1.599,0-2.397c3.775,0.089,7.979,0.015,11.029-2.543c2.707-2.109,3.576-5.782,3.206-9.063
		c-0.209-2.552-1.37-5.073-3.441-6.641c-2.772-2.196-6.495-2.678-9.926-2.419c-2.87,0.217-5.781,1.295-7.745,3.466
		c-1.758,1.875-2.512,4.502-2.495,7.031c-0.011,5.955,0.01,11.909-0.006,17.863c-10.292,0.009-20.58-0.011-30.875,0.009
		c-0.005-0.805-0.005-1.6,0-2.403c9.503-0.003,19.002,0.004,28.503-0.003c0.112-5.867-0.226-11.755,0.212-17.611
		c0.104-0.803,0.264-1.599,0.512-2.369c0.179-0.553,0.4-1.088,0.662-1.602c0.442-0.855,0.981-1.652,1.611-2.378
		c0.472-0.564,0.992-1.088,1.572-1.537C45.729,1.878,47.504,1.18,49.305,0.681z"/>
	<path fill="#EF7F22" d="M46.032,6.804c2.28-2.273,5.694-2.827,8.788-2.676c2.786,0.097,5.747,0.999,7.577,3.214
		c1.748,2.064,2.054,4.96,1.677,7.549c-0.329,2.37-1.836,4.56-4.022,5.583c-2.642,1.381-5.71,1.278-8.604,1.253
		c-0.007-0.799-0.007-1.597-0.001-2.392c2.762-0.01,5.813,0.233,8.201-1.423c2.182-1.522,2.538-4.528,1.958-6.939
		c-0.386-1.747-1.738-3.162-3.388-3.787c-1.853-0.706-3.888-0.771-5.841-0.609c-1.847,0.167-3.759,0.839-5.005,2.275
		c-0.978,1.177-1.403,2.741-1.38,4.253c-0.008,7.271,0,14.537-0.003,21.806c-11.601,0-23.195,0.008-34.796-0.007
		c-0.005-0.792-0.005-1.582,0.006-2.38c10.802-0.015,21.61,0.004,32.415-0.007c-0.005-6.471-0.008-12.944,0.003-19.415
		C43.581,10.803,44.313,8.399,46.032,6.804z"/>
	<path fill="#EF7F22" d="M49.644,8.977c1.777-1.004,3.908-1.022,5.889-0.86c1.773,0.173,3.777,0.939,4.396,2.778
		c0.73,2.053,0.479,4.909-1.614,6.082c-2.134,1.024-4.577,0.737-6.867,0.784c-0.006-0.801-0.006-1.596,0-2.394
		c1.59-0.055,3.195,0.109,4.774-0.144c2.348-0.223,2.287-4.318,0.026-4.628c-1.662-0.235-3.441-0.312-5.05,0.259
		c-0.903,0.346-1.368,1.306-1.293,2.234c-0.01,8.593,0,17.185-0.004,25.771c-12.906,0.007-25.809,0.004-38.712,0
		c0-0.794,0-1.59,0.005-2.383c12.105-0.033,24.208,0.014,36.31-0.022c0.017-7.787-0.007-15.577,0.017-23.365
		C47.516,11.485,48.208,9.802,49.644,8.977z"/>
</g>
<g>
	<path fill="#419DBC" d="M13.951,4.227c1.47-2.053,3.861-3.525,6.424-3.549C30.02,0.672,39.66,0.67,49.305,0.681
		c-1.801,0.499-3.576,1.197-5.038,2.383C36.425,3.05,28.586,3.061,20.741,3.061c-3.228-0.107-6.107,2.932-5.919,6.139
		c-0.076,2.098,1.297,4.028,3.19,4.847c3.312,1.525,7.061,1.361,10.578,2.02c0.625,0.145,1.711,0.413,1.399,1.298
		c-0.146,0.638-0.986,0.301-1.436,0.395c-8.384-0.011-16.767-0.005-25.149-0.005c0.003,7.036,0.003,14.071,0,21.106
		c-0.798,0.004-1.601,0.004-2.401,0.004c-0.005-7.831-0.005-15.661,0-23.491c4.887,0.006,9.77-0.033,14.655,0.021
		C12.044,13,11.461,7.625,13.951,4.227z"/>
	<path fill="#419DBC" d="M17.004,11.188c-1.758-2.559,0.343-6.406,3.371-6.561c7.442-0.057,14.88-0.008,22.319-0.026
		c-0.63,0.726-1.169,1.522-1.611,2.378c-6.785,0.008-13.572-0.021-20.359,0.014c-1.362-0.011-2.519,1.702-1.729,2.896
		c0.636,0.878,1.771,1.172,2.768,1.422c2.749,0.531,5.527,0.895,8.278,1.418c1.829,0.477,3.772,1.848,3.835,3.908
		c0.313,2.626-2.001,5.137-4.633,5.084c-7.315,0.021-14.637-0.011-21.953,0.015c-0.045,5.709,0.043,11.425-0.045,17.134
		c-0.773-0.009-1.547-0.009-2.322-0.009c-0.002-6.51-0.008-13.021,0-19.529c8.104,0,16.199,0.005,24.302-0.003
		c1.779,0.11,3.129-2.356,1.724-3.638c-1.828-1.426-4.3-1.329-6.471-1.795C21.903,13.377,18.749,13.515,17.004,11.188z"/>
	<path fill="#419DBC" d="M20.828,8.946c0.246-0.506,0.879-0.312,1.321-0.363C28.237,8.59,34.33,8.59,40.421,8.58
		c-0.248,0.771-0.407,1.566-0.512,2.369c-1.67,0.003-3.338,0-5.006,0c1.911,1.538,3.057,3.955,2.89,6.419
		c-0.036,4.313-3.858,8.224-8.192,8.271c-6.131,0.038-12.264,0.002-18.398,0.015c-0.002,0.97,0,1.938-0.008,2.909
		c-0.005,0.804-0.005,1.599,0,2.403c0.008,0.521,0.008,1.041,0.006,1.557c-0.011,0.798-0.011,1.588-0.006,2.38
		c0.006,0.526,0.008,1.05,0,1.573c-0.005,0.793-0.005,1.589-0.005,2.383c-0.78,0.004-1.562,0.004-2.338,0
		c-0.003-5.195-0.009-10.394,0-15.589c6.806-0.011,13.608,0.008,20.417-0.007c3.312,0.076,6.259-2.966,6.176-6.26
		c0.065-1.875-0.927-3.776-2.608-4.658c-3.502-1.951-7.679-1.479-11.467-2.383C20.951,9.825,20.61,9.393,20.828,8.946z"/>
</g>
</svg>
