<?xml version="1.0" encoding="utf-8"?>
<!-- Generator: Adobe Illustrator 16.0.0, SVG Export Plug-In . SVG Version: 6.00 Build 0)  -->
<!DOCTYPE svg PUBLIC "-//W3C//DTD SVG 1.1//EN" "http://www.w3.org/Graphics/SVG/1.1/DTD/svg11.dtd">
<svg version="1.1" id="Layer_1" xmlns="http://www.w3.org/2000/svg" xmlns:xlink="http://www.w3.org/1999/xlink" x="0px" y="0px"
	 width="80px" height="80px" viewBox="0 0 80 80" enable-background="new 0 0 80 80" xml:space="preserve">
<g id="_x23_4a486afe">
	<path fill="#DADFE1" d="M58.796,1.837c-0.037-0.661,0.852-1.06,1.325-0.606c0.319,0.376,0.449,0.87,0.652,1.313
		c0.654-0.07,1.315-0.07,1.972,0c0.203-0.443,0.331-0.939,0.654-1.315c0.472-0.449,1.355-0.053,1.323,0.604
		c-0.079,0.453-0.308,0.86-0.485,1.28c1.331,0.921,2.002,2.579,1.91,4.168c1.786-0.968,3.881-1.483,5.908-1.157
		c2.319,0.403,4.116,2.432,4.628,4.67c-0.521,2.422-2.604,4.587-5.151,4.761c-2.246,0.191-4.474-0.572-6.35-1.77
		c-0.193,1.24-0.347,2.487-0.534,3.727c-0.155,1.022-0.883,1.958-1.89,2.258c-1.01,0.278-2.209,0.165-3.003-0.578
		c-0.528-0.479-0.829-1.165-0.922-1.864c-0.155-1.182-0.323-2.363-0.499-3.542c-2.055,1.314-4.562,2.117-7.008,1.675
		c-2.168-0.434-3.814-2.283-4.434-4.344c-0.075-0.214-0.073-0.429,0.005-0.642c0.604-1.965,2.123-3.748,4.168-4.261
		c2.136-0.504,4.4,0.044,6.304,1.061c-0.091-1.587,0.581-3.243,1.91-4.162C59.104,2.696,58.876,2.288,58.796,1.837 M59.692,4.876
		c-0.584,0.701-0.847,1.674-0.65,2.57c0.258,1.6,0.468,3.206,0.716,4.807c1.334-0.003,2.67,0.001,4.005-0.003
		c0.246-1.61,0.457-3.223,0.717-4.831c0.176-0.812-0.042-1.68-0.509-2.358c-0.416-0.609-1.155-0.931-1.877-0.968
		C61.237,4.019,60.276,4.197,59.692,4.876 M51.612,7.723c-1.549,0.323-2.631,1.664-3.162,3.084c0.541,1.445,1.661,2.81,3.248,3.096
		c2.278,0.362,4.541-0.566,6.373-1.862c-0.122-0.917-0.253-1.831-0.393-2.744C55.905,8.147,53.751,7.333,51.612,7.723 M65.839,9.299
		c-0.141,0.911-0.269,1.822-0.392,2.736c1.824,1.307,4.095,2.229,6.371,1.869c1.587-0.288,2.71-1.653,3.246-3.099
		c-0.529-1.415-1.603-2.75-3.146-3.079C69.776,7.328,67.616,8.146,65.839,9.299 M59.959,13.851c0.062,0.39,0.117,0.781,0.17,1.173
		c1.086,0,2.173,0,3.261,0c0.051-0.392,0.107-0.783,0.168-1.173C62.357,13.851,61.159,13.851,59.959,13.851 M60.342,16.625
		c0.086,0.533,0.126,1.182,0.635,1.499c0.437,0.247,1.003,0.235,1.464,0.058c0.588-0.278,0.65-0.99,0.734-1.557
		C62.231,16.622,61.287,16.622,60.342,16.625z"/>
	<path fill="#DADFE1" d="M61.994,21.593c0.383-0.129,0.854,0.053,0.977,0.456c0.212,0.571,0.313,1.504-0.429,1.723
		C61.36,24.078,60.989,21.966,61.994,21.593z"/>
	<path fill="#DADFE1" d="M52.856,23.833c0.354-0.117,0.796-0.229,1.098,0.065c0.428,0.32,0.368,1.125-0.163,1.302
		c-0.537,0.18-1.025,0.458-1.509,0.748c-0.634,0.313-1.324-0.533-0.957-1.117C51.69,24.328,52.286,24.042,52.856,23.833z"/>
	<path fill="#DADFE1" d="M55.761,25.133c0.376-0.162,0.852,0.016,1.016,0.394c0.3,0.64,0.466,1.36,0.428,2.067
		c-0.107,0.727-1.251,0.845-1.491,0.154c-0.146-0.583-0.235-1.178-0.416-1.752C55.18,25.64,55.442,25.272,55.761,25.133z"/>
	<path fill="#DADFE1" d="M61.811,25.392c0.504-0.299,1.221,0.171,1.146,0.754c-0.055,0.621-0.16,1.245-0.358,1.838
		c-0.186,0.526-0.947,0.664-1.311,0.24c-0.424-0.444-0.065-1.067-0.024-1.584C61.374,26.208,61.332,25.609,61.811,25.392z"/>
	<path fill="#DADFE1" d="M50.962,27.373c0.375-0.139,0.834,0.043,0.972,0.43c0.22,0.554,0.587,1.029,0.835,1.566
		c0.181,0.687-0.722,1.239-1.254,0.786c-0.5-0.488-0.849-1.13-1.047-1.795C50.335,27.963,50.567,27.507,50.962,27.373z"/>
	<path fill="#DADFE1" d="M15.745,28.318c0.542-0.376,1.363,0.206,1.171,0.843c-0.238,0.834-0.606,1.626-0.883,2.448
		c-0.16,0.386-0.271,0.92-0.744,1.032c-0.519,0.163-1.117-0.338-0.991-0.882c0.207-0.792,0.568-1.533,0.824-2.309
		C15.295,29.062,15.366,28.568,15.745,28.318z"/>
	<path fill="#DADFE1" d="M10.292,28.424c0.451-0.273,1.01,0.043,1.162,0.509c0.576,1.285,1.187,2.555,1.739,3.85
		c0.254,0.547-0.299,1.197-0.875,1.074c-0.434-0.071-0.614-0.509-0.776-0.861c-0.517-1.178-1.078-2.336-1.588-3.517
		C9.748,29.107,9.916,28.608,10.292,28.424z"/>
	<path fill="#DADFE1" d="M24.391,29.449c0.455-0.072,0.911-0.171,1.373-0.146c0.59,0.088,0.843,0.882,0.454,1.315
		c-0.326,0.339-0.848,0.269-1.269,0.376c-0.469,0.032-1.018,0.313-1.427-0.037c-0.396-0.301-0.373-0.979,0.042-1.252
		C23.812,29.549,24.109,29.512,24.391,29.449z"/>
	<path fill="#DADFE1" d="M28.516,29.394c0.434-0.119,0.891,0.032,1.33,0.069c0.424,0.097,0.971,0.077,1.23,0.496
		c0.32,0.486-0.075,1.245-0.669,1.207c-0.659-0.083-1.331-0.144-1.971-0.327C27.839,30.573,27.9,29.598,28.516,29.394z"/>
	<path fill="#DADFE1" d="M60.092,29.795c0.621-0.379,1.418,0.411,1.069,1.043c-0.413,0.601-1.031,1.055-1.684,1.367
		c-0.56,0.301-1.248-0.334-1.077-0.917c0.08-0.365,0.456-0.517,0.724-0.725C59.47,30.336,59.751,30.029,60.092,29.795z"/>
	<path fill="#DADFE1" d="M55.127,30.752c0.141-0.419,0.333-0.97,0.867-0.975c0.587-0.042,0.985,0.602,0.77,1.128
		c-0.183,0.502,0.333,1.083-0.108,1.502c-0.32,0.264-0.729,0.417-1.13,0.504c-0.414-0.032-0.635-0.442-0.983-0.613
		c-0.255-0.176-0.623-0.261-0.738-0.579c-0.231-0.449,0.123-1.021,0.601-1.104C54.65,30.619,54.888,30.701,55.127,30.752z"/>
	<path fill="#DADFE1" d="M33.198,30.406c0.72-0.125,1.425,0.264,2.113,0.446c0.594,0.163,0.699,1.053,0.197,1.382
		c-0.32,0.254-0.744,0.099-1.096,0.015c-0.481-0.157-1.005-0.232-1.44-0.502C32.518,31.389,32.668,30.604,33.198,30.406z"/>
	<path fill="#DADFE1" d="M20.881,30.876c0.683-0.282,1.361,0.634,0.893,1.204c-0.46,0.443-0.931,0.881-1.411,1.306
		c-0.589,0.437-1.483-0.312-1.144-0.968C19.633,31.785,20.223,31.248,20.881,30.876z"/>
	<path fill="#DADFE1" d="M37.802,31.803c0.602-0.126,1.178,0.224,1.749,0.372c0.358,0.107,0.781,0.283,0.85,0.704
		c0.124,0.501-0.351,1.047-0.871,0.938c-0.622-0.131-1.233-0.336-1.821-0.581C37.116,32.971,37.193,32,37.802,31.803z"/>
	<path fill="#DADFE1" d="M6.626,32.465c0.384-0.174,0.789,0.04,1.154,0.162c0.796,0.323,1.622,0.576,2.408,0.927
		c0.531,0.211,0.602,1.013,0.136,1.333c-0.407,0.347-0.935,0.049-1.357-0.096c-0.793-0.331-1.629-0.564-2.405-0.934
		C6.006,33.579,6.071,32.702,6.626,32.465z"/>
	<path fill="#DADFE1" d="M42.305,33.286c0.468-0.2,0.963,0.075,1.426,0.171c0.438,0.155,1.05,0.198,1.233,0.707
		c0.238,0.554-0.351,1.224-0.931,1.039c-0.608-0.147-1.228-0.288-1.797-0.549C41.71,34.365,41.775,33.534,42.305,33.286z"/>
	<path fill="#DADFE1" d="M53.175,33.867c0.523-0.367,1.279,0.152,1.183,0.763c-0.022,0.414-0.422,0.638-0.749,0.808
		c-0.509,0.241-1.04,0.488-1.607,0.523c-0.671-0.054-0.977-1.027-0.405-1.416C52.104,34.283,52.665,34.131,53.175,33.867z"/>
	<path fill="#DADFE1" d="M47.095,34.379c0.66-0.042,1.317,0.117,1.97,0.198c0.57,0.066,0.861,0.839,0.476,1.266
		c-0.366,0.488-1.032,0.247-1.538,0.215c-0.47-0.098-1.096-0.045-1.367-0.525C46.359,35.118,46.63,34.507,47.095,34.379z"/>
	<path fill="#DADFE1" d="M17.844,35.021c0.393-0.574,1.389-0.273,1.421,0.415c-0.04,0.474-0.195,0.93-0.302,1.392
		c13.578-0.022,27.156,0.042,40.731-0.002c0.428-0.03,0.894,0.13,1.058,0.561c3.706,7.395,7.394,14.8,11.104,22.193
		c0.073,0.151,0.11,0.315,0.11,0.486c-0.018,6.033,0.01,12.067-0.013,18.101c0.028,0.481-0.44,0.835-0.897,0.777
		c-21.766,0.004-43.528,0.002-65.293,0.002c-0.625-0.008-1.259,0.067-1.88-0.037c-0.394-0.101-0.592-0.526-0.562-0.907
		c-0.005-5.978,0.005-11.956-0.005-17.934c0.005-0.19,0.051-0.37,0.141-0.536c3.602-7.178,7.188-14.362,10.776-21.547
		c0.242-0.424,0.377-1.085,0.965-1.136c0.713-0.058,1.43-0.013,2.146-0.016C17.489,36.226,17.532,35.571,17.844,35.021
		 M16.097,38.456c-0.001,4.062-0.003,8.124,0.002,12.187c14.306,0,28.612,0,42.92,0c0.006-4.062,0.005-8.125,0-12.187
		C44.711,38.416,30.404,38.477,16.097,38.456 M60.62,40.709c0.003,3.522,0.002,7.046,0,10.57c-0.005,0.318,0.065,0.633,0.166,0.934
		c0.777,2.324,1.538,4.654,2.305,6.982c2.262-0.002,4.524,0,6.787-0.002C66.778,53.038,63.723,46.862,60.62,40.709 M5.41,59.191
		c2.164,0.007,4.327-0.003,6.488,0.005c0.824-2.494,1.642-4.99,2.47-7.483c0.124-0.344,0.134-0.712,0.133-1.073
		c-0.016-3.198,0.008-6.396-0.013-9.595C11.466,47.096,8.449,53.148,5.41,59.191 M15.868,52.256
		c-0.76,2.312-1.517,4.627-2.292,6.936c15.946,0.004,31.893,0.004,47.838,0c-0.775-2.309-1.531-4.625-2.293-6.94
		C44.703,52.253,30.286,52.246,15.868,52.256 M4.917,60.803c0.003,5.519,0,11.037,0.001,16.557c21.813,0.005,43.626,0,65.438,0.002
		c0.012-5.52-0.003-11.038,0.008-16.559C48.55,60.808,26.733,60.808,4.917,60.803z"/>
	<path fill="#DADFE1" d="M17.683,39.533c0.443-0.209,1.037,0.094,1.094,0.588c0.07,0.575,0.133,1.152,0.158,1.731
		c0.048,0.556-0.632,1.005-1.122,0.733c-0.541-0.23-0.47-0.904-0.549-1.385C17.229,40.635,17.023,39.825,17.683,39.533z"/>
	<path fill="#DADFE1" d="M19.104,43.988c0.656-0.324,1.104,0.362,1.536,0.729c0.314,0.321,0.862,0.574,0.8,1.105
		c0.014,0.584-0.752,0.967-1.213,0.611c-0.538-0.363-1.034-0.805-1.429-1.318C18.511,44.747,18.708,44.186,19.104,43.988z"/>
	<path fill="#DADFE1" d="M29.485,45.885c0.306-0.09,0.667-0.127,0.917,0.115c0.459,0.354,0.32,1.181-0.243,1.344
		c-0.648,0.201-1.315,0.411-1.997,0.426c-0.651-0.113-0.86-1.072-0.304-1.432C28.369,46.096,28.945,46.035,29.485,45.885z"/>
	<path fill="#DADFE1" d="M23.121,46.376c0.364-0.26,0.825-0.043,1.23-0.022c0.501,0.108,1.195-0.029,1.49,0.499
		c0.333,0.499-0.128,1.245-0.722,1.178c-0.642-0.02-1.299-0.07-1.91-0.281C22.665,47.515,22.615,46.678,23.121,46.376z"/>
	<path fill="#DADFE1" d="M20.074,67.331c0.69-1.451,2.318-2.384,3.92-2.218c0.996,0.062,1.898,0.573,2.604,1.253
		c7.361,0.01,14.722-0.002,22.083,0.007c0.902-0.894,2.183-1.433,3.463-1.245c1.803,0.196,3.321,1.774,3.456,3.582
		c0.19,1.733-0.919,3.495-2.556,4.087c-1.486,0.594-3.236,0.125-4.338-1.004c-7.376-0.006-14.75-0.001-22.125-0.003
		c-0.838,0.844-2.019,1.355-3.219,1.253c-1.29-0.088-2.507-0.85-3.15-1.97C19.548,69.952,19.499,68.499,20.074,67.331
		 M22.778,66.857c-1.086,0.406-1.747,1.679-1.435,2.8c0.287,1.263,1.726,2.107,2.966,1.704c1.37-0.349,2.126-2.061,1.475-3.312
		C25.298,66.939,23.894,66.392,22.778,66.857 M50.78,66.854c-1.21,0.438-1.857,1.958-1.328,3.133
		c0.424,1.091,1.723,1.732,2.845,1.374c1.281-0.333,2.063-1.845,1.585-3.083C53.476,67.049,51.979,66.351,50.78,66.854
		 M27.508,67.97c0.165,0.73,0.159,1.489,0.003,2.222c6.755,0,13.512-0.003,20.269,0.002c-0.164-0.736-0.17-1.493-0.002-2.228
		C41.021,67.973,34.265,67.968,27.508,67.97z"/>
</g>
</svg>
