<?xml version="1.0" encoding="utf-8"?>
<!-- Generator: Adobe Illustrator 16.0.0, SVG Export Plug-In . SVG Version: 6.00 Build 0)  -->
<!DOCTYPE svg PUBLIC "-//W3C//DTD SVG 1.1//EN" "http://www.w3.org/Graphics/SVG/1.1/DTD/svg11.dtd">
<svg version="1.1" id="Layer_1" xmlns="http://www.w3.org/2000/svg" xmlns:xlink="http://www.w3.org/1999/xlink" x="0px" y="0px"
	 width="68px" height="40px" viewBox="0 0 68 40" enable-background="new 0 0 68 40" xml:space="preserve">
<path fill="#FFFFFF" d="M67.295,11.474L67.295,11.474c-0.053-0.422-0.123-0.83-0.209-1.229C67,9.845,66.9,9.476,66.789,9.111
	c-0.168-0.541-0.377-1.066-0.625-1.574c-0.088-0.182-0.186-0.361-0.283-0.535c-0.363-0.654-0.793-1.268-1.281-1.832l0,0
	c-0.385-0.441-0.803-0.854-1.25-1.232c-0.137-0.115-0.277-0.227-0.42-0.334l0,0c-0.307-0.236-0.627-0.453-0.955-0.66
	c-1.27-0.791-2.658-1.369-4.113-1.711c-1.504-0.352-3.047-0.523-4.592-0.51c-1.52-0.012-3.037,0.158-4.516,0.51H20.268
	c-2.287,0-4.244,0.818-5.867,2.457c-1.586,1.555-2.467,3.691-2.434,5.91c0,2.664,1.07,4.758,3.213,6.283H0.584v23.389h2.35V18.259
	h25.891c0.436,0,0.658-0.227,0.658-0.676c0-0.342-0.223-0.594-0.658-0.766c-0.666-0.227-1.354-0.379-2.051-0.455
	c-0.283-0.037-0.992-0.115-2.131-0.232c-3.135-0.324-5.383-0.781-6.746-1.369c-2.385-1.031-3.578-2.748-3.58-5.154
	c-0.023-1.594,0.609-3.127,1.75-4.24c1.094-1.146,2.615-1.787,4.201-1.764h23.445c-0.18,0.139-0.354,0.279-0.521,0.428
	c-0.416,0.359-0.535,0.742-0.893,1.139H20.268C19.1,5.158,17.979,5.632,17.176,6.48c-0.838,0.82-1.307,1.947-1.295,3.119
	c0,2.006,1.305,3.383,3.916,4.133c2.428,0.391,4.852,0.781,7.268,1.174c2.605,0.451,3.91,1.314,3.914,2.59
	c0.008,0.621-0.242,1.217-0.691,1.643c-0.434,0.441-1.029,0.688-1.648,0.68H4.48v19.454h2.35V22.193h21.809
	c2.59-0.004,4.688-2.102,4.691-4.692c0-2.059-1.307-3.482-3.92-4.273c-0.074-0.023-2.496-0.426-7.264-1.207
	c-2.613-0.426-3.918-1.232-3.914-2.422c-0.006-0.545,0.213-1.07,0.604-1.451c0.369-0.398,0.889-0.621,1.432-0.617h20.447
	c-0.256,0.51-0.475,1.037-0.654,1.578h-0.262H20.994c-0.477,0-0.713,0.236-0.713,0.709c0,0.363,0.297,0.619,0.891,0.766
	c1.174,0.191,2.072,0.322,2.693,0.383c2.494,0.279,4.07,0.48,4.729,0.605c1.908,0.377,3.365,0.961,4.369,1.75
	c1.273,1.008,1.91,2.398,1.91,4.172c0.002,3.447-2.785,6.247-6.232,6.262H8.377v15.516H49.27v-2.375l0,0V13.759
	c0-0.637,0.082-1.113,0.24-1.439c0.193-0.365,0.496-0.658,0.869-0.838l0,0c0.654-0.342,1.617-0.512,2.887-0.512
	c0.502,0,0.926,0.01,1.273,0.027l0.246,0.016l0.217,0.016c0.135,0.014,0.252,0.029,0.346,0.047c0.096,0.018,0.193,0.037,0.285,0.062
	c0.211,0.051,0.416,0.127,0.611,0.225c0.07,0.037,0.137,0.076,0.203,0.119l0,0c0.246,0.156,0.443,0.377,0.572,0.639
	c0.16,0.326,0.24,0.807,0.24,1.441c0.012,0.369-0.041,0.74-0.158,1.092c-0.232,0.594-0.785,0.975-1.66,1.137
	c-0.363,0.07-1.088,0.105-2.178,0.105h-2.438v2.375h2.438c2.045,0,3.547-0.287,4.506-0.861c1.223-0.727,1.842-2.01,1.842-3.842
	c0.014-0.709-0.102-1.414-0.342-2.08l0,0c-0.279-0.779-0.807-1.443-1.502-1.893c-0.146-0.094-0.297-0.178-0.453-0.256
	c-0.166-0.08-0.336-0.152-0.51-0.217c-0.926-0.344-2.107-0.516-3.541-0.516c-1.336,0-2.463,0.174-3.379,0.518
	c-0.988,0.371-1.725,0.947-2.219,1.721c-0.133,0.203-0.246,0.42-0.342,0.643l0,0c-0.283,0.723-0.42,1.494-0.402,2.271v23.145H10.725
	v-1.559h34.631v-2.379l0,0V13.759c-0.008-0.77,0.092-1.535,0.297-2.277c0.057-0.193,0.121-0.379,0.193-0.561
	c0.262-0.672,0.656-1.285,1.16-1.803l0,0c0.199-0.203,0.414-0.393,0.643-0.562c0.609-0.447,1.291-0.789,2.016-1.012l0,0
	c0.691-0.219,1.406-0.361,2.129-0.428c0.092-0.01,0.189-0.016,0.285-0.021l0.189-0.018c0.32-0.021,0.654-0.029,0.996-0.029
	c1.455,0,2.707,0.166,3.762,0.496c1.1,0.342,1.98,0.867,2.643,1.572c0.482,0.518,0.855,1.127,1.092,1.793
	c0.064,0.184,0.125,0.371,0.174,0.564l0,0c0.168,0.68,0.25,1.379,0.242,2.08c0,4.189-2.637,6.283-7.91,6.281h-2.439v2.37h2.438
	c3.107,0,5.541-0.658,7.301-1.975c1.973-1.479,2.959-3.705,2.961-6.676c0.002-0.697-0.059-1.393-0.182-2.08l0,0
	c-0.076-0.424-0.186-0.842-0.326-1.248c-0.129-0.385-0.287-0.758-0.477-1.115c-0.303-0.574-0.682-1.104-1.127-1.574
	c-0.264-0.281-0.551-0.539-0.855-0.777c-0.73-0.562-1.545-1.008-2.414-1.318c-0.271-0.1-0.551-0.189-0.838-0.27l0,0
	c-1.318-0.35-2.678-0.518-4.041-0.5c-1.334-0.016-2.664,0.152-3.951,0.5c-1.215,0.328-2.35,0.9-3.336,1.682
	c-0.189,0.148-0.367,0.316-0.539,0.482c-0.07,0.068-0.148,0.133-0.207,0.203l0,0c-0.455,0.473-0.844,1.002-1.16,1.574
	c-0.4,0.74-0.688,1.537-0.852,2.363c-0.146,0.752-0.219,1.518-0.215,2.283v19.215H10.725v-1.562h30.738V13.759
	c-0.004-0.764,0.059-1.525,0.184-2.277l0,0c0.033-0.188,0.07-0.375,0.111-0.557c0.098-0.447,0.225-0.885,0.381-1.314
	c0.062-0.166,0.127-0.332,0.195-0.492l0,0c0.238-0.553,0.531-1.08,0.873-1.574l0,0c0.473-0.676,1.033-1.283,1.666-1.811
	c0.238-0.199,0.486-0.385,0.742-0.557l0,0c1.049-0.719,2.215-1.248,3.443-1.568l0,0c1.377-0.355,2.793-0.527,4.213-0.512
	c0.412,0,0.811,0.012,1.203,0.035c1.043,0.055,2.078,0.215,3.088,0.477c1.242,0.316,2.42,0.848,3.479,1.568
	c0.217,0.148,0.422,0.297,0.625,0.465c0.676,0.543,1.268,1.186,1.758,1.902c0.336,0.494,0.619,1.021,0.846,1.572
	c0.154,0.371,0.283,0.752,0.391,1.141c0.109,0.402,0.195,0.812,0.258,1.225l0,0c0.104,0.688,0.152,1.383,0.148,2.08
	c0,3.422-1.137,6.02-3.408,7.792c-2.059,1.613-4.855,2.418-8.395,2.418h-2.438v2.367h2.438c4.201,0,7.561-1.031,10.078-3.09
	c2.719-2.225,4.076-5.387,4.074-9.487C67.42,12.865,67.379,12.167,67.295,11.474z M39.635,13.759l-0.525,15.301H10.725v-2.93h17.914
	c4.752-0.016,8.592-3.875,8.58-8.629l0,0c0.002-1.176-0.264-2.338-0.777-3.395c-0.498-1.047-1.252-1.953-2.193-2.633h5.541
	C39.682,12.232,39.631,12.996,39.635,13.759z"/>
<path fill="#FFFFFF" d="M67.295,11.474L67.295,11.474c-0.055-0.42-0.121-0.83-0.209-1.229c-0.088-0.396-0.186-0.77-0.297-1.135
	c-0.168-0.541-0.375-1.066-0.623-1.574c-0.09-0.182-0.188-0.359-0.283-0.535C65.52,6.347,65.09,5.734,64.6,5.169l0,0
	c-0.383-0.441-0.803-0.854-1.25-1.232c-0.135-0.115-0.277-0.227-0.418-0.334c-0.311-0.236-0.627-0.455-0.955-0.662
	c-1.268-0.791-2.658-1.367-4.113-1.709c-1.504-0.352-3.045-0.523-4.59-0.51c-1.521-0.012-3.037,0.158-4.518,0.51
	c0,0-0.381,0.148-0.553,0.188c-1.676,0.457-3.16,1.131-4.486,2.184l0,0c-0.068,0.055-0.137,0.107-0.205,0.166
	c-0.031,0.023-0.064,0.051-0.096,0.076c-0.197,0.17-0.396,0.35-0.594,0.539c-1.457,1.418-2.527,3.186-3.109,5.135
	c-0.088,0.305-0.16,0.609-0.221,0.922v0.01c-0.252,0.92-0.334,3.43-0.383,4.518v14.077H10.725v2.375h30.738V13.759
	c-0.004-0.764,0.057-1.525,0.184-2.277l0,0c0.031-0.189,0.068-0.375,0.105-0.559c0.1-0.445,0.229-0.885,0.385-1.312
	c0.061-0.166,0.125-0.33,0.195-0.492l0,0c0.236-0.553,0.529-1.08,0.871-1.574l0,0c0.473-0.676,1.033-1.283,1.668-1.811
	c0.234-0.197,0.48-0.385,0.734-0.557c1.047-0.719,2.211-1.248,3.439-1.568l0,0c1.377-0.355,2.793-0.527,4.215-0.512
	c0.408,0,0.809,0.014,1.201,0.033c1.043,0.057,2.076,0.217,3.088,0.479c1.242,0.316,2.42,0.848,3.479,1.568
	c0.217,0.148,0.422,0.297,0.625,0.465c1.146,0.92,2.043,2.115,2.604,3.475c0.154,0.371,0.285,0.752,0.391,1.139
	c0.109,0.404,0.195,0.812,0.26,1.227c0.104,0.688,0.152,1.383,0.148,2.08c0,3.422-1.137,6.02-3.408,7.792
	c-2.059,1.613-4.857,2.418-8.396,2.418h-2.424v2.367h2.438c4.201,0,7.561-1.031,10.078-3.09c2.717-2.225,4.076-5.387,4.074-9.487
	C67.418,12.865,67.379,12.167,67.295,11.474z M45.355,32.975L45.355,32.975V13.759c-0.008-0.77,0.092-1.535,0.297-2.277
	c0.057-0.193,0.123-0.379,0.195-0.561c0.26-0.674,0.654-1.287,1.16-1.803c0.199-0.203,0.412-0.393,0.641-0.562
	c0.609-0.447,1.291-0.789,2.014-1.012l0,0c0.691-0.221,1.406-0.363,2.129-0.428l0.285-0.023l0.188-0.014
	c0.324-0.021,0.656-0.031,1-0.031c1.453,0,2.705,0.166,3.758,0.496c1.102,0.342,1.982,0.867,2.645,1.572
	c0.486,0.516,0.857,1.127,1.094,1.795c0.068,0.184,0.127,0.373,0.176,0.562c0.168,0.68,0.25,1.379,0.242,2.08
	c0,4.189-2.637,6.283-7.908,6.281h-2.443v2.37h2.438c3.107,0,5.541-0.658,7.299-1.975c1.975-1.479,2.963-3.705,2.963-6.676
	c0.002-0.697-0.059-1.393-0.182-2.08l0,0c-0.078-0.422-0.188-0.84-0.328-1.248c-0.127-0.385-0.285-0.758-0.475-1.115
	c-0.303-0.574-0.682-1.104-1.127-1.574c-0.264-0.281-0.551-0.541-0.857-0.777c-0.729-0.562-1.541-1.008-2.408-1.32
	c-0.271-0.1-0.549-0.191-0.836-0.27l0,0c-1.318-0.35-2.678-0.516-4.041-0.5c-1.334-0.016-2.664,0.152-3.951,0.5
	c-1.215,0.328-2.35,0.9-3.336,1.684c-0.191,0.148-0.367,0.314-0.539,0.48c-0.068,0.068-0.148,0.135-0.209,0.203
	c-0.451,0.473-0.84,1.002-1.156,1.574c-0.402,0.74-0.689,1.537-0.852,2.363c-0.15,0.752-0.225,1.518-0.223,2.285v19.215H10.725
	v2.375h34.631V32.975z M54.541,10.99c0.086,0,0.168,0.01,0.242,0.014c0.076,0.004,0.148,0.01,0.217,0.02
	c0.117,0.01,0.234,0.023,0.35,0.045c0.096,0.018,0.191,0.039,0.281,0.064c0.213,0.049,0.418,0.125,0.613,0.223
	c0.07,0.037,0.139,0.076,0.203,0.119c0.246,0.156,0.443,0.379,0.572,0.639c0.158,0.326,0.24,0.807,0.24,1.441
	c0.014,0.371-0.041,0.74-0.16,1.092c-0.23,0.594-0.783,0.975-1.658,1.137c-0.363,0.07-1.088,0.105-2.178,0.105h-2.438v2.375h2.438
	c2.045,0,3.545-0.285,4.504-0.861c1.225-0.727,1.842-2.01,1.842-3.842c0.016-0.709-0.1-1.412-0.34-2.08l0,0
	c-0.279-0.777-0.807-1.443-1.502-1.893c-0.146-0.094-0.299-0.18-0.455-0.256c-0.166-0.082-0.336-0.154-0.508-0.215
	c-0.928-0.346-2.109-0.518-3.543-0.516c-1.338,0-2.463,0.172-3.379,0.516c-0.99,0.371-1.725,0.947-2.219,1.723
	c-0.133,0.203-0.246,0.418-0.34,0.641c-0.283,0.727-0.422,1.5-0.404,2.279v23.145H10.725v2.375h38.547v-2.375l0,0V13.759
	c0-0.637,0.082-1.113,0.24-1.439c0.191-0.365,0.496-0.658,0.867-0.838l0,0c0.654-0.342,1.617-0.512,2.889-0.512
	C53.768,10.964,54.191,10.972,54.541,10.99z"/>
</svg>
