<svg width="15" height="15" viewBox="0 0 15 15" fill="none" xmlns="http://www.w3.org/2000/svg">
<path d="M6.94186 8.5783L6.94185 8.57829C6.89498 8.55152 6.85601 8.51283 6.82891 8.46615C6.80181 8.41948 6.78752 8.36647 6.7875 8.3125C6.7875 8.31249 6.7875 8.31248 6.7875 8.31247L6.7875 3.84375C6.7875 3.76253 6.81977 3.68463 6.8772 3.6272C6.93463 3.56977 7.01253 3.5375 7.09375 3.5375C7.17497 3.5375 7.25287 3.56977 7.3103 3.6272C7.36773 3.68463 7.4 3.76253 7.4 3.84375V8.07687V8.13491L7.45039 8.1637L10.0883 9.67107C10.1563 9.71242 10.2055 9.77861 10.2255 9.85565C10.2457 9.93305 10.2347 10.0152 10.1951 10.0847C10.1554 10.1541 10.0901 10.2053 10.0132 10.2272C9.93668 10.2491 9.85465 10.2403 9.78452 10.2027L6.94186 8.5783Z" fill="#959191" stroke="#959191" stroke-width="0.2"/>
<path d="M7.5 14.1C9.25043 14.1 10.9292 13.4046 12.1669 12.1669C13.4046 10.9292 14.1 9.25043 14.1 7.5C14.1 5.74957 13.4046 4.07084 12.1669 2.8331C10.9292 1.59536 9.25043 0.9 7.5 0.9C5.74957 0.9 4.07084 1.59536 2.8331 2.8331C1.59536 4.07084 0.9 5.74957 0.9 7.5C0.9 9.25043 1.59536 10.9292 2.8331 12.1669C4.07084 13.4046 5.74957 14.1 7.5 14.1ZM13.0875 7.5C13.0875 8.9819 12.4988 10.4031 11.451 11.451C10.4031 12.4988 8.9819 13.0875 7.5 13.0875C6.0181 13.0875 4.5969 12.4988 3.54904 11.451C2.50118 10.4031 1.9125 8.9819 1.9125 7.5C1.9125 6.0181 2.50118 4.5969 3.54904 3.54904C4.5969 2.50118 6.0181 1.9125 7.5 1.9125C8.9819 1.9125 10.4031 2.50118 11.451 3.54904C12.4988 4.5969 13.0875 6.0181 13.0875 7.5Z" fill="#959191" stroke="#959191" stroke-width="0.2"/>
</svg>
