<svg width="220" height="218" viewBox="0 0 220 218" fill="none" xmlns="http://www.w3.org/2000/svg">
<path d="M103 0L0 0L219.5 217.5L219.5 116.5L103 0Z" fill="#31AAE9"/>
<path d="M157 82.5C157 87.9369 154.84 93.1512 150.996 96.9957C147.151 100.84 141.937 103 136.5 103C131.063 103 125.849 100.84 122.004 96.9957C118.16 93.1512 116 87.9369 116 82.5C116 77.0631 118.16 71.8488 122.004 68.0043C125.849 64.1598 131.063 62 136.5 62C141.937 62 147.151 64.1598 150.996 68.0043C154.84 71.8488 157 77.0631 157 82.5ZM137.235 77.1341C135.242 77.9644 131.255 79.6812 125.279 82.2847C124.31 82.6691 123.8 83.0484 123.754 83.4174C123.677 84.0401 124.459 84.2861 125.522 84.6217L125.971 84.7627C127.016 85.1035 128.426 85.5007 129.156 85.5161C129.822 85.5314 130.563 85.2598 131.38 84.6961C136.964 80.9266 139.847 79.0227 140.026 78.9817C140.154 78.9509 140.333 78.9151 140.451 79.0227C140.572 79.1278 140.559 79.3302 140.546 79.384C140.469 79.7146 137.402 82.5641 135.816 84.0401C135.321 84.5013 134.97 84.8267 134.898 84.9011C134.74 85.0625 134.58 85.2214 134.417 85.3777C133.443 86.3156 132.715 87.0177 134.455 88.1657C135.293 88.7192 135.964 89.1727 136.633 89.6289C137.361 90.126 138.089 90.6206 139.032 91.2407C139.27 91.3944 139.501 91.561 139.724 91.7199C140.572 92.3246 141.338 92.8679 142.278 92.7808C142.827 92.7295 143.393 92.217 143.68 90.6795C144.359 87.0484 145.694 79.1841 146.002 75.9426C146.021 75.6731 146.009 75.4024 145.968 75.1354C145.944 74.9199 145.84 74.7214 145.676 74.5793C145.443 74.4184 145.165 74.335 144.882 74.341C144.113 74.3538 142.927 74.7664 137.235 77.1341Z" fill="white"/>
</svg>
