<svg width="96" height="24" viewBox="0 0 96 24" fill="none" xmlns="http://www.w3.org/2000/svg">
<path d="M35.642 8.70524C35.3225 8.17606 34.4439 7.67258 33.4321 7.67258C32.1275 7.67258 31.5021 8.21537 31.5021 8.9033C31.5021 9.71067 32.4607 9.9352 33.5789 10.0675C35.5226 10.3056 37.3331 10.8083 37.3331 13.0158C37.3331 15.0796 35.496 15.964 33.4192 15.964C31.5173 15.964 30.0507 15.3819 29.3584 13.6886L30.8228 12.9326C31.2359 13.9509 32.3138 14.4007 33.4458 14.4007C34.5504 14.4007 35.5888 14.0174 35.5888 13.012C35.5888 12.1388 34.6706 11.7813 33.4321 11.6512C31.5303 11.4245 29.7715 10.924 29.7715 8.8466C29.7715 6.94156 31.6619 6.16065 33.3788 6.1478C34.8303 6.1478 36.3343 6.55753 37.0402 7.98631L35.642 8.70524Z" fill="#959191"/>
<path d="M45.3604 12.4753C45.3604 14.3539 44.0672 15.8771 41.9371 15.8771C39.8071 15.8771 38.5291 14.3554 38.5291 12.4753C38.5291 10.6103 39.8337 9.07343 41.9242 9.07343C44.0147 9.07343 45.3604 10.6141 45.3604 12.4753ZM40.1547 12.4753C40.1547 13.4679 40.7542 14.3939 41.9386 14.3939C43.1231 14.3939 43.7225 13.4679 43.7225 12.4753C43.7225 11.4925 43.0303 10.5438 41.9386 10.5438C40.7671 10.5438 40.1547 11.4963 40.1547 12.4753Z" fill="#959191"/>
<path d="M52.1094 14.8966C51.3487 15.6375 50.5522 15.9285 49.58 15.9285C47.6782 15.9285 46.092 14.7908 46.092 12.4753C46.092 10.1597 47.6766 9.02655 49.58 9.02655C50.5119 9.02655 51.2308 9.29114 51.9497 9.99192L50.925 11.0601C50.5639 10.7335 50.0948 10.5498 49.6066 10.5438C48.515 10.5438 47.7162 11.3375 47.7162 12.4753C47.7162 13.7189 48.5682 14.3803 49.58 14.3803C50.0996 14.3803 50.6184 14.2352 51.0178 13.8383L52.1094 14.8966Z" fill="#959191"/>
<path d="M54.5987 7.36869C54.5987 8.62587 52.6816 8.62587 52.6816 7.36869C52.6816 6.11152 54.5987 6.11152 54.5987 7.36869ZM52.8285 9.18302V15.732H54.4526V9.17773L52.8285 9.18302Z" fill="#959191"/>
<path d="M61.1217 9.20795H62.6797V15.7297H61.1484L61.0723 14.7772C60.6995 15.5445 59.6748 15.9149 58.9422 15.9285C56.9986 15.9414 55.5608 14.7507 55.5608 12.4624C55.5608 10.2134 57.0655 9.03559 58.9841 9.04844C59.8627 9.04844 60.701 9.45894 61.0738 10.1068L61.1217 9.20795ZM57.1811 12.4586C57.1811 13.7022 58.0469 14.443 59.1248 14.443C61.6809 14.443 61.6809 10.4871 59.1248 10.4871C58.0469 10.4908 57.1811 11.2188 57.1811 12.4624V12.4586Z" fill="#959191"/>
<path d="M65.6619 6.48196V15.7297H64.0507V6.48196H65.6619Z" fill="#959191"/>
<path d="M71.5994 13.0044H68.9635V15.7297H67.2062V6.46909C68.6706 6.46909 70.135 6.45624 71.5994 6.45624C76.1523 6.45624 76.1653 13.0044 71.5994 13.0044ZM68.9635 11.4041H71.5994C73.8489 11.4041 73.8359 8.12239 71.5994 8.12239H68.9635V11.4041Z" fill="#959191"/>
<path d="M81.0111 9.20795H82.5691V15.7297H81.0385L80.9624 14.7772C80.5896 15.5445 79.5649 15.9149 78.8324 15.9285C76.8887 15.9414 75.4509 14.7507 75.4509 12.4624C75.4509 10.2134 76.9556 9.03559 78.8742 9.04844C79.7528 9.04844 80.5912 9.45894 80.9639 10.1068L81.0111 9.20795ZM77.0705 12.4586C77.0705 13.7022 77.9362 14.443 79.0142 14.443C81.5702 14.443 81.5702 10.4871 79.0142 10.4871C77.9362 10.4908 77.0705 11.2188 77.0705 12.4624V12.4586Z" fill="#959191"/>
<path d="M88.2266 10.9407C87.761 10.5045 87.2285 10.3586 86.6024 10.3586C85.8303 10.3586 85.4043 10.5967 85.4043 11.0072C85.4043 11.4305 85.7907 11.6687 86.629 11.7216C87.8675 11.7972 89.4384 12.0784 89.4384 13.8118C89.4384 14.9624 88.4928 15.955 86.6161 15.955C85.5777 15.955 84.5393 15.7826 83.5808 14.7908L84.3796 13.6395C84.8451 14.1558 85.9102 14.5391 86.6427 14.5527C87.2513 14.5655 87.8272 14.2503 87.8272 13.7718C87.8272 13.322 87.4544 13.1367 86.5225 13.0838C85.2848 12.9916 83.8067 12.5418 83.8067 11.0601C83.8067 9.54816 85.3776 9.01898 86.5758 9.01898C87.6013 9.01898 88.3734 9.21705 89.1318 9.87852L88.2266 10.9407Z" fill="#959191"/>
<path d="M94.7635 10.9407C94.2972 10.5045 93.7646 10.3586 93.1393 10.3586C92.3672 10.3586 91.9412 10.5967 91.9412 11.0072C91.9412 11.4305 92.3269 11.6687 93.166 11.7216C94.4037 11.7972 95.9746 12.0784 95.9746 13.8118C95.9746 14.9624 95.0297 15.955 93.1523 15.955C92.1139 15.955 91.0755 15.7826 90.1169 14.7908L90.9157 13.6395C91.382 14.1558 92.4471 14.5391 93.1789 14.5527C93.7913 14.5655 94.3641 14.2503 94.3641 13.7718C94.3641 13.322 93.9913 13.1367 93.0594 13.0838C91.821 12.9916 90.3436 12.5418 90.3436 11.0601C90.3436 9.54816 91.9145 9.01898 93.1127 9.01898C94.1374 9.01898 94.9095 9.21705 95.6687 9.87852L94.7635 10.9407Z" fill="#959191"/>
<path d="M19.8089 3.75591C18.1882 2.14533 16.1232 1.04851 13.8752 0.604158C11.6272 0.159802 9.29705 0.387866 7.17945 1.25951C5.06186 2.13115 3.25192 3.60723 1.97851 5.50108C0.705101 7.39493 0.0254101 9.62149 0.0253906 11.8992C0.0255934 12.3179 0.0484483 12.7363 0.0938564 13.1526L0.10755 13.2796C0.112875 13.3242 0.118961 13.3681 0.124286 13.4127C0.124286 13.4331 0.129611 13.4535 0.132654 13.4739C0.154715 13.6326 0.179058 13.7906 0.208727 13.9479C0.208727 13.9653 0.215573 13.9819 0.218616 13.9993C0.549558 15.774 1.29559 17.4466 2.39654 18.8822C3.49748 20.3178 4.92253 21.4761 6.55675 22.2638C8.19096 23.0516 9.98859 23.4466 11.8047 23.4171C13.6207 23.3875 15.4044 22.9343 17.0118 22.0939C18.6192 21.2535 20.0054 20.0494 21.0585 18.5788C22.1116 17.1082 22.8022 15.4123 23.0745 13.6277C23.3468 11.8432 23.1933 10.02 22.6264 8.30525C22.0594 6.59049 21.0948 5.03215 19.8104 3.75591H19.8089ZM13.4462 12.1101V22.634C13.2869 22.6607 13.1269 22.6839 12.9662 22.7035V12.1101C12.9636 11.8774 12.9943 11.6455 13.0574 11.4214H13.5717C13.4842 11.6404 13.4415 11.8746 13.4462 12.1101ZM12.245 22.7648C12.0883 22.7738 11.9303 22.7794 11.771 22.7814V12.1101C11.7699 11.8794 11.7887 11.649 11.8273 11.4214H12.3104C12.2657 11.6483 12.2438 11.879 12.245 12.1101V22.7648ZM9.20663 10.7033C9.1893 10.7036 9.17202 10.7051 9.1549 10.7078H5.48743C5.34061 10.7078 5.2691 10.7796 5.2691 10.9217C5.2691 11.0321 5.3581 11.11 5.54068 11.1538C5.90126 11.2118 6.17715 11.2506 6.36835 11.2702C7.13415 11.3549 7.61798 11.4159 7.81982 11.4532C8.17566 11.5157 8.52087 11.6277 8.84528 11.7858C8.95611 11.8422 9.06153 11.9085 9.16023 11.9839C9.31379 12.1005 9.44269 12.246 9.53955 12.4122C9.63641 12.5784 9.69932 12.7619 9.72469 12.9523C9.76598 13.2229 9.74797 13.4992 9.67191 13.7623C9.59584 14.0254 9.4635 14.2691 9.28393 14.4767C9.10437 14.6842 8.88182 14.8508 8.63149 14.9651C8.38117 15.0793 8.10897 15.1385 7.83351 15.1385H1.15507C1.10639 14.9821 1.06074 14.8233 1.0189 14.6638H7.83428C8.02305 14.667 8.21051 14.632 8.38523 14.5609C8.55996 14.4898 8.7183 14.3841 8.85061 14.2503C8.98694 14.1206 9.09493 13.9644 9.16783 13.7914C9.24073 13.6184 9.27699 13.4324 9.27434 13.2448C9.27496 13.1464 9.26398 13.0482 9.24162 12.9523C9.18239 12.7087 9.0432 12.4917 8.84605 12.3354C8.61599 12.1577 8.3524 12.0276 8.07086 11.9529C8.04804 11.9453 7.30455 11.8234 5.8404 11.587C5.0391 11.458 4.63871 11.2146 4.63921 10.8567C4.63852 10.7747 4.65461 10.6934 4.68652 10.6178C4.71843 10.5422 4.76549 10.4738 4.82483 10.4168C4.88129 10.3573 4.94948 10.3102 5.02515 10.2782C5.10081 10.2462 5.18231 10.23 5.26453 10.2308H9.16251C9.17721 10.2316 9.19193 10.2316 9.20663 10.2308H14.2822C14.4371 10.2274 14.5895 10.1916 14.7295 10.1257C14.8831 10.0532 15.0179 9.94651 15.1234 9.81399C15.2289 9.68147 15.3024 9.52664 15.3381 9.36143C15.3546 9.28489 15.363 9.20686 15.3632 9.12859V1.6702C15.5245 1.72916 15.6842 1.7914 15.8425 1.85692V9.51564C15.8424 9.6717 15.8113 9.82622 15.7512 9.97036C15.691 10.1145 15.6028 10.2455 15.4917 10.3557C15.3806 10.466 15.2487 10.5535 15.1035 10.6131C14.9584 10.6727 14.8029 10.7034 14.6458 10.7033H9.20663ZM11.6143 1.01326C12.2281 1.01283 12.8409 1.0634 13.4462 1.16445V7.60758C13.4462 7.79604 13.3708 7.97679 13.2367 8.11005C13.1026 8.24332 12.9207 8.31819 12.7311 8.31819H9.20663C9.19322 8.31704 9.17973 8.31704 9.16631 8.31819H5.26453C4.58876 8.31899 3.94091 8.58617 3.46313 9.06109C2.98536 9.53602 2.71669 10.1799 2.71609 10.8514C2.71609 11.6578 3.04574 12.2911 3.70504 12.7512H0.695593C0.673279 12.4685 0.662121 12.1827 0.662121 11.8939C0.663533 9.0081 1.81797 6.24091 3.8717 4.20061C5.92542 2.16031 8.71034 1.01386 11.6143 1.01326ZM0.776231 13.4739H7.89133C7.91899 13.4775 7.94711 13.4746 7.97348 13.4656C7.99985 13.4565 8.02374 13.4415 8.04328 13.4217C8.06282 13.4019 8.07747 13.3779 8.08609 13.3516C8.0947 13.3252 8.09704 13.2972 8.09292 13.2698C8.09292 13.167 8.02522 13.0891 7.89133 13.0385C7.68706 12.9697 7.47585 12.9233 7.26145 12.9001C7.17396 12.8888 6.95715 12.8653 6.60798 12.8298C5.6449 12.7315 4.95263 12.5939 4.53575 12.4155C3.80495 12.1041 3.43878 11.5845 3.43726 10.8567C3.44006 10.3764 3.63331 9.91653 3.9751 9.57688C4.31689 9.23723 4.77965 9.04519 5.26301 9.04241H9.75816H13.2218C13.4391 9.04259 13.6498 8.96833 13.8184 8.83214C13.9871 8.69596 14.1033 8.50617 14.1476 8.29475C14.1601 8.23176 14.1665 8.16771 14.1666 8.10349V1.31565C14.3263 1.35345 14.4838 1.39124 14.6405 1.43887V8.43612C14.6405 8.72283 14.5259 8.99779 14.3219 9.20053C14.1179 9.40326 13.8412 9.51716 13.5527 9.51716H9.75816H5.26225C4.90551 9.5211 4.56456 9.66394 4.31265 9.91498C4.06074 10.166 3.91796 10.5052 3.915 10.8598C3.915 11.4645 4.31565 11.8813 5.11695 12.1101C5.86348 12.2276 6.60722 12.3457 7.34817 12.4647C8.14896 12.6008 8.54987 12.8618 8.55088 13.2479C8.5522 13.3409 8.53394 13.4333 8.49726 13.5189C8.46057 13.6046 8.40629 13.6817 8.33788 13.7453C8.27175 13.8115 8.19288 13.8639 8.10597 13.8992C8.01906 13.9345 7.92588 13.9521 7.83199 13.9509H0.857629C0.826692 13.7927 0.79956 13.6337 0.776231 13.4739ZM1.4084 15.8544H7.83428C8.18063 15.8598 8.52444 15.7948 8.84465 15.6636C9.16487 15.5323 9.45475 15.3374 9.69654 15.0909C9.93722 14.8606 10.1293 14.585 10.2616 14.2801C10.3939 13.9752 10.4638 13.6472 10.4672 13.3151C10.4755 13.0292 10.4314 12.7441 10.3371 12.4738C10.2211 12.1348 10.0222 11.8298 9.75816 11.5862C9.69352 11.5277 9.62571 11.4727 9.55505 11.4214H11.094C11.0614 11.6496 11.0456 11.8797 11.0468 12.1101V22.7693C8.94096 22.6608 6.91134 21.9507 5.20163 20.7241C3.49193 19.4975 2.17481 17.8066 1.4084 15.8544ZM14.1704 22.4828V12.1101C14.1629 11.9614 14.1889 11.8129 14.2465 11.6754C14.3048 11.5646 14.3977 11.4755 14.5112 11.4214H15.2331C15.4446 11.4222 15.6532 11.373 15.8417 11.2778H15.8676C15.8919 11.2778 15.9132 11.2778 15.9345 11.2839C15.9702 11.2863 16.0058 11.2906 16.041 11.2967C16.0707 11.302 16.1004 11.3096 16.1277 11.3148C16.1925 11.3315 16.2555 11.3545 16.3156 11.3836C16.3377 11.395 16.3582 11.4078 16.378 11.4199C16.4531 11.4673 16.5136 11.5343 16.553 11.6135C16.6102 11.7516 16.6362 11.9005 16.6291 12.0497C16.6329 12.1615 16.6164 12.2732 16.5804 12.3793C16.5096 12.5599 16.34 12.6741 16.0715 12.7232C15.8497 12.7511 15.6262 12.7617 15.4028 12.755H15.0072C14.9115 12.755 14.8197 12.7927 14.7519 12.8599C14.6842 12.9271 14.646 13.0182 14.6458 13.1133C14.6458 13.2085 14.6839 13.2999 14.7517 13.3672C14.8194 13.4346 14.9114 13.4724 15.0072 13.4724H15.3952C16.0228 13.4724 16.4822 13.3847 16.7782 13.2116C17.1532 12.9916 17.3434 12.6068 17.3434 12.0497C17.3474 11.8352 17.3121 11.6218 17.2392 11.4199C17.1537 11.1838 16.9918 10.9826 16.7789 10.8477C16.7339 10.8196 16.6871 10.7944 16.639 10.7721L16.5674 10.7396C16.5408 10.7275 16.5119 10.7169 16.4822 10.7063L16.4267 10.6866C16.4984 10.5447 16.5438 10.391 16.5606 10.2331C16.7176 10.2811 16.8685 10.3471 17.0102 10.4296C17.3296 10.613 17.5725 10.904 17.6948 11.2498C17.7146 11.305 17.7336 11.3617 17.7489 11.4207C17.8009 11.6265 17.8265 11.8381 17.8249 12.0504C17.8249 13.3174 17.0155 13.9507 15.3967 13.9502H15.0072C14.9584 13.9479 14.9097 13.9556 14.8639 13.9726C14.8182 13.9896 14.7764 14.0157 14.741 14.0492C14.7057 14.0827 14.6776 14.123 14.6584 14.1677C14.6392 14.2123 14.6293 14.2603 14.6293 14.3089C14.6293 14.3574 14.6392 14.4054 14.6584 14.4501C14.6776 14.4947 14.7057 14.535 14.741 14.5685C14.7764 14.6021 14.8182 14.6281 14.8639 14.6451C14.9097 14.6622 14.9584 14.6698 15.0072 14.6676H15.3952C16.3491 14.6676 17.0962 14.4685 17.6363 14.0704C18.2413 13.6223 18.5443 12.949 18.5453 12.0504C18.5462 11.8393 18.5276 11.6285 18.4898 11.4207C18.4657 11.2924 18.4321 11.1661 18.3894 11.0427C18.2464 10.627 17.9831 10.2625 17.6325 9.99493C17.4083 9.82391 17.1586 9.68896 16.8923 9.59502C16.8094 9.56478 16.7242 9.53757 16.6352 9.51338L16.5667 9.49599V9.00461C16.6161 9.01519 16.6648 9.02729 16.712 9.03938C17.0917 9.13546 17.452 9.2958 17.777 9.51338C17.8432 9.55722 17.9071 9.60485 17.9687 9.65399C18.176 9.81859 18.3578 10.0127 18.5081 10.23C18.6109 10.3793 18.6981 10.5386 18.7682 10.7055C18.8151 10.8177 18.855 10.9325 18.8877 11.0495C18.9217 11.1715 18.9483 11.2955 18.9675 11.4207C18.9995 11.6291 19.0153 11.8396 19.0147 12.0504C19.0147 13.0846 18.666 13.87 17.9687 14.4068C17.3373 14.8946 16.4782 15.1383 15.3914 15.1378H15.0072C14.9598 15.1378 14.9129 15.1471 14.8692 15.1651C14.8255 15.1831 14.7857 15.2095 14.7522 15.2427C14.7187 15.276 14.6922 15.3155 14.6741 15.359C14.6559 15.4025 14.6466 15.4491 14.6466 15.4961C14.6468 15.591 14.6849 15.682 14.7525 15.749C14.8201 15.816 14.9117 15.8537 15.0072 15.8537H15.3959C16.6856 15.8537 17.7169 15.5422 18.4898 14.9193C19.3226 14.248 19.7389 13.2917 19.7389 12.0504C19.739 11.8399 19.7261 11.6296 19.7001 11.4207C19.6834 11.2932 19.6621 11.1692 19.6362 11.0487C19.6096 10.9308 19.5784 10.8167 19.5434 10.7055C19.4919 10.5424 19.4278 10.3834 19.3517 10.23C19.3251 10.1748 19.2954 10.1197 19.265 10.0675C19.1538 9.86958 19.022 9.68385 18.8717 9.51338C18.7544 9.3799 18.6273 9.25532 18.4913 9.14068C18.4487 9.10591 18.4054 9.07189 18.362 9.03938C18.2677 8.96379 18.1703 8.90255 18.0699 8.83981C17.6802 8.59998 17.2536 8.4253 16.8071 8.32272C16.731 8.30382 16.6496 8.28719 16.5697 8.27207V2.18955C18.5687 3.19739 20.2085 4.79039 21.2677 6.75354C22.3269 8.7167 22.7546 10.9555 22.493 13.1678C22.2315 15.3802 21.2932 17.4595 19.805 19.1252C18.3167 20.7909 16.35 21.9628 14.1704 22.4828Z" fill="#959191"/>
</svg>
