<svg width="220" height="218" viewBox="0 0 220 218" fill="none" xmlns="http://www.w3.org/2000/svg">
<path d="M103 0L0 0L219.5 217.5L219.5 116.5L103 0Z" fill="#5165F6"/>
<g clip-path="url(#clip0_456_198)">
<path d="M150.709 69.4494C148.05 68.2293 145.245 67.3585 142.363 66.8587C142.337 66.8543 142.31 66.8581 142.286 66.8696C142.262 66.8811 142.243 66.8996 142.23 66.9228C141.868 67.5634 141.469 68.4013 141.189 69.0573C138.083 68.5859 134.922 68.5859 131.816 69.0573C131.504 68.3266 131.152 67.6139 130.76 66.9228C130.747 66.8999 130.727 66.8815 130.703 66.8701C130.679 66.8587 130.653 66.8547 130.627 66.8587C127.744 67.3558 124.938 68.2271 122.281 69.4494C122.258 69.4581 122.239 69.4744 122.227 69.4955C116.912 77.4367 115.454 85.1832 116.169 92.8322C116.172 92.8681 116.195 92.904 116.223 92.927C119.318 95.2195 122.779 96.9698 126.46 98.1033C126.486 98.1115 126.514 98.1112 126.54 98.1024C126.566 98.0937 126.588 98.0769 126.604 98.0546C127.393 96.9783 128.095 95.8432 128.7 94.649C128.712 94.6244 128.717 94.5964 128.712 94.5692C128.707 94.5419 128.694 94.5169 128.674 94.4978C128.661 94.4853 128.645 94.4757 128.628 94.4697C127.524 94.0454 126.455 93.5356 125.43 92.945C125.401 92.9287 125.38 92.9021 125.37 92.8707C125.361 92.8392 125.364 92.8052 125.379 92.7758C125.387 92.7568 125.401 92.7401 125.417 92.7272C125.632 92.5657 125.848 92.3966 126.053 92.2275C126.071 92.2129 126.092 92.2035 126.115 92.2004C126.139 92.1972 126.162 92.2004 126.183 92.2095C132.894 95.2743 140.159 95.2743 146.788 92.2095C146.811 92.1999 146.835 92.1966 146.859 92.1997C146.883 92.2029 146.905 92.2125 146.924 92.2275C147.129 92.3966 147.344 92.5657 147.56 92.7272C147.577 92.7399 147.591 92.7568 147.6 92.7763C147.61 92.7957 147.614 92.8172 147.613 92.8388C147.612 92.8604 147.606 92.8814 147.595 92.8999C147.584 92.9184 147.568 92.9339 147.549 92.945C146.527 93.541 145.456 94.0502 144.349 94.4671C144.331 94.4735 144.315 94.4837 144.302 94.497C144.289 94.5103 144.278 94.5263 144.272 94.544C144.266 94.5611 144.264 94.5792 144.265 94.5973C144.266 94.6154 144.271 94.633 144.28 94.649C144.895 95.8406 145.599 96.9783 146.373 98.0546C146.389 98.0769 146.411 98.0937 146.437 98.1024C146.463 98.1112 146.491 98.1115 146.517 98.1033C150.204 96.9733 153.671 95.2228 156.769 92.927C156.785 92.9163 156.798 92.9022 156.807 92.8858C156.816 92.8694 156.822 92.8511 156.823 92.8322C157.679 83.989 155.391 76.3067 150.76 69.4981C150.756 69.4868 150.749 69.4767 150.74 69.4683C150.731 69.4599 150.72 69.4535 150.709 69.4494ZM129.702 88.1736C127.68 88.1736 126.017 86.3183 126.017 84.0428C126.017 81.7648 127.649 79.9095 129.702 79.9095C131.77 79.9095 133.417 81.7802 133.387 84.0428C133.387 86.3183 131.754 88.1736 129.702 88.1736ZM143.324 88.1736C141.305 88.1736 139.639 86.3183 139.639 84.0428C139.639 81.7648 141.271 79.9095 143.324 79.9095C145.392 79.9095 147.042 81.7802 147.009 84.0428C147.009 86.3183 145.392 88.1736 143.324 88.1736Z" fill="white"/>
</g>
<defs>
<clipPath id="clip0_456_198">
<rect width="41" height="41" fill="white" transform="translate(116 62)"/>
</clipPath>
</defs>
</svg>
