<?xml version="1.0" encoding="utf-8"?>
<!-- Generator: Adobe Illustrator 16.0.0, SVG Export Plug-In . SVG Version: 6.00 Build 0)  -->
<!DOCTYPE svg PUBLIC "-//W3C//DTD SVG 1.1//EN" "http://www.w3.org/Graphics/SVG/1.1/DTD/svg11.dtd">
<svg version="1.1" id="Layer_1" xmlns="http://www.w3.org/2000/svg" xmlns:xlink="http://www.w3.org/1999/xlink" x="0px" y="0px"
	 width="367px" height="367px" viewBox="0 0 367 367" enable-background="new 0 0 367 367" xml:space="preserve">
<path fill="#CAE5FF" d="M348.65,324.35c0,13.42-10.879,24.301-24.301,24.301H42.65c-13.421,0-24.3-10.879-24.3-24.301V42.65
	c0-13.42,10.879-24.3,24.3-24.3H324.35c13.422,0,24.301,10.88,24.301,24.3V324.35z"/>
<path fill="#CAE5FF" d="M258.426,159.011c2.178-0.765,4.391-1.404,6.623-2.034c0.181,0.811,0.559,2.412,0.747,3.213
	C263.33,159.794,260.864,159.461,258.426,159.011z"/>
<path fill="#CAE5FF" d="M89.369,192.636c0.135-0.45,0.414-1.368,0.549-1.819l0.522,0.945c1.602,3.384,3.393,6.75,6.057,9.433
	c4.392,4.526,8.712,9.126,12.771,13.95c0.027,2.564,0,5.139-0.072,7.703c-6.318-1.611-12.564-3.51-18.63-5.903
	C90.404,208.826,89.333,200.735,89.369,192.636z"/>
<path fill="#CAE5FF" d="M257.768,199.826c4.355-2.906,10.125-5.391,15.266-3.06c2.59,1.025,4.473,3.185,6.137,5.337
	c-3.113-0.18-6.137-1.008-9.207-1.439C265.932,199.971,261.826,200.177,257.768,199.826z"/>
<path fill="#CAE5FF" d="M245.861,219.076c1.584-5.812,4.104-11.365,7.884-16.082c9.188,0.036,18.485,0.756,27.307,3.465
	c2.024,6.193,2.735,12.753,2.744,19.252c-8.198-2.926-16.757-4.861-25.415-5.77C254.195,219.86,250.037,219.338,245.861,219.076z"/>
<path fill="#CAE5FF" d="M245.223,222.65c4.221,0.035,8.441,0.135,12.663,0.306c0.278,7.749,0.089,15.499,0.089,23.247
	c-4.535,0.604-9.116,0.666-13.68,0.928C243.944,238.967,243.584,230.705,245.223,222.65z"/>
<path fill="#CAE5FF" d="M261.404,246.762c-0.045-7.759-0.1-15.525,0.018-23.283c7.552,1.439,15.139,2.942,22.293,5.832
	c-0.441,7.2-0.81,14.4-1.116,21.609C275.67,248.984,268.677,246.789,261.404,246.762z"/>
<path fill="#CAE5FF" d="M105.344,225.863c8.685,2.025,17.442,3.753,26.28,4.995c-0.162,8.722-0.018,17.442-0.072,26.162
	c-8.802-1.053-17.532-2.844-25.938-5.669C105.452,242.855,105.371,234.359,105.344,225.863z"/>
<path fill="#CAE5FF" d="M135.152,231.344c2.376,0.189,4.797,0.262,7.092,0.99c-2.061,0.019-4.176-0.314-6.192,0.207
	c-1.026,2.115,1.233,4.229,2.646,5.652c11.718,7.84,24.903,13.076,37.971,18.189c-0.009,1.134-0.009,2.268-0.009,3.41
	c-13.824,0.045-27.612-0.756-41.337-2.195C135.27,248.849,135.377,240.092,135.152,231.344z"/>
<g>
	<g>
		<path fill="#07152B" d="M107.468,119.159c14.832-16.002,35.586-26.019,57.114-28.926c6.84-1.161,13.806-0.711,20.709-0.702
			c23.977,1.701,47.457,12.456,63.63,30.357c10.728,11.484,17.928,26.055,20.988,41.436c12.915,3.861,24.868,12.591,30.097,25.317
			c3.924,7.956,3.527,17.028,3.933,25.659c-0.027,11.808-0.036,23.66-1.243,35.423c-5.804,2.646-11.322,6.13-17.423,8.028
			c-12.608-5.318-26.712-7.533-40.249-4.985c-0.504,4.842,0.46,9.701-0.044,14.535c-1.081,1.368-2.881,1.628-4.428,2.169
			c-4.482,1.305-8.946,2.727-13.428,4.041c-3.771,1.287-7.615-0.622-11.296-1.369c-6.786-1.619-13.004-4.984-19.711-6.759
			c-13.103,1.27-26.243-0.106-39.365-0.26c-15.408-1.044-30.924-2.332-45.882-6.4c-6.633-1.925-13.41-4.292-18.666-8.937
			c-1.674-1.62-3.321-3.582-3.609-5.967c-0.477-4.77-0.972-9.54-1.008-14.337c-1.053-19.161-2.898-38.304-2.484-57.519
			C86.372,151.136,94.409,132.785,107.468,119.159z M135.818,102.761c6.714,2.007,13.68,3.069,20.619,3.906
			c3.924-5.472,9.324-9.576,14.715-13.491C158.93,94.301,146.879,97.379,135.818,102.761z M184.508,92.942
			c5.662,3.871,11.151,8.172,15.156,13.815c7.101-0.693,14.211-1.719,21.123-3.546C209.689,97.038,197.063,94.148,184.508,92.942z
			 M160.91,107.207c11.448,0.999,22.977,1.494,34.426,0.117c-4.762-5.364-10.504-10.152-17.164-12.879
			C171.341,96.785,165.581,101.789,160.91,107.207z M106.928,125.342c9.693,2.637,19.611,4.572,29.592,5.751
			c2.466-7.839,6.462-15.084,11.143-21.798c-5.725-0.909-11.286-2.753-16.983-3.636C121.562,110.538,113.66,117.521,106.928,125.342
			z M211.859,109.169c4.68,6.65,8.639,13.833,11.143,21.6c8.675-1.396,17.307-3.087,25.893-4.978
			c-5.977-8.01-13.996-14.336-22.509-19.449C221.471,106.721,216.729,108.404,211.859,109.169z M151.865,110.195
			c-4.959,6.444-8.892,13.707-11.475,21.42c12.006,1.719,24.138,2.232,36.27,2.25c0.054-7.317-0.045-14.634,0.036-21.96
			C168.389,111.923,160.127,110.411,151.865,110.195z M180.494,111.869c0.027,7.326-0.018,14.643,0.009,21.969
			c12.906,0.162,25.759-0.954,38.565-2.439c-2.395-7.857-6.633-15.012-11.538-21.537
			C198.558,110.933,189.539,111.833,180.494,111.869z M103.967,128.627c-5.13,7.506-9.594,15.552-12.006,24.381
			c7.65,1.413,15.246,3.519,23.031,3.924c1.179-8.496,3.501-16.911,8.136-24.21C116.693,131.561,110.42,129.671,103.967,128.627z
			 M238.761,131.822c4.355,7.857,7.55,16.362,9.431,25.155c5.301-1.071,10.639-2.034,15.859-3.51
			c-2.656-8.865-7.021-17.154-12.484-24.597C247.311,129.905,243.018,130.778,238.761,131.822z M207.719,136.358
			c2.403,8.208,2.746,16.812,2.412,25.299c11.492-0.702,22.933-2.151,34.299-3.978c-1.863-8.829-5.282-17.235-9.485-25.182
			C225.917,134.081,216.846,135.477,207.719,136.358z M118.826,157.832c9.972,1.575,20.025,2.862,30.123,3.087
			c0.126-8.199,1.17-16.353,2.97-24.345c-8.19-0.513-16.326-1.656-24.417-3.033C122.292,140.588,119.852,149.228,118.826,157.832z
			 M155.969,137.042c-2.502,7.902-2.754,16.236-3.348,24.435c17.838,1.35,35.757,1.278,53.631,0.549
			c0.441-8.415,0.225-17.019-2.349-25.11c-5.005,0.089-10.009,0.324-15.003,0.549C177.929,138.527,166.94,137.294,155.969,137.042z
			 M90.953,156.752c-2.574,10.018-2.592,20.448-1.979,30.699c2.826,0.676,5.66,1.359,8.486,2.025
			c-0.153-10.323,0.468-20.664,2.232-30.853C96.776,158.021,93.878,157.31,90.953,156.752z M258.426,159.011
			c2.438,0.45,4.904,0.783,7.37,1.179c-0.188-0.801-0.566-2.403-0.747-3.213C262.816,157.607,260.604,158.246,258.426,159.011z
			 M103.562,159.371c-2.043,10.089-2.358,20.43-2.277,30.689c11.214,2.143,22.608,3.16,33.903,4.807
			c-0.189-10.432,0.387-20.844,0.945-31.257C125.198,162.98,114.389,160.974,103.562,159.371z M226.367,167.345
			c7.641,2.187,15.219,4.563,22.824,6.876c6.381-4.824,13.941-8.334,22.041-8.613c-5.229-2.332-10.971-3.114-16.596-3.853
			C244.988,160.82,234.656,161.954,226.367,167.345z M139.913,164.078c-0.639,10.206-1.17,20.42-0.891,30.646
			c12.708,1.718,25.578,2.007,38.394,2.007c0.027-10.233,0.117-20.457-0.018-30.69C164.87,166.049,152.387,165.014,139.913,164.078z
			 M181.277,166.193c-0.125,10.359-0.135,20.727,0.036,31.086c6.183,0.226,12.303-0.855,18.486-0.594
			c4.716-13.05,12.682-25.542,24.993-32.544C210.338,165.626,195.812,166.409,181.277,166.193z M251.289,176.615
			c2.654,6.102,5.408,12.168,8.359,18.135c2.674-1.143,5.5-2.061,8.451-1.961c1.143-0.199,3.15,0.432,3.393-1.261
			c1.963-7.29,3.484-14.706,5.328-22.032C267.758,167.399,258.587,171.485,251.289,176.615z M202.104,201.059
			c8.316,2.071,16.586,4.42,25.029,5.896c3.879-11.322,10.205-21.889,18.9-30.169c-7.85-2.385-15.644-5.148-23.607-7.02
			C211.994,177.11,205.496,188.99,202.104,201.059z M280.123,170.054c-1.871,7.65-3.986,15.264-5.408,23.004
			c2.952,2.727,6.102,5.309,8.28,8.748c4.932-4.158,9.621-8.596,14.553-12.762C294.039,181.097,288.432,173.384,280.123,170.054z
			 M230.346,208.098c4.85,1.18,9.656,2.645,14.615,3.258c2.35-6.085,6.544-11.17,11.602-15.211
			c-2.719-5.741-5.383-11.502-8.082-17.252C240.012,186.849,233.963,197.099,230.346,208.098z M89.369,192.636
			c-0.036,8.1,1.035,16.19,1.197,24.309c6.066,2.394,12.312,4.292,18.63,5.903c0.072-2.564,0.099-5.139,0.072-7.703
			c-0.027-6.697,0.063-13.393-0.09-20.088c-6.318-0.64-12.474-2.268-18.738-3.295l-0.522-0.945
			C89.783,191.268,89.504,192.186,89.369,192.636z M284.336,205.469c1.935,6.525,2.494,13.293,2.961,20.043
			c4.302-2.178,8.677-4.221,13.041-6.281c0.379-8.893,0.369-17.973-1.521-26.722C293.939,196.784,289.098,201.076,284.336,205.469z
			 M113.075,195.686c0.099,9.307-0.36,18.631,0.261,27.919c11.331,2.799,22.958,3.906,34.497,5.372
			c0.099-9.828,0.099-19.656,0-29.484C136.178,199.195,124.577,197.576,113.075,195.686z M257.768,199.826
			c4.059,0.351,8.164,0.145,12.195,0.838c3.07,0.432,6.094,1.259,9.207,1.439c-1.664-2.152-3.547-4.312-6.137-5.337
			C267.893,194.436,262.123,196.92,257.768,199.826z M151.631,200.124c0.018,9.603,0.054,19.206-0.018,28.809
			c14.103,1.206,28.287,1.007,42.426,0.63c0.945-9.648,1.773-19.368,4.527-28.711c-11.619,0.172-23.256,0.307-34.875-0.053
			C159.686,200.303,155.663,200.205,151.631,200.124z M245.861,219.076c4.176,0.262,8.334,0.784,12.52,0.865
			c8.658,0.908,17.217,2.844,25.415,5.77c-0.009-6.499-0.72-13.059-2.744-19.252c-8.821-2.709-18.118-3.429-27.307-3.465
			C249.965,207.711,247.445,213.264,245.861,219.076z M201.131,204.381c-2.223,8.531-3.041,17.334-3.617,26.108
			c8.334,2.376,16.722,4.562,25.082,6.849c-0.162-9.117,0.938-18.189,3.285-26.99C217.619,208.403,209.393,206.314,201.131,204.381z
			 M229.229,211.48c-2.431,8.389-3.564,17.109-3.195,25.85c4.843-0.1,9.684-0.244,14.526-0.379
			c-0.027-7.488,1.079-14.939,3.069-22.149C238.814,213.748,234.07,212.372,229.229,211.48z M91.196,221.381
			c-0.162,6.741,0.774,13.428,1.197,20.143c1.755,3.725,5.661,5.625,8.938,7.793c0.053-8.297-0.036-16.604-0.289-24.902
			C97.73,223.514,94.454,222.479,91.196,221.381z M245.223,222.65c-1.639,8.055-1.278,16.316-0.928,24.48
			c4.563-0.262,9.145-0.324,13.68-0.928c0-7.748,0.189-15.498-0.089-23.247C253.664,222.785,249.443,222.686,245.223,222.65z
			 M287.279,229.104c-1.125,7.596-0.746,15.309-1.439,22.941c4.725-1.963,9.27-4.303,13.896-6.49
			c0.468-7.541,0.747-15.11,0.54-22.671C295.955,224.98,291.645,227.105,287.279,229.104z M261.404,246.762
			c7.272,0.027,14.266,2.223,21.194,4.158c0.307-7.209,0.675-14.409,1.116-21.609c-7.154-2.89-14.742-4.393-22.293-5.832
			C261.305,231.236,261.359,239.003,261.404,246.762z M105.344,225.863c0.027,8.496,0.108,16.992,0.27,25.488
			c8.406,2.826,17.136,4.616,25.938,5.669c0.054-8.72-0.09-17.44,0.072-26.162C122.786,229.616,114.029,227.889,105.344,225.863z
			 M135.152,231.344c0.225,8.748,0.118,17.505,0.171,26.254c13.725,1.439,27.513,2.24,41.337,2.195c0-1.143,0-2.276,0.009-3.41
			c0-7.606,0.009-15.201-0.009-22.807c-6.732-0.071-13.473,0.018-20.205-0.359c-4.707-0.684-9.468-0.693-14.211-0.883
			C139.949,231.605,137.528,231.533,135.152,231.344z M180.512,233.566c-0.018,8.703-0.009,17.416-0.009,26.119
			c5.085,0.018,10.171,0.026,15.245,0.009c-1.096-8.739-1.789-17.55-1.673-26.36C189.558,233.459,185.03,233.514,180.512,233.566z
			 M197.522,234.008c-0.253,8.866,0.468,17.722,1.71,26.487c7.587,3.069,15.246,6.229,23.382,7.551
			c0.062-9.126-0.072-18.251,0.009-27.387C214.271,238.374,205.982,235.854,197.522,234.008z M226.08,240.83
			c-0.091,9.081,0.152,18.181,0.899,27.234c4.959-1.369,9.819-3.078,14.787-4.4c-0.181-8.002-0.64-15.984-1.144-23.969
			C235.816,240.497,230.949,240.686,226.08,240.83z"/>
	</g>
</g>
<g>
	<path fill="#F5FDFD" d="M135.818,102.761c11.061-5.382,23.112-8.46,35.333-9.585c-5.391,3.915-10.791,8.019-14.714,13.491
		C149.499,105.831,142.532,104.768,135.818,102.761z"/>
	<path fill="#F5FDFD" d="M160.91,107.207c4.671-5.418,10.431-10.422,17.262-12.762c6.66,2.728,12.402,7.515,17.164,12.879
		C183.887,108.701,172.358,108.206,160.91,107.207z"/>
	<path fill="#F5FDFD" d="M106.928,125.342c6.732-7.821,14.634-14.805,23.751-19.683c5.697,0.882,11.259,2.727,16.983,3.636
		c-4.68,6.714-8.676,13.959-11.143,21.798C126.539,129.914,116.621,127.979,106.928,125.342z"/>
	<path fill="#F5FDFD" d="M211.859,109.169c4.869-0.765,9.611-2.448,14.526-2.826c8.513,5.112,16.532,11.439,22.509,19.449
		c-8.586,1.89-17.218,3.582-25.893,4.978C220.498,123.002,216.539,115.82,211.859,109.169z"/>
	<path fill="#F5FDFD" d="M151.865,110.195c8.262,0.216,16.524,1.729,24.831,1.71c-0.081,7.326,0.018,14.643-0.036,21.96
		c-12.132-0.018-24.264-0.531-36.27-2.25C142.974,123.902,146.906,116.639,151.865,110.195z"/>
	<path fill="#F5FDFD" d="M180.494,111.869c9.045-0.036,18.063-0.936,27.036-2.007c4.905,6.525,9.144,13.68,11.538,21.537
		c-12.807,1.485-25.659,2.601-38.565,2.439C180.477,126.512,180.521,119.195,180.494,111.869z"/>
	<path fill="#F5FDFD" d="M238.761,131.822c4.257-1.044,8.55-1.917,12.806-2.952c5.464,7.443,9.828,15.732,12.484,24.597
		c-5.221,1.476-10.559,2.439-15.859,3.51C246.311,148.184,243.116,139.679,238.761,131.822z"/>
	<path fill="#F5FDFD" d="M207.719,136.358c9.127-0.882,18.198-2.277,27.226-3.861c4.203,7.947,7.622,16.353,9.485,25.182
		c-11.366,1.827-22.807,3.276-34.299,3.978C210.465,153.17,210.122,144.566,207.719,136.358z"/>
	<path fill="#F5FDFD" d="M118.826,157.832c1.026-8.604,3.465-17.244,8.676-24.291c8.091,1.377,16.228,2.52,24.417,3.033
		c-1.8,7.992-2.844,16.146-2.97,24.345C138.852,160.694,128.798,159.407,118.826,157.832z"/>
	<path fill="#F5FDFD" d="M155.969,137.042c10.971,0.252,21.96,1.485,32.931,0.423c4.994-0.225,9.998-0.459,15.003-0.549
		c2.573,8.091,2.79,16.695,2.349,25.11c-17.874,0.729-35.793,0.801-53.631-0.549C153.215,153.278,153.467,144.944,155.969,137.042z"
		/>
	<path fill="#F5FDFD" d="M90.953,156.752c2.925,0.558,5.823,1.269,8.739,1.872c-1.764,10.188-2.385,20.529-2.232,30.853
		c-2.826-0.666-5.661-1.35-8.486-2.025C88.361,177.2,88.379,166.77,90.953,156.752z"/>
	<path fill="#F5FDFD" d="M103.562,159.371c10.827,1.603,21.636,3.609,32.571,4.239c-0.558,10.413-1.134,20.825-0.945,31.257
		c-11.295-1.646-22.689-2.664-33.903-4.807C101.204,179.801,101.52,169.46,103.562,159.371z"/>
	<path fill="#F5FDFD" d="M226.367,167.345c8.289-5.391,18.621-6.525,28.27-5.589c5.625,0.738,11.366,1.521,16.596,3.853
		c-8.1,0.279-15.66,3.789-22.041,8.613C241.586,171.908,234.008,169.532,226.367,167.345z"/>
	<path fill="#F5FDFD" d="M181.277,166.193c14.536,0.216,29.061-0.567,43.515-2.052c-12.312,7.001-20.277,19.494-24.993,32.544
		c-6.183-0.262-12.303,0.819-18.486,0.594C181.142,186.92,181.151,176.552,181.277,166.193z"/>
	<path fill="#F5FDFD" d="M251.289,176.615c7.298-5.13,16.469-9.216,25.531-7.119c-1.844,7.326-3.365,14.742-5.328,22.032
		c-0.242,1.692-2.25,1.062-3.393,1.261c-2.951-0.1-5.777,0.818-8.451,1.961C256.697,188.783,253.943,182.717,251.289,176.615z"/>
	<path fill="#F5FDFD" d="M202.104,201.059c3.393-12.068,9.891-23.948,20.322-31.292c7.964,1.872,15.758,4.635,23.607,7.02
		c-8.695,8.28-15.021,18.847-18.9,30.169C218.689,205.479,210.42,203.13,202.104,201.059z"/>
	<path fill="#F5FDFD" d="M230.346,208.098c3.617-10.999,9.666-21.249,18.135-29.206c2.699,5.75,5.363,11.511,8.082,17.252
		c-5.058,4.041-9.252,9.126-11.602,15.211C240.002,210.742,235.195,209.277,230.346,208.098z"/>
	<path fill="#F5FDFD" d="M96.497,201.194c-2.664-2.683-4.455-6.049-6.057-9.433c6.264,1.027,12.42,2.655,18.738,3.295
		c0.153,6.695,0.063,13.393,0.09,20.088C105.209,210.32,100.889,205.721,96.497,201.194z"/>
	<path fill="#F5FDFD" d="M284.336,205.469c4.762-4.393,9.604-8.685,14.48-12.96c1.891,8.749,1.9,17.829,1.521,26.722
		c-4.365,2.061-8.739,4.104-13.041,6.281C286.83,218.762,286.271,211.994,284.336,205.469z"/>
	<path fill="#F5FDFD" d="M113.075,195.686c11.502,1.891,23.103,3.51,34.758,3.807c0.099,9.828,0.099,19.656,0,29.484
		c-11.539-1.466-23.167-2.573-34.497-5.372C112.715,214.316,113.174,204.992,113.075,195.686z"/>
	<path fill="#F5FDFD" d="M151.631,200.124c4.032,0.081,8.055,0.179,12.061,0.675c11.619,0.359,23.256,0.225,34.875,0.053
		c-2.754,9.343-3.582,19.062-4.527,28.711c-14.139,0.377-28.323,0.576-42.426-0.63C151.685,219.33,151.649,209.727,151.631,200.124z
		"/>
	<path fill="#F5FDFD" d="M201.131,204.381c8.262,1.934,16.488,4.022,24.75,5.967c-2.348,8.801-3.447,17.873-3.285,26.99
		c-8.36-2.285-16.748-4.473-25.082-6.849C198.09,221.715,198.908,212.912,201.131,204.381z"/>
	<path fill="#F5FDFD" d="M229.229,211.48c4.841,0.892,9.585,2.268,14.4,3.321c-1.99,7.21-3.097,14.661-3.069,22.149
		c-4.843,0.135-9.684,0.279-14.526,0.379C225.665,228.59,226.799,219.869,229.229,211.48z"/>
	<path fill="#F5FDFD" d="M287.279,229.104c4.365-1.998,8.676-4.123,12.996-6.22c0.207,7.561-0.072,15.13-0.54,22.671
		c-4.626,2.188-9.171,4.527-13.896,6.49C286.533,244.412,286.154,236.699,287.279,229.104z"/>
	<path fill="#F5FDFD" d="M136.052,232.541c2.016-0.521,4.131-0.189,6.192-0.207c4.743,0.189,9.504,0.199,14.211,0.883
		c6.732,0.377,13.473,0.288,20.205,0.359c0.018,7.605,0.009,15.2,0.009,22.807c-13.068-5.113-26.253-10.35-37.972-18.189
		C137.285,236.771,135.026,234.656,136.052,232.541z"/>
	<path fill="#F5FDFD" d="M180.512,233.566c4.518-0.053,9.045-0.107,13.563-0.232c-0.116,8.811,0.577,17.621,1.673,26.36
		c-5.074,0.018-10.16,0.009-15.245-0.009C180.503,250.982,180.494,242.27,180.512,233.566z"/>
	<path fill="#F5FDFD" d="M226.08,240.83c4.869-0.145,9.736-0.333,14.544-1.135c0.503,7.984,0.962,15.967,1.143,23.969
		c-4.968,1.322-9.828,3.031-14.787,4.4C226.232,259.011,225.989,249.911,226.08,240.83z"/>
</g>
<g>
	<path fill="#81AAFB" d="M184.508,92.942c12.556,1.206,25.182,4.096,36.279,10.27c-6.912,1.827-14.022,2.853-21.123,3.546
		C195.659,101.114,190.17,96.812,184.508,92.942z"/>
	<path fill="#81AAFB" d="M103.967,128.627c6.453,1.044,12.726,2.934,19.161,4.095c-4.635,7.299-6.957,15.714-8.136,24.21
		c-7.785-0.405-15.381-2.511-23.031-3.924C94.374,144.179,98.837,136.133,103.967,128.627z"/>
	<path fill="#81AAFB" d="M139.913,164.078c12.474,0.936,24.957,1.971,37.485,1.962c0.135,10.232,0.045,20.457,0.018,30.69
		c-12.816,0-25.686-0.289-38.394-2.008C138.743,184.498,139.274,174.284,139.913,164.078z"/>
	<path fill="#81AAFB" d="M280.123,170.054c8.309,3.33,13.916,11.043,17.425,18.991c-4.932,4.166-9.621,8.604-14.553,12.762
		c-2.179-3.439-5.328-6.021-8.28-8.748C276.137,185.318,278.252,177.704,280.123,170.054z"/>
	<path fill="#81AAFB" d="M91.196,221.381c3.258,1.099,6.534,2.133,9.846,3.033c0.252,8.298,0.342,16.605,0.289,24.902
		c-3.276-2.168-7.182-4.068-8.938-7.793C91.97,234.809,91.034,228.122,91.196,221.381z"/>
	<path fill="#81AAFB" d="M197.522,234.008c8.46,1.846,16.748,4.366,25.102,6.651c-0.082,9.136,0.053,18.261-0.01,27.387
		c-8.136-1.322-15.795-4.481-23.382-7.551C197.99,251.729,197.27,242.874,197.522,234.008z"/>
</g>
</svg>
