<?xml version="1.0" standalone="no"?>
<!DOCTYPE svg PUBLIC "-//W3C//DTD SVG 20010904//EN"
 "http://www.w3.org/TR/2001/REC-SVG-20010904/DTD/svg10.dtd">
<svg version="1.0" xmlns="http://www.w3.org/2000/svg"
 width="256.000000pt" height="256.000000pt" viewBox="0 0 256.000000 256.000000"
 preserveAspectRatio="xMidYMid meet">

<g transform="translate(0.000000,256.000000) scale(0.100000,-0.100000)"
fill="#000000" stroke="none">
<path d="M91 2223 l-61 -188 34 -200 34 -200 -21 -17 -22 -17 34 -29 34 -28
-28 -22 -28 -23 36 -37 36 -37 -25 -18 -24 -18 52 -64 c28 -36 57 -65 63 -65
7 0 121 33 253 74 215 65 247 78 301 118 90 67 311 251 311 258 0 6 -649 501
-881 673 l-38 28 -60 -188z"/>
<path d="M1933 2057 c-437 -330 -452 -342 -435 -360 16 -18 214 -182 309 -255
33 -26 94 -49 286 -107 134 -41 249 -75 255 -75 6 0 34 28 61 62 l51 62 -23
24 -22 24 38 33 38 33 -27 21 -28 22 31 31 31 31 -21 17 -20 17 33 203 33 203
-58 178 c-33 99 -64 179 -70 179 -5 -1 -213 -155 -462 -343z"/>
<path d="M860 1019 c-61 -29 -81 -42 -70 -48 22 -12 240 -64 245 -59 9 8 -64
148 -77 147 -7 0 -51 -18 -98 -40z"/>
<path d="M1547 985 c-20 -41 -32 -75 -26 -75 13 0 253 60 257 65 5 4 -168 85
-182 85 -6 0 -28 -34 -49 -75z"/>
<path d="M1119 595 c-23 -12 -27 -23 -33 -82 -4 -37 -10 -88 -13 -113 -5 -37
-3 -43 8 -32 18 17 380 17 397 0 15 -15 15 -5 1 116 -12 92 -12 94 -46 110
-45 21 -275 22 -314 1z"/>
</g>
</svg>
