<?xml version="1.0" encoding="utf-8"?>
<!-- Generator: Adobe Illustrator 16.0.0, SVG Export Plug-In . SVG Version: 6.00 Build 0)  -->
<!DOCTYPE svg PUBLIC "-//W3C//DTD SVG 1.1//EN" "http://www.w3.org/Graphics/SVG/1.1/DTD/svg11.dtd">
<svg version="1.1" id="Layer_1" xmlns="http://www.w3.org/2000/svg" xmlns:xlink="http://www.w3.org/1999/xlink" x="0px" y="0px"
	 width="600px" height="600px" viewBox="0 0 600 600" enable-background="new 0 0 600 600" xml:space="preserve">
<g opacity="0.1">
	<path fill="#FFFFFF" d="M213.867-46.386c23.067-5.62,47.643-5.238,70.618,0.792c25.467,6.845,48.689,24.513,58.743,49.36
		c8.921,22.911,9.419,48.95,2.249,72.416c-7.643,24.114-27.865,42.961-51.574,51.124c-20.505,7.92-42.833,7.654-64.489,7.47
		c-0.046-5.793-0.046-11.592,0-17.39c27.38,0.635,57.859,0.104,79.989-18.442c19.627-15.303,25.93-41.938,23.253-65.727
		c-1.515-18.506-9.944-36.792-24.958-48.157c-20.102-15.927-47.1-19.425-71.977-17.546c-20.818,1.566-41.931,9.389-56.176,25.131
		c-12.753,13.591-18.223,32.646-18.095,50.996c-0.076,43.175,0.075,86.366-0.046,129.535c-74.63,0.075-149.237-0.076-223.896,0.075
		c-0.041-5.839-0.041-11.603,0-17.43c68.913-0.029,137.802,0.029,206.697-0.029c0.827-42.533-1.636-85.239,1.543-127.708
		c0.752-5.821,1.908-11.597,3.7-17.188c1.307-4.006,2.914-7.885,4.81-11.614c3.214-6.197,7.117-11.979,11.678-17.24
		c3.423-4.093,7.203-7.891,11.4-11.146C187.938-37.703,200.818-42.768,213.867-46.386z"/>
	<path fill="#FFFFFF" d="M190.134-1.975c16.535-16.488,41.29-20.506,63.738-19.414c20.201,0.706,41.667,7.244,54.952,23.304
		c12.672,14.968,14.893,35.971,12.164,54.743c-2.383,17.193-13.32,33.069-29.172,40.492c-19.16,10.019-41.412,9.262-62.397,9.077
		c-0.052-5.781-0.052-11.574-0.006-17.344c20.032-0.063,42.157,1.694,59.472-10.314c15.829-11.037,18.408-32.837,14.205-50.326
		c-2.799-12.667-12.616-22.934-24.56-27.46c-13.441-5.117-28.207-5.597-42.371-4.417c-13.39,1.214-27.265,6.083-36.289,16.5
		c-7.1,8.533-10.175,19.876-10.013,30.838c-0.058,52.742,0,105.421-0.023,158.134c-84.129,0-168.21,0.058-252.34-0.046
		c-0.035-5.735-0.035-11.482,0.046-17.251c78.331-0.109,156.718,0.022,235.071-0.07c-0.041-46.915-0.063-93.864,0.029-140.785
		C172.363,27.024,177.676,9.587,190.134-1.975z"/>
	<path fill="#FFFFFF" d="M216.323,13.778c12.893-7.284,28.34-7.417,42.712-6.238c12.852,1.249,27.386,6.804,31.877,20.148
		c5.296,14.886,3.48,35.601-11.701,44.105c-15.482,7.429-33.195,5.348-49.8,5.689c-0.046-5.799-0.046-11.569,0-17.355
		c11.54-0.405,23.166,0.786,34.636-1.046c17.026-1.613,16.57-31.317,0.179-33.565c-12.054-1.706-24.958-2.261-36.624,1.879
		c-6.544,2.503-9.915,9.464-9.383,16.199c-0.058,62.322,0,124.626-0.017,186.891c-93.598,0.041-187.162,0.029-280.743,0
		c0-5.752,0-11.54,0.035-17.292c87.789-0.226,175.565,0.104,263.313-0.15c0.127-56.471-0.046-112.965,0.127-169.443
		C200.888,31.966,205.923,19.763,216.323,13.778z"/>
</g>
<g opacity="0.1">
	<path fill="#FFFFFF" d="M-42.509-20.671C-31.854-35.558-14.51-46.236,4.07-46.403c69.947-0.041,139.866-0.058,209.796,0.017
		c-13.06,3.62-25.929,8.683-36.538,17.281C120.47-29.21,63.624-29.129,6.73-29.129c-23.402-0.775-44.291,21.263-42.926,44.521
		c-0.549,15.21,9.406,29.213,23.137,35.15c24.021,11.059,51.198,9.875,76.711,14.638c4.532,1.046,12.407,2.995,10.152,9.412
		c-1.059,4.625-7.151,2.186-10.412,2.862c-60.795-0.081-121.591-0.035-182.381-0.035c0.023,51.025,0.023,102.045,0,153.065
		c-5.787,0.029-11.603,0.029-17.419,0.029c-0.028-56.795-0.028-113.578,0-170.362c35.439,0.041,70.85-0.242,106.277,0.156
		C-56.343,42.957-60.575,3.968-42.509-20.671z"/>
	<path fill="#FFFFFF" d="M-20.367,29.805C-33.12,11.253-17.881-16.647,4.083-17.769c53.962-0.416,107.913-0.058,161.858-0.191
		c-4.567,5.261-8.469,11.042-11.678,17.24C105.053-0.662,55.836-0.864,6.616-0.616C-3.265-0.696-11.653,11.727-5.93,20.375
		c4.608,6.366,12.84,8.499,20.072,10.32c19.934,3.856,40.082,6.48,60.033,10.284c13.262,3.458,27.357,13.401,27.808,28.34
		c2.272,19.043-14.511,37.243-33.595,36.867c-53.054,0.156-106.144-0.075-159.204,0.099c-0.33,41.411,0.307,82.863-0.33,124.256
		c-5.613-0.058-11.221-0.058-16.846-0.058c-0.018-47.21-0.058-94.431,0-141.624c58.766,0,117.475,0.023,176.241-0.023
		c12.904,0.798,22.686-17.096,12.5-26.379c-13.263-10.343-31.191-9.65-46.928-13.02C15.16,45.685-7.712,46.68-20.367,29.805z"/>
	<path fill="#FFFFFF" d="M7.361,13.554c1.78-3.666,6.371-2.254,9.579-2.637c44.151,0.047,88.337,0.047,132.506-0.023
		c-1.798,5.591-2.954,11.366-3.712,17.188c-12.111,0.023-24.2,0-36.301,0c13.863,11.152,22.171,28.681,20.957,46.557
		c-0.261,31.277-27.981,59.627-59.414,59.975c-44.458,0.277-88.944,0.017-133.42,0.11c-0.017,7.036,0,14.042-0.063,21.102
		c-0.035,5.827-0.035,11.591,0,17.431c0.063,3.775,0.063,7.544,0.046,11.285c-0.081,5.781-0.081,11.516-0.046,17.251
		c0.046,3.815,0.063,7.62,0,11.406c-0.035,5.752-0.035,11.534-0.035,17.286c-5.659,0.029-11.32,0.029-16.957,0
		c-0.017-37.677-0.063-75.371,0-113.052c49.354-0.07,98.686,0.064,148.07-0.046c24.009,0.555,45.377-21.506,44.787-45.383
		c0.469-13.603-6.717-27.397-18.916-33.779C69.046,24.064,38.758,27.487,11.28,20.942C8.256,19.937,5.782,16.792,7.361,13.554z"/>
</g>
</svg>
