<?xml version="1.0" encoding="UTF-8" ?>
<!DOCTYPE svg PUBLIC "-//W3C//DTD SVG 1.1//EN" "http://www.w3.org/Graphics/SVG/1.1/DTD/svg11.dtd">
<svg width="100pt" height="85pt" viewBox="0 0 100 85" version="1.1" xmlns="http://www.w3.org/2000/svg">
<g id="#34a853ff">
<path fill="#34a853" opacity="1.00" d=" M 14.03 0.00 L 85.02 0.00 C 92.88 0.30 99.48 7.19 100.00 14.95 L 100.00 27.99 C 99.29 20.01 92.17 13.11 84.05 13.28 C 61.33 13.27 38.60 13.28 15.88 13.28 C 8.12 13.12 0.95 19.42 0.00 27.10 L 0.00 14.33 C 0.50 6.99 6.80 0.85 14.03 0.00 Z" />
</g>
<g id="#fbbc04ff">
<path fill="#fbbc04" opacity="1.00" d=" M 0.00 27.10 C 0.95 19.42 8.12 13.12 15.88 13.28 C 38.60 13.28 61.33 13.27 84.05 13.28 C 92.17 13.11 99.29 20.01 100.00 27.99 L 100.00 34.91 C 99.66 35.15 98.99 35.63 98.65 35.87 C 95.67 30.13 89.58 26.26 83.05 26.50 C 60.69 26.52 38.32 26.44 15.97 26.54 C 9.68 26.50 4.12 30.45 1.16 35.84 C 0.87 35.78 0.29 35.67 0.00 35.62 L 0.00 27.10 Z" />
</g>
<g id="#ea4335ff">
<path fill="#ea4335" opacity="1.00" d=" M 1.16 35.84 C 4.12 30.45 9.68 26.50 15.97 26.54 C 38.32 26.44 60.69 26.52 83.05 26.50 C 89.58 26.26 95.67 30.13 98.65 35.87 C 90.41 41.19 83.33 49.41 73.11 50.71 C 69.18 51.49 65.20 50.70 61.37 49.82 C 41.30 45.13 21.22 40.52 1.16 35.84 Z" />
</g>
<g id="#4285f4ff">
<path fill="#4285f4" opacity="1.00" d=" M 98.65 35.87 C 98.99 35.63 99.66 35.15 100.00 34.91 L 100.00 69.99 C 99.54 77.99 92.55 84.53 84.66 85.00 L 15.28 85.00 C 7.67 84.55 0.50 78.46 0.00 70.65 L 0.00 35.62 C 0.29 35.67 0.87 35.78 1.16 35.84 C 21.22 40.52 41.30 45.13 61.37 49.82 C 65.20 50.70 69.18 51.49 73.11 50.71 C 83.33 49.41 90.41 41.19 98.65 35.87 Z" />
</g>
</svg>
