<?xml version="1.0" encoding="utf-8"?>
<!-- Generator: Adobe Illustrator 16.0.0, SVG Export Plug-In . SVG Version: 6.00 Build 0)  -->
<!DOCTYPE svg PUBLIC "-//W3C//DTD SVG 1.1//EN" "http://www.w3.org/Graphics/SVG/1.1/DTD/svg11.dtd">
<svg version="1.1" id="Layer_1" xmlns="http://www.w3.org/2000/svg" xmlns:xlink="http://www.w3.org/1999/xlink" x="0px" y="0px"
	 width="118px" height="118px" viewBox="0 0 118 118" enable-background="new 0 0 118 118" xml:space="preserve">
<path opacity="0.1" fill="#E44979" enable-background="new    " d="M38.931,50.818L38.931,50.818l-0.003,0.001
	c-1.227,0.272-2.177,1.334-2.177,2.647V65.2c0,1.567,1.327,2.717,2.806,2.717s2.806-1.147,2.806-2.717v-0.494l0.92,1.735h0.001
	c0.502,0.943,1.488,1.476,2.496,1.476c0.211,0,0.421-0.022,0.627-0.067l0.001-0.002c1.228-0.271,2.177-1.334,2.177-2.646V53.467
	c0-1.568-1.327-2.717-2.806-2.717s-2.806,1.148-2.806,2.717v0.495l-0.92-1.736v-0.001C41.448,51.089,40.153,50.551,38.931,50.818z"
	/>
<path opacity="0.8" fill="#EF7F22" enable-background="new    " d="M45.78,69.168c-1.222,0-2.353-0.527-3.113-1.423
	c-0.745,0.869-1.862,1.423-3.11,1.423c-2.236,0-4.056-1.777-4.056-3.967V53.467c0-1.842,1.266-3.416,3.087-3.852l0.076-0.018
	c1.489-0.326,3.058,0.214,4.006,1.326c0.744-0.869,1.862-1.422,3.109-1.422c2.236,0,4.056,1.779,4.056,3.967v11.734
	c0,1.651-1.02,3.091-2.546,3.683l-0.029,0.059l-0.587,0.131C46.381,69.136,46.081,69.168,45.78,69.168z M43.467,64.121l0.92,1.734
	c0.31,0.584,1.009,0.906,1.688,0.785l0.062-0.015c0.705-0.155,1.197-0.742,1.197-1.426V53.468c0-0.906-0.808-1.467-1.556-1.467
	s-1.556,0.561-1.556,1.467l0.007,5.867l-2.361-4.787l-0.92-1.736c-0.316-0.594-1.034-0.918-1.729-0.777l-0.021,0.005
	C38.493,52.196,38,52.783,38,53.467v11.734c0,0.904,0.808,1.467,1.556,1.467s1.556-0.562,1.556-1.467l0.012-5.043L43.467,64.121z"/>
<path opacity="0.1" fill="#E44979" enable-background="new    " d="M63.113,56.184c1.479,0,2.806-1.149,2.806-2.717
	c0-1.568-1.323-2.717-2.806-2.717H56.89c-1.479,0-2.806,1.148-2.806,2.717v11.734c0,1.568,1.327,2.717,2.806,2.717
	s2.805-1.148,2.805-2.717v-3.15h1.861c1.479,0,2.807-1.148,2.807-2.717c0-1.568-1.324-2.717-2.807-2.717h-1.861v-0.434
	L63.113,56.184L63.113,56.184z"/>
<path opacity="0.8" fill="#EF7F22" enable-background="new    " d="M56.89,69.168c-2.237,0-4.056-1.779-4.056-3.967V53.467
	c0-2.188,1.819-3.967,4.056-3.967h6.223c2.236,0,4.056,1.779,4.056,3.967c0,1.573-0.94,2.936-2.302,3.577
	c0.47,0.647,0.746,1.438,0.746,2.291c0,2.188-1.819,3.967-4.057,3.967h-0.611v1.9C60.945,67.389,59.126,69.168,56.89,69.168z
	 M56.89,52c-0.749,0-1.556,0.561-1.556,1.467v11.734c0,0.906,0.808,1.467,1.556,1.467s1.555-0.561,1.555-1.467v-4.4h3.112
	c0.748,0,1.557-0.561,1.557-1.467c0-0.906-0.809-1.467-1.557-1.467h-3.112v-2.935l4.668,0.001c0.748,0,1.556-0.561,1.556-1.467
	c0-0.906-0.808-1.467-1.556-1.467L56.89,52L56.89,52z"/>
<path opacity="0.1" fill="#E44979" enable-background="new    " d="M79.337,50.75h-5.334c-1.538,0-2.583,1.333-2.583,2.717
	c0,1.384,1.045,2.717,2.583,2.717h0.083v9.018c0,1.385,1.047,2.717,2.584,2.717c1.538,0,2.584-1.332,2.584-2.717v-9.018h0.083
	c1.538,0,2.583-1.333,2.583-2.717C81.92,52.083,80.875,50.75,79.337,50.75z"/>
<path opacity="0.8" fill="#EF7F22" enable-background="new    " d="M76.67,69.169c-2.113,0-3.834-1.778-3.834-3.967v-7.97
	c-1.564-0.525-2.666-2.015-2.666-3.765c0-2.188,1.721-3.967,3.833-3.967h5.334c2.113,0,3.833,1.779,3.833,3.967
	c0,1.767-1.121,3.267-2.666,3.779v7.956C80.504,67.391,78.784,69.169,76.67,69.169z M74.003,52c-0.823,0-1.333,0.761-1.333,1.467
	s0.51,1.467,1.333,1.467h1.25l0.083,1.25v9.018c0,0.705,0.51,1.467,1.334,1.467s1.334-0.762,1.334-1.467V54.934h1.25
	c0.906,0,1.416-0.762,1.416-1.467c0-0.705-0.51-1.467-1.333-1.467H74.003z"/>
<path opacity="0.1" fill="#E44979" enable-background="new    " d="M109.659,59c0,27.979-22.681,50.659-50.659,50.659
	C31.022,109.659,8.341,86.979,8.341,59C8.341,31.022,31.022,8.341,59,8.341C86.979,8.341,109.659,31.022,109.659,59z M59,116.686
	c31.857,0,57.686-25.826,57.686-57.686c0-31.859-25.828-57.685-57.686-57.685C27.142,1.315,1.315,27.142,1.315,59
	C1.315,90.857,27.142,116.686,59,116.686z"/>
<path opacity="0.8" fill="#EF7F22" enable-background="new    " d="M59,117.936C26.503,117.936,0.065,91.497,0.065,59
	S26.503,0.065,59,0.065S117.936,26.503,117.936,59S91.497,117.936,59,117.936z M59,2.565C27.882,2.565,2.565,27.882,2.565,59
	c0,31.119,25.317,56.436,56.435,56.436c31.119,0,56.436-25.315,56.436-56.436C115.436,27.882,90.119,2.565,59,2.565z M59,110.909
	C30.377,110.909,7.091,87.623,7.091,59S30.377,7.091,59,7.091S110.909,30.377,110.909,59S87.623,110.909,59,110.909z M59,9.591
	C31.756,9.591,9.591,31.756,9.591,59S31.756,108.409,59,108.409S108.409,86.244,108.409,59S86.244,9.591,59,9.591z"/>
<path opacity="0.1" fill="#E44979" enable-background="new    " d="M29.772,86.561L29.772,86.561l0.009,0.01
	c6.497,6.865,15.524,11.229,24.923,12.182c1.441,0.146,2.734-1.045,2.734-2.669c0-1.562-1.294-2.937-3.038-3.156
	c-7.98-1.021-15.571-4.907-20.99-10.891c-4.784-5.183-7.848-11.869-8.737-18.845c-0.222-1.739-1.597-3.032-3.155-3.032
	c-1.626,0-2.819,1.295-2.673,2.735C19.735,71.703,23.616,80.193,29.772,86.561z"/>
<path opacity="0.8" fill="#EF7F22" enable-background="new    " d="M54.942,100.014L54.942,100.014c-0.12,0-0.242-0.007-0.364-0.019
	C44.869,99.012,35.5,94.434,28.873,87.43c-6.341-6.56-10.344-15.229-11.271-24.408c-0.103-1.019,0.238-2.045,0.937-2.817
	c0.744-0.823,1.83-1.295,2.98-1.295c2.206,0,4.095,1.772,4.395,4.125c0.862,6.763,3.851,13.21,8.416,18.153
	c5.153,5.688,12.523,9.513,20.23,10.498c2.354,0.299,4.129,2.188,4.129,4.396c0,1.055-0.387,2.041-1.09,2.777
	C56.89,99.604,55.946,100.014,54.942,100.014z M21.518,61.408c-0.451,0-0.851,0.167-1.125,0.471
	c-0.229,0.253-0.337,0.569-0.304,0.891c0.871,8.625,4.629,16.766,10.582,22.922c6.239,6.595,15.039,10.894,24.16,11.815
	c0.355,0.035,0.699-0.1,0.958-0.37c0.258-0.271,0.399-0.646,0.399-1.055c0-0.938-0.854-1.777-1.945-1.916
	c-8.29-1.062-16.221-5.178-21.759-11.292c-4.907-5.313-8.124-12.251-9.051-19.524C23.294,62.261,22.453,61.408,21.518,61.408z"/>
<path opacity="0.1" fill="#E44979" enable-background="new    " d="M91.342,35.779l-0.004-0.004
	c-4.459-6.298-10.775-11.276-17.954-14.1l-0.007-0.002c-3.414-1.364-7.023-2.222-10.691-2.593c-1.449-0.146-2.748,1.048-2.748,2.669
	c0,1.55,1.289,2.921,3.022,3.142l-0.157,1.24l0.157-1.24c7.79,0.992,15.213,4.707,20.601,10.461
	c5.016,5.24,8.226,12.108,9.142,19.277l-1.239,0.159l1.239-0.159c0.223,1.737,1.597,3.028,3.149,3.028
	c1.625,0,2.816-1.295,2.668-2.742C97.82,48.055,95.346,41.384,91.342,35.779z"/>
<path opacity="0.8" fill="#EF7F22" enable-background="new    " d="M95.852,58.907c-1.801,0-3.391-1.184-4.074-2.899l-0.155,0.02
	l-0.149-1.164c-0.004-0.025-0.007-0.051-0.011-0.077h0.001h-0.001c-0.892-6.975-4.019-13.57-8.804-18.571
	c-5.186-5.537-12.232-9.115-19.855-10.085l0,0c-0.018-0.002-0.035-0.004-0.053-0.007l-1.188-0.15l0.021-0.157
	c-1.713-0.683-2.896-2.27-2.896-4.067c0-2.294,1.904-4.14,4.123-3.913c3.834,0.388,7.529,1.282,10.986,2.658l0.045,0.017
	c7.324,2.881,13.881,8.021,18.471,14.477l0.047,0.064c4.115,5.76,6.676,12.585,7.404,19.736c0.104,1.021-0.236,2.05-0.936,2.825
	C98.086,58.436,97.001,58.907,95.852,58.907z M93.941,54.469L93.941,54.469c0.139,1.087,0.979,1.938,1.91,1.938
	c0.448,0,0.848-0.167,1.121-0.47c0.229-0.253,0.336-0.571,0.303-0.895c-0.682-6.686-3.063-13.064-6.893-18.454l-0.066-0.091
	C86.016,30.42,79.859,25.579,72.98,22.86l-0.067-0.026c-3.253-1.299-6.736-2.144-10.354-2.51c-0.733-0.078-1.371,0.593-1.371,1.425
	c0,0.929,0.848,1.764,1.931,1.902l1.239,0.158l-0.004,0.021c7.724,1.258,14.828,5.017,20.119,10.667
	c4.859,5.078,8.133,11.693,9.287,18.735l0.021-0.002l0.154,1.216C93.939,54.454,93.939,54.461,93.941,54.469z"/>
</svg>
