<?xml version="1.0" encoding="utf-8"?>
<!-- Generator: Adobe Illustrator 16.0.0, SVG Export Plug-In . SVG Version: 6.00 Build 0)  -->
<!DOCTYPE svg PUBLIC "-//W3C//DTD SVG 1.1//EN" "http://www.w3.org/Graphics/SVG/1.1/DTD/svg11.dtd">
<svg version="1.1" id="Layer_1" xmlns="http://www.w3.org/2000/svg" xmlns:xlink="http://www.w3.org/1999/xlink" x="0px" y="0px"
	 width="468px" height="469px" viewBox="0 0 468 469" enable-background="new 0 0 468 469" xml:space="preserve">
<path opacity="0.8" fill="#EF7F22" enable-background="new    " d="M217.49,2.71c21.869-1.68,44-0.4,65.49,4.03
	c10.1,1.94,16.99,13.3,13.959,23.15c-2.189,9.34-12.432,15.62-21.76,13.49c-37.99-7.67-78.229-3.96-114.042,10.95
	c-35.09,14.41-65.7,39.36-87.16,70.62c-20.49,29.64-32.5,65.06-34.23,101.06c-2.14,40.711,8.87,81.98,30.96,116.24
	c2.37,3.87,5.35,7.37,7.43,11.42c3.34,6.63,2.14,15.15-2.78,20.689c-5.02,5.771-13.74,8.041-20.86,5.091
	c-4.17-1.45-7.23-4.853-9.63-8.421C21.45,337.83,6.81,298.46,3.05,257.98c-4.32-44.953,4.63-91.143,25.81-131.05
	c18.13-34.4,45.01-64.1,77.34-85.69C139.13,19.04,177.92,5.76,217.49,2.71 M217.54,12.74c-21.4,1.76-42.56,6.52-62.58,14.29
	C100.33,48.12,54.75,91.54,31.14,145.14c-16.15,36.16-22.17,76.7-17.71,116.02c4.11,36.51,17.39,71.93,38.25,102.17
	c2.03,2.84,3.91,6.47,7.68,7.21c5.17,1.33,10.69-3.13,10.65-8.431c0.33-3.289-1.97-5.891-3.67-8.432
	C36.48,310.95,23.85,256.63,31.8,205.11c5.86-39.3,23.48-76.72,49.99-106.3c22.82-25.77,52.24-45.62,84.63-57.25
	c35.04-12.63,73.52-15.36,110.03-8.1c4.7,1.41,9.87-1.75,10.96-6.47c1.199-4.59-2.1-9.58-6.71-10.48
	C259.98,12.21,238.63,11.05,217.54,12.74z"/>
<path opacity="0.8" fill="#EF7F22" enable-background="new    " d="M354.41,35.7c7.18-1.71,15.16,1.42,19.398,7.44
	c3.961,5.45,4.562,13.15,1.461,19.15c-2.852,6.19-9.439,10.34-16.229,10.46c-8.71,0.38-17.22-6.11-18.851-14.74
	C337.82,48.35,344.6,37.57,354.41,35.7 M356.359,45.5c-3.459,0.84-6.199,3.94-6.551,7.5c-0.709,4.8,3.319,9.68,8.211,9.77
	c4.5,0.34,8.778-3.29,9.17-7.79C368.109,49.16,362,43.86,356.359,45.5z"/>
<path opacity="0.8" fill="#EF7F22" enable-background="new    " d="M192.28,76.34c3.25-5.98,9.95-9.76,16.74-9.58
	c17.98-0.03,35.97,0,53.951-0.02c7.029-0.2,14,3.88,17.059,10.24c2.98,5.46,1.923,11.87,2.093,17.82
	c7.18,2.44,14.198,5.33,20.987,8.72c4.32-4.14,8.211-9.31,14.15-11.17c6.75-2.23,14.53-0.17,19.41,4.95
	c12.68,12.67,25.36,25.35,38.04,38.03c5.07,4.88,7.11,12.63,4.851,19.33c-1.729,6-7.181,9.59-11.211,13.97
	c3.371,6.88,6.36,13.95,8.75,21.23c4.312,0.09,8.643-0.25,12.933,0.29c7.08,1.2,13.107,6.97,14.71,13.96
	c0.58,2.59,0.52,5.26,0.54,7.9c-0.09,17.32,0.04,34.65-0.062,51.971c-0.067,8.369-6.64,16.021-14.79,17.649
	c-4.397,0.7-8.89,0.28-13.33,0.36c-2.357,7.22-5.289,14.25-8.72,21.02c5.08,5.12,11.55,10.211,12.05,18.01
	c1.062,7.4-3.31,14.053-8.699,18.65c-11.698,11.65-23.358,23.359-35.051,35.03c-4.88,5.067-12.619,7.12-19.318,4.87
	c-6.04-1.803-9.779-7.2-14.221-11.271c-6.801,3.38-13.811,6.33-21.021,8.72c-0.17,6.23,0.92,13.021-2.41,18.66
	c-3.25,5.973-9.95,9.74-16.729,9.562c-18,0.027-35.988,0-53.988,0.02c-7,0.19-13.92-3.88-17-10.188
	c-3.04-5.521-1.93-12.012-2.11-18.03c-7.22-2.47-14.32-5.33-21.14-8.771c-4.3,3.922-7.8,9.15-13.53,11.103
	c-6.82,2.59-14.92,0.55-19.91-4.69c-12.68-12.697-25.39-25.357-38.05-38.08c-4.93-4.709-7.04-12.1-5.06-18.67
	c1.61-6.35,7.14-10.39,11.42-14.92c-3.38-6.8-6.35-13.81-8.74-21.021c-5.93-0.171-12.32,0.909-17.8-1.979
	c-6.42-3.01-10.47-10.021-10.33-17.06c0-17.65,0.04-35.3-0.01-52.95c-0.68-8.96,5.62-17.77,14.45-19.68
	c4.52-0.82,9.14-0.35,13.7-0.43c2.44-7.22,5.26-14.32,8.83-21.07c-4-4.23-9.07-7.9-11.07-13.6c-2.6-6.8-0.57-14.9,4.66-19.9
	c12.68-12.66,25.33-25.36,38.03-38.01c4.73-4.97,12.14-7.11,18.75-5.12c6.3,1.59,10.33,7.08,14.83,11.34
	c6.75-3.46,13.82-6.23,20.97-8.75C190.02,88.61,189,81.91,192.28,76.34 M199.96,84.94c-0.26,5.78,0.01,11.57-0.09,17.36
	c-11.48,3.09-22.48,7.77-32.84,13.58c-4.22-4.07-8.19-8.4-12.5-12.37c-3.41-3.18-9.12-2.44-12.12,0.94
	c-12.67,12.66-25.32,25.35-38,37.99c-3.4,2.95-3.92,8.65-0.84,12.01c3.96,4.31,8.29,8.28,12.37,12.48
	c-5.81,10.39-10.47,21.42-13.6,32.91c-5.82,0.15-11.66-0.12-17.48,0.1c-4.67,0-8.3,4.52-8.09,9.03
	c-0.02,18.01-0.05,36.02,0.01,54.02c-0.27,4.51,3.49,8.91,8.08,8.939c5.82,0.25,11.66-0.039,17.48,0.078
	c3.19,11.461,7.67,22.57,13.64,32.86c-4.11,4.25-8.47,8.26-12.48,12.608c-3.12,3.399-2.46,9.092,0.92,12.08
	c12.85,12.83,25.68,25.699,38.55,38.521c3.15,3.22,8.88,3.17,11.99-0.09c4.12-3.932,8.03-8.08,12.11-12.04
	c10.3,5.92,21.35,10.47,32.8,13.6c0.1,5.853-0.18,11.71,0.09,17.55c0.09,4.61,4.47,8.312,8.98,8.131
	c18.01,0.029,36.031,0.051,54.041-0.01c4.592,0.369,8.939-3.561,9.062-8.141c0.261-5.84-0.028-11.689,0.103-17.53
	c11.447-3.17,22.51-7.688,32.83-13.579c4.248,4.109,8.237,8.489,12.6,12.469c3.41,3.062,8.97,2.531,11.97-0.84
	c12.83-12.857,25.71-25.68,38.521-38.56c3.369-3.149,3.182-8.92-0.041-12.103c-3.907-4.107-8.039-8-12-12.06
	c5.83-10.36,10.57-21.36,13.603-32.87c5.851-0.119,11.71,0.18,17.562-0.1c4.528-0.09,8.238-4.37,8.051-8.83
	c0.039-18.03,0.02-36.06,0.01-54.09c0.359-4.62-3.5-9.01-8.16-9.06c-5.811-0.21-11.641,0.08-17.449-0.11
	c-3.091-11.48-7.701-22.52-13.61-32.83c4.079-4.25,8.472-8.21,12.432-12.57c3.029-3.4,2.511-8.97-0.853-11.95
	c-12.85-12.84-25.68-25.71-38.549-38.53c-3.121-3.39-8.871-3.18-12.061-0.01c-4.102,3.89-7.971,8.01-12.02,11.96
	c-10.303-5.95-21.4-10.42-32.842-13.62c-0.109-5.79,0.182-11.58-0.102-17.36c-0.069-4.63-4.512-8.32-9.021-8.14
	c-18-0.02-36.01-0.05-54.01,0.02C204.41,76.41,200.07,80.36,199.96,84.94z"/>
<path opacity="0.8" fill="#EF7F22" enable-background="new    " d="M402.26,93.3c6.58-3.5,15.32-2.42,20.771,2.7
	c2.56,2.47,4.46,5.5,6.479,8.4c20.41,30.04,33.66,64.87,38.49,100.85v61.77c-4.96,37.57-19.19,73.9-41.31,104.683
	c-20.74,29.12-48.21,53.38-79.643,70.41c-27.239,14.77-57.5,23.777-88.3,26.89h-44.81c-8.36-0.88-16.73-1.93-24.94-3.79
	c-7.48-1.72-13.49-8.5-14.1-16.18c-0.95-7.87,3.71-16,11.02-19.103c3.99-1.938,8.57-1.8,12.82-0.96
	c33.03,6.36,67.698,4.15,99.59-6.62c38.68-12.829,72.949-38.238,96.818-71.22c27.989-38.29,41.229-86.979,36.409-134.17
	c-3.277-33.79-15.447-66.73-35.157-94.4c-2.633-3.65-4.592-7.97-4.422-12.56C391.93,103.1,396.04,96.34,402.26,93.3 M408.4,101.59
	c-5.763,1.42-8.4,9.08-4.771,13.77c14.03,19.63,24.71,41.68,31.18,64.94c14.553,51.04,8.263,107.63-17.317,154.15
	c-18.82,34.688-47.802,63.75-82.421,82.7c-41.062,22.697-90.041,30.567-136.149,21.987c-3.14-0.527-6.64-1.479-9.59,0.24
	c-4.29,2.28-5.93,8.32-3.18,12.391c2.41,4.109,7.67,4.199,11.83,5.029c47.451,8.103,97.57,0.82,140.332-21.45
	c32.729-16.737,61.078-41.818,82.038-72c23.54-33.738,37.263-74.18,39.32-115.248c2.87-50.842-12.358-102.492-42.37-143.629
	C415.32,101.78,411.59,100.58,408.4,101.59z"/>
<path opacity="0.8" fill="#EF7F22" enable-background="new    " d="M217.39,94.27c12.41-0.04,24.831-0.01,37.24-0.02
	c0.091,5.27-0.21,10.56,0.091,15.83c0.189,3.93,3.521,7.15,7.319,7.77c14.069,3.05,27.489,8.8,39.63,16.53
	c3.02,1.97,7.301,1.81,10-0.65c3.92-3.58,7.49-7.54,11.33-11.22c8.77,8.76,17.561,17.51,26.29,26.31
	c-3.63,3.84-7.649,7.32-11.09,11.33c-2.771,3-2.46,7.69-0.2,10.89c7.189,11.19,12.471,23.61,15.48,36.56
	c0.629,4.18,2.908,8.83,7.527,9.52c5.551,0.6,11.15,0.09,16.73,0.27c0.027,12.36,0.01,24.73,0.01,37.1
	c-5.182,0.109-10.37-0.16-15.54,0.09c-3.142,0.141-6.21,2.09-7.38,5.061c-0.91,2.319-1.34,4.799-1.971,7.209
	c-3.119,12.121-8.291,23.66-15.012,34.2c-2.188,3.12-2.33,7.79,0.41,10.642c3.62,3.881,7.54,7.479,11.23,11.311
	c-8.76,8.779-17.521,17.55-26.312,26.3c-3.829-3.659-7.351-7.647-11.341-11.14c-2.811-2.54-7.26-2.67-10.357-0.59
	c-11.562,7.318-24.262,12.959-37.643,15.949c-4.08,0.561-8.5,3.051-9.027,7.521c-0.48,5.55-0.041,11.13-0.201,16.7
	c-12.42,0.029-24.832,0-37.25,0.02c-0.14-5.59,0.32-11.197-0.19-16.76c-0.47-3.641-3.6-6.34-7.1-6.971
	c-13.8-3.061-27.09-8.449-38.98-16.119c-3.24-2.32-7.93-2.46-10.96,0.29c-4,3.46-7.49,7.47-11.32,11.12
	c-8.76-8.791-17.55-17.53-26.3-26.32c3.68-3.83,7.61-7.4,11.2-11.3c2.71-2.88,2.64-7.513,0.43-10.649
	c-7.6-11.921-13.18-25.141-16.16-38.961c-0.59-3.72-3.57-7.05-7.41-7.43c-5.43-0.42-10.88-0.021-16.31-0.17
	c-0.02-12.383,0-24.75-0.02-37.12c5.26-0.09,10.53,0.22,15.78-0.13c3.94-0.12,7.23-3.45,7.9-7.24c2.98-13.83,8.53-27.05,16.09-38.99
	c2.23-3.17,2.52-7.84-0.19-10.82c-3.45-4.04-7.48-7.54-11.14-11.38c8.78-8.76,17.53-17.55,26.32-26.3
	c3.83,3.68,7.41,7.62,11.31,11.22c2.93,2.68,7.56,2.51,10.68,0.26c11.94-7.64,25.22-13.14,39.07-16.15
	c3.72-0.69,7.08-3.87,7.22-7.78C217.56,104.8,217.27,99.53,217.39,94.27 M227.41,104.26c-0.04,4.15,0.23,8.51-1.57,12.37
	c-2.27,5.51-7.39,9.63-13.2,10.86c-12.86,2.8-25.2,7.88-36.3,14.95c-4.71,3.16-10.8,4.19-16.22,2.42c-4.61-1.26-7.98-4.85-11.27-8.1
	c-4,4.02-8.02,8.02-12.02,12.04c2.74,2.71,5.62,5.45,7.28,9c2.61,5.71,2.18,12.75-1.3,18.01c-7.24,11.15-12.39,23.63-15.19,36.63
	c-1.08,5.11-4.37,9.67-8.87,12.32c-4.31,2.75-9.59,2.67-14.51,2.63c0.02,5.7,0.01,11.389,0.01,17.09c4.48-0.03,9.21-0.17,13.3,1.93
	c5.35,2.561,9.05,7.84,10.21,13.59c2.79,12.79,7.9,25.061,15.05,36.02c3.66,5.49,3.92,12.94,0.93,18.78
	c-1.75,3.22-4.57,5.63-7.11,8.2c4.05,4.061,8.1,8.13,12.17,12.17c3.38-3.46,6.99-7.18,11.88-8.33c5.34-1.619,11.19-0.43,15.78,2.643
	c11.11,7.1,23.49,12.117,36.37,14.92c5.97,1.25,11.07,5.68,13.26,11.35c1.6,3.79,1.3,7.99,1.28,12.01
	c5.75-0.02,11.489,0,17.229-0.02c0-4.271-0.289-8.76,1.601-12.711c2.319-5.299,7.229-9.311,12.87-10.59
	c12.148-2.75,24.02-7.149,34.58-13.83c4.22-2.92,9.25-5.062,14.488-4.391c6.149,0.449,11.102,4.579,15.062,8.979
	c4-4.04,8.03-8.04,12.03-12.062c-5.48-4.811-10.15-11.619-8.871-19.289c0.311-4.039,2.621-7.5,4.688-10.852
	c6.12-10.223,10.7-21.357,13.188-33.021c0.852-4.34,3.07-8.438,6.58-11.201c4.66-4.027,11.029-4.629,16.932-4.299
	c0-5.688,0.01-11.371-0.012-17.061c-4.43-0.06-9.108,0.13-13.158-1.96c-5.36-2.47-9.189-7.72-10.312-13.47
	c-2.729-12.63-7.76-24.74-14.738-35.62c-3.189-4.73-4.239-10.88-2.471-16.34c1.34-4.58,4.771-8.03,8.131-11.23
	c-4.069-4.05-8.121-8.12-12.189-12.17c-2.898,2.91-5.7,6.19-9.648,7.68c-5.74,2.49-12.602,1.59-17.74-1.88
	c-10.869-7.05-23.039-12.01-35.689-14.78c-5.23-1.04-10.02-4.25-12.699-8.9c-2.791-4.3-2.75-9.58-2.591-14.51
	C238.891,104.26,233.15,104.24,227.41,104.26z"/>
<path opacity="0.8" fill="#EF7F22" enable-background="new    " d="M223.48,154.64c16.89-2.54,34.59,0.12,49.78,8.01
	c17.891,9.03,32.23,24.84,39.471,43.54c7.029,17.98,7.41,38.47,1.069,56.701c-5.47,15.771-15.84,29.789-29.34,39.609
	c-13.91,10.221-31.13,15.87-48.399,15.779c-18.541,0.181-36.951-6.409-51.391-17.979c-13.61-10.84-23.68-26.079-28.16-42.909
	c-5.44-20.16-2.93-42.411,7.2-60.708C175.71,174.41,198.44,158.33,223.48,154.64 M224.45,164.62
	c-19.13,2.97-36.71,14.18-47.74,30.06c-9.04,12.79-13.65,28.64-12.93,44.291c0.61,18.409,8.79,36.409,22.13,49.079
	c13.7,13.4,32.96,20.9,52.109,20.21c28.721-0.35,55.818-19.9,65.648-46.8c7.062-18.59,6.04-40.18-3.09-57.88
	c-6.262-12.72-16.562-23.32-28.803-30.41C257.6,165.01,240.59,162.02,224.45,164.62z"/>
<path opacity="0.8" fill="#EF7F22" enable-background="new    " d="M228.45,181.72c14.149-2,29.01,1.78,40.399,10.44
	c13.09,9.69,21.448,25.51,21.898,41.81c0.527,12.45-3.42,25-10.938,34.92C270.12,281.98,254.29,290.29,238,290.75
	c-12.42,0.54-24.95-3.42-34.86-10.91c-13.11-9.689-21.45-25.55-21.89-41.859c-0.53-12.451,3.44-24.988,10.97-34.911
	C200.83,191.52,214.17,183.63,228.45,181.72 M229.49,191.68c-11.79,1.68-22.77,8.36-29.74,18.01c-6.2,8.37-9.18,18.99-8.43,29.36
	c0.78,13.06,7.76,25.55,18.36,33.19c8.35,6.21,18.98,9.18,29.349,8.439c13.82-0.789,26.951-8.602,34.471-20.182
	c7.3-10.893,9.17-25.068,5.359-37.57c-3.09-9.96-9.67-18.83-18.459-24.49C251.4,192.45,240.16,190.12,229.49,191.68z"/>
<path opacity="0.8" fill="#EF7F22" enable-background="new    " d="M112.34,397.47c9.05-3.05,19.81,2.17,23.03,11.16
	c2.96,7.32,0.55,16.25-5.55,21.2c-5.48,4.66-13.72,5.62-20.14,2.41c-7.17-3.32-11.58-11.59-10.38-19.393
	C100.15,405.75,105.51,399.51,112.34,397.47 M114.24,407.36c-6.44,2.68-6.82,12.92-0.35,15.76c5.53,3.26,13.32-1.7,12.73-8.09
	C126.63,409.03,119.62,404.73,114.24,407.36z"/>
<path opacity="0.1" fill="#E44979" enable-background="new    " d="M217.54,12.74c21.09-1.69,42.44-0.53,63.16,3.77
	c4.61,0.9,7.909,5.89,6.71,10.48c-1.09,4.72-6.26,7.88-10.96,6.47c-36.511-7.26-74.99-4.53-110.03,8.1
	c-32.39,11.63-61.81,31.48-84.63,57.25c-26.51,29.58-44.13,67-49.99,106.3c-7.95,51.52,4.68,105.84,34.54,148.57
	c1.7,2.541,4,5.143,3.67,8.432c0.04,5.301-5.48,9.761-10.65,8.431c-3.77-0.74-5.65-4.37-7.68-7.21
	c-20.86-30.24-34.14-65.66-38.25-102.17c-4.46-39.32,1.56-79.86,17.71-116.02c23.61-53.6,69.19-97.02,123.82-118.11
	C174.98,19.26,196.14,14.5,217.54,12.74z"/>
<path opacity="0.1" fill="#E44979" enable-background="new    " d="M356.359,45.5c5.641-1.64,11.75,3.66,10.83,9.48
	c-0.392,4.5-4.67,8.13-9.17,7.79c-4.892-0.09-8.92-4.97-8.211-9.77C350.16,49.44,352.9,46.34,356.359,45.5z"/>
<path opacity="0.1" fill="#E44979" enable-background="new    " d="M199.96,84.94c0.11-4.58,4.45-8.53,9.04-8.15
	c18-0.07,36.01-0.04,54.01-0.02c4.51-0.18,8.95,3.51,9.02,8.14c0.281,5.78-0.01,11.57,0.103,17.36
	c11.438,3.2,22.54,7.67,32.843,13.62c4.049-3.95,7.918-8.07,12.02-11.96c3.189-3.17,8.939-3.38,12.061,0.01
	c12.869,12.82,25.699,25.69,38.549,38.53c3.36,2.98,3.881,8.55,0.853,11.95c-3.96,4.36-8.353,8.32-12.433,12.57
	c5.91,10.31,10.521,21.35,13.61,32.83c5.812,0.19,11.64-0.1,17.45,0.11c4.66,0.05,8.52,4.44,8.16,9.06
	c0.01,18.03,0.029,36.06-0.01,54.09c0.188,4.46-3.521,8.74-8.051,8.83c-5.852,0.279-11.711-0.02-17.562,0.1
	c-3.03,11.51-7.771,22.51-13.603,32.87c3.961,4.062,8.092,7.95,12,12.062c3.223,3.181,3.41,8.949,0.041,12.101
	c-12.811,12.88-25.688,25.7-38.521,38.56c-3,3.371-8.56,3.9-11.97,0.842c-4.36-3.979-8.353-8.359-12.601-12.471
	c-10.319,5.891-21.382,10.409-32.829,13.579c-0.133,5.841,0.157,11.69-0.103,17.53c-0.12,4.58-4.472,8.51-9.062,8.141
	c-18.01,0.061-36.029,0.039-54.041,0.012c-4.51,0.18-8.89-3.521-8.98-8.133c-0.27-5.84,0.01-11.697-0.09-17.55
	c-11.45-3.13-22.5-7.68-32.8-13.6c-4.08,3.96-7.99,8.108-12.11,12.04c-3.11,3.26-8.84,3.31-11.99,0.09
	c-12.87-12.82-25.7-25.689-38.55-38.521c-3.38-2.988-4.04-8.681-0.92-12.078c4.01-4.353,8.37-8.36,12.48-12.61
	c-5.97-10.29-10.45-21.397-13.64-32.858c-5.82-0.119-11.66,0.17-17.48-0.08c-4.59-0.029-8.35-4.432-8.08-8.939
	c-0.06-18-0.03-36.01-0.01-54.02c-0.21-4.51,3.42-9.03,8.09-9.03c5.82-0.22,11.66,0.05,17.48-0.1c3.13-11.49,7.79-22.52,13.6-32.91
	c-4.08-4.2-8.41-8.17-12.37-12.48c-3.08-3.36-2.56-9.06,0.84-12.01c12.68-12.64,25.33-25.33,38-37.99c3-3.38,8.71-4.12,12.12-0.94
	c4.31,3.97,8.28,8.3,12.5,12.37c10.36-5.81,21.36-10.49,32.84-13.58C199.97,96.51,199.7,90.72,199.96,84.94 M217.39,94.27
	c-0.12,5.26,0.17,10.53-0.11,15.79c-0.14,3.91-3.5,7.09-7.22,7.78c-13.85,3.01-27.13,8.51-39.07,16.15
	c-3.12,2.25-7.75,2.42-10.68-0.26c-3.9-3.6-7.48-7.54-11.31-11.22c-8.79,8.75-17.54,17.54-26.32,26.3
	c3.66,3.84,7.69,7.34,11.14,11.38c2.71,2.98,2.42,7.65,0.19,10.82c-7.56,11.94-13.11,25.16-16.09,38.99
	c-0.67,3.79-3.96,7.12-7.9,7.24c-5.25,0.35-10.52,0.04-15.78,0.13c0.02,12.37,0,24.739,0.02,37.12c5.43,0.15,10.88-0.25,16.31,0.17
	c3.84,0.38,6.82,3.71,7.41,7.43c2.98,13.82,8.56,27.04,16.16,38.96c2.21,3.14,2.28,7.771-0.43,10.65
	c-3.59,3.897-7.52,7.47-11.2,11.3c8.75,8.79,17.54,17.529,26.3,26.32c3.83-3.65,7.32-7.66,11.32-11.12
	c3.03-2.75,7.72-2.61,10.96-0.29c11.89,7.67,25.18,13.061,38.98,16.119c3.5,0.631,6.63,3.33,7.1,6.971
	c0.51,5.561,0.05,11.17,0.19,16.76c12.42-0.02,24.83,0.01,37.25-0.02c0.16-5.57-0.277-11.15,0.201-16.7
	c0.529-4.47,4.949-6.96,9.029-7.521c13.381-2.988,26.08-8.629,37.641-15.947c3.102-2.08,7.552-1.95,10.359,0.59
	c3.99,3.49,7.51,7.479,11.34,11.14c8.791-8.75,17.551-17.521,26.312-26.3c-3.689-3.83-7.61-7.43-11.229-11.311
	c-2.74-2.852-2.602-7.521-0.41-10.642c6.721-10.54,11.891-22.078,15.01-34.199c0.631-2.41,1.061-4.891,1.971-7.209
	c1.17-2.972,4.24-4.92,7.38-5.062c5.171-0.25,10.36,0.021,15.54-0.091c0-12.369,0.02-24.739-0.01-37.099
	c-5.58-0.18-11.182,0.33-16.73-0.27c-4.619-0.69-6.897-5.34-7.529-9.52c-3.01-12.95-8.288-25.37-15.479-36.56
	c-2.26-3.2-2.568-7.89,0.2-10.89c3.438-4.01,7.46-7.49,11.09-11.33c-8.729-8.8-17.521-17.55-26.29-26.31
	c-3.84,3.68-7.41,7.64-11.33,11.22c-2.699,2.46-6.979,2.62-10,0.65c-12.141-7.73-25.562-13.48-39.63-16.53
	c-3.8-0.62-7.13-3.84-7.317-7.77c-0.303-5.27,0-10.56-0.092-15.83C242.221,94.26,229.8,94.23,217.39,94.27z"/>
<path opacity="0.1" fill="#EF7F22" enable-background="new    " d="M408.4,101.59c3.188-1.01,6.92,0.19,8.897,2.88
	c30.01,41.14,45.24,92.79,42.37,143.629c-2.06,41.068-15.78,81.51-39.32,115.248c-20.96,30.182-49.31,55.263-82.039,72
	c-42.761,22.271-92.881,29.553-140.331,21.45c-4.16-0.83-9.42-0.92-11.83-5.03c-2.75-4.067-1.11-10.107,3.18-12.39
	c2.95-1.72,6.45-0.77,9.59-0.24c46.107,8.58,95.09,0.71,136.148-21.987c34.621-18.95,63.602-48.012,82.422-82.7
	c25.58-46.521,31.87-103.11,17.317-154.15c-6.47-23.26-17.147-45.31-31.18-64.94C400,110.67,402.64,103.01,408.4,101.59z"/>
<path opacity="0.1" fill="#E44979" enable-background="new    " d="M224.45,164.62c16.14-2.6,33.149,0.39,47.329,8.55
	c12.24,7.09,22.541,17.69,28.801,30.41c9.13,17.7,10.15,39.29,3.09,57.88c-9.83,26.899-36.93,46.45-65.65,46.8
	c-19.147,0.69-38.41-6.81-52.107-20.21c-13.34-12.67-21.52-30.67-22.13-49.079c-0.72-15.651,3.89-31.5,12.93-44.291
	C187.74,178.8,205.32,167.59,224.45,164.62 M228.45,181.72c-14.28,1.91-27.62,9.8-36.23,21.35c-7.53,9.92-11.5,22.46-10.97,34.911
	c0.44,16.312,8.78,32.17,21.89,41.859c9.91,7.49,22.44,11.45,34.86,10.91c16.29-0.46,32.12-8.77,41.811-21.859
	c7.521-9.92,11.469-22.471,10.939-34.918c-0.45-16.3-8.811-32.12-21.9-41.81C257.46,183.5,242.6,179.72,228.45,181.72z"/>
<path opacity="0.1" fill="#EF7F22" enable-background="new    " d="M114.24,407.36c5.38-2.63,12.39,1.67,12.38,7.67
	c0.59,6.39-7.2,11.35-12.73,8.09C107.42,420.28,107.8,410.04,114.24,407.36z"/>
</svg>
