<?xml version="1.0" encoding="UTF-8"?><svg id="a" xmlns="http://www.w3.org/2000/svg" viewBox="0 0 1831.21 600"><defs><style>.b{fill:#f27f0c;}.c{fill:#429ebd;}</style></defs><g><path class="b" d="M516.97,242.15h.02c-.37-2.83-.83-5.59-1.41-8.27-.58-2.61-1.25-5.18-2.03-7.65-1.15-3.68-2.56-7.22-4.2-10.59-.6-1.23-1.25-2.42-1.91-3.61-2.45-4.39-5.33-8.52-8.63-12.33h-.02c-2.54-2.94-5.35-5.69-8.41-8.29-.92-.78-1.87-1.53-2.82-2.26-2.08-1.58-4.22-3.06-6.42-4.45-8.22-5.18-17.43-9.04-27.69-11.51-9.44-2.3-19.74-3.43-30.91-3.43s-21.1,1.14-30.41,3.43c0,0-2.56,.94-3.72,1.26-11.27,3.08-21.27,7.61-30.2,14.69h.04c-.48,.37-.93,.73-1.39,1.12-.21,.16-.42,.34-.64,.52-1.36,1.14-2.68,2.35-3.97,3.63-9.65,9.5-17.16,21.46-20.94,34.57-.58,2.05-1.08,4.11-1.48,6.21v.07c-1.69,6.19-2.26,23.07-2.58,30.4v94.77H136.15v15.96h206.94v-118.91c0-5.41,.41-10.51,1.23-15.34h.02c.21-1.28,.46-2.53,.72-3.75,.69-3.08,1.53-6.01,2.58-8.84,.41-1.12,.85-2.22,1.32-3.31h-.02c1.62-3.77,3.58-7.29,5.87-10.6h.02c3.12-4.48,6.86-8.54,11.22-12.19,1.57-1.33,3.25-2.58,4.96-3.75,6.79-4.71,14.5-8.22,23.16-10.55h.02c8.54-2.31,18.01-3.45,28.37-3.45,2.75,0,5.45,.09,8.1,.23,7.46,.44,14.38,1.51,20.78,3.22,8.78,2.33,16.62,5.84,23.43,10.55,1.45,.98,2.84,2.03,4.2,3.13,4.64,3.77,8.61,8.04,11.84,12.81,2.24,3.29,4.13,6.81,5.7,10.59,1.02,2.45,1.89,5.02,2.63,7.67,.72,2.65,1.31,5.41,1.75,8.25,.69,4.43,1.04,9.09,1.04,14,0,23.04-7.66,40.53-22.95,52.46-13.85,10.83-32.69,16.26-56.52,16.26h-16.42v15.94h16.42c28.28,0,50.89-6.94,67.84-20.8,18.29-14.96,27.43-36.24,27.43-63.87,0-4.86-.28-9.52-.85-14Zm-147.67,144.74h-.02v-129.41c0-5.62,.67-10.75,2.01-15.34,.37-1.3,.81-2.54,1.31-3.77,1.83-4.64,4.43-8.7,7.81-12.13,1.32-1.37,2.73-2.61,4.3-3.79,3.88-2.9,8.41-5.18,13.57-6.81h.02c4.32-1.41,9.08-2.37,14.32-2.88,.64-.05,1.29-.11,1.92-.16,.42-.02,.85-.07,1.27-.09,2.17-.14,4.41-.21,6.72-.21,9.79,0,18.22,1.1,25.31,3.34,7.41,2.31,13.34,5.84,17.8,10.59,3.21,3.42,5.64,7.45,7.32,12.13,.44,1.21,.85,2.47,1.18,3.79,1.09,4.22,1.64,8.88,1.64,14,0,28.2-17.75,42.29-53.26,42.29h-16.42v15.96h16.42c20.92,0,37.33-4.43,49.15-13.29,13.28-9.96,19.93-24.94,19.93-44.96,0-4.96-.42-9.62-1.22-14h.02c-.55-2.94-1.29-5.73-2.21-8.4-.9-2.65-1.98-5.16-3.25-7.53-2.05-3.88-4.59-7.4-7.59-10.59-1.76-1.87-3.69-3.61-5.77-5.23-4.73-3.7-10.14-6.65-16.23-8.9-1.82-.68-3.69-1.28-5.63-1.81h-.02c-8.04-2.24-17.09-3.36-27.2-3.36s-18.68,1.12-26.6,3.36c-8.63,2.44-16.12,6.21-22.46,11.33-1.29,1.03-2.47,2.12-3.63,3.24-.46,.46-.95,.91-1.39,1.37-3.07,3.2-5.66,6.74-7.8,10.6-2.65,4.79-4.53,10.09-5.73,15.9-.95,4.77-1.45,9.87-1.45,15.34v129.41H136.15v15.96h233.15v-15.96Zm61.83-148c.58,.02,1.13,.05,1.64,.09,.53,.04,1.01,.07,1.46,.12,.92,.09,1.69,.18,2.35,.3,.65,.13,1.29,.27,1.89,.43,1.55,.39,2.93,.89,4.13,1.51,.48,.25,.93,.52,1.38,.8,1.73,1.14,3.02,2.58,3.85,4.31,1.08,2.19,1.62,5.43,1.62,9.7,0,3.02-.35,5.46-1.08,7.35-1.55,4.02-5.27,6.57-11.17,7.67-2.45,.46-7.32,.69-14.66,.69h-16.42v15.96h16.42c13.76,0,23.85-1.94,30.32-5.8,8.24-4.89,12.4-13.52,12.4-25.87,0-5.3-.76-9.98-2.29-14h.02c-1.99-5.41-5.4-9.66-10.11-12.74-.95-.62-1.98-1.19-3.07-1.73-1.08-.53-2.21-1.01-3.42-1.46-6.24-2.31-14.2-3.47-23.85-3.47-9,0-16.58,1.16-22.74,3.49-6.67,2.49-11.62,6.37-14.94,11.58-.86,1.35-1.66,2.78-2.29,4.32-1.82,4.38-2.73,9.48-2.73,15.34v155.86H136.15v15.96H395.66v-15.96h-.02v-155.86c0-4.29,.55-7.51,1.62-9.7,1.16-2.33,3.09-4.2,5.84-5.64h.02c4.41-2.3,10.9-3.43,19.44-3.43,3.37,0,6.23,.05,8.57,.18Z"/><g><path class="c" d="M262.43,283.28c0-2.29-1.5-4.02-4.43-5.16-3.12-1.21-7.69-2.22-13.81-3.06-1.91-.25-6.67-.78-14.34-1.57-21.12-2.19-36.29-5.25-45.42-9.22-16.05-6.94-24.1-18.5-24.1-34.71,0-11.1,3.92-20.62,11.78-28.54,7.85-7.93,17.27-11.88,28.28-11.88h157.82c8.93-7.08,18.93-11.62,30.2-14.69,1.16-.32,3.72-1.26,3.72-1.26H200.39c-15.4,0-28.54,5.51-39.5,16.54-10.92,11.01-16.39,24.3-16.39,39.83,0,17.93,7.21,32.02,21.63,42.29H67.88v157.44h15.82v-141.49h174.3c2.93,0,4.43-1.51,4.43-4.54Z"/><path class="c" d="M136.15,360.44v-19.62h120.61c15.93,0,29.53-5.66,40.84-17.01,11.29-11.33,16.92-25.03,16.92-41.08,0-8.02-1.75-15.66-5.22-22.86-3.49-7.22-8.43-13.13-14.76-17.72h34.17c.31-2.8,.68-5.23,1.13-6.88v-.07c.41-2.1,.9-4.16,1.48-6.21,.26-.91,.55-1.82,.85-2.72h-.26l-126.61,.02c-3.21,0-4.8,1.6-4.8,4.77,0,2.45,1.98,4.18,5.98,5.16,7.9,1.3,13.95,2.17,18.13,2.58,16.79,1.89,27.4,3.24,31.84,4.07,12.84,2.54,22.63,6.49,29.41,11.8,8.57,6.78,12.86,16.14,12.86,28.07s-4.13,21.54-12.31,29.78c-8.24,8.24-18.1,12.36-29.64,12.36H120.34v104.43h15.81v-15.96"/><polyline class="c" points="136.15 413.34 136.15 402.85 136.15 402.85 136.15 386.89"/><path class="c" d="M279.03,305.09c6.17-6.16,9.3-13.61,9.3-22.36,0-13.86-8.8-23.45-26.39-28.77-.49-.16-16.81-2.86-48.9-8.13-17.59-2.86-26.35-8.29-26.35-16.26,0-3.75,1.36-7.01,4.07-9.78,2.7-2.76,5.91-4.15,9.63-4.15h136.22c2.92-5.72,6.55-11.08,10.71-15.94H200.39c-8.04,0-14.99,2.95-20.82,8.84-5.79,5.89-8.71,12.9-8.71,21.03,0,13.5,8.8,22.77,26.35,27.82,16.35,2.61,32.63,5.25,48.93,7.9,17.55,3.02,26.35,8.84,26.35,17.43,0,4.32-1.55,8.01-4.66,11.07-3.09,3.04-6.81,4.57-11.1,4.57H94.11v130.94h15.82v-115h146.82c8.7,0,16.11-3.06,22.28-9.22Z"/></g></g><g><path class="c" d="M623.87,378.71c-10.18-4.27-19.47-10.67-27.85-19.2l17.52-21.56c5.76,6.96,12.37,12.3,19.82,16,7.45,3.71,14.81,5.56,22.07,5.56,8.83,0,15.57-1.78,20.21-5.33,4.64-3.56,6.96-8.44,6.96-14.66,0-2.02-.24-3.87-.73-5.56-.49-1.68-1.1-3.18-1.85-4.49-.75-1.31-1.87-2.6-3.37-3.87-1.5-1.27-2.98-2.36-4.44-3.26-1.46-.9-3.44-1.89-5.95-2.98-2.51-1.09-4.81-2.04-6.91-2.86-2.1-.82-4.87-1.83-8.31-3.03-4.04-1.42-7.56-2.73-10.56-3.93-3-1.2-6.31-2.7-9.94-4.49-3.63-1.8-6.74-3.61-9.32-5.45-2.58-1.83-5.18-4.01-7.8-6.51-2.62-2.51-4.72-5.17-6.29-7.97s-2.86-6.03-3.88-9.66c-1.01-3.63-1.52-7.51-1.52-11.62,0-8.39,2.32-16.1,6.96-23.13,4.64-7.04,10.91-12.56,18.81-16.56,7.9-4.01,16.49-6.01,25.77-6.01,18.94-.08,36.99,6.63,54.13,20.1l-16.51,21.79c-13.4-11.16-25.94-16.73-37.62-16.73-6.51,0-11.92,1.7-16.23,5.11-4.31,3.41-6.5,8.07-6.57,13.98-.08,5.54,2.62,10.11,8.09,13.7,3.52,2.25,11.01,5.58,22.46,10,13.55,5.32,22.69,9.28,27.4,11.9,10.33,5.69,17.11,12.84,20.33,21.45,1.87,4.87,2.81,10.48,2.81,16.85s-1.12,12.5-3.37,17.97c-2.25,5.47-5.22,10.07-8.93,13.81-3.71,3.74-8.01,6.93-12.92,9.55-4.9,2.62-9.98,4.53-15.22,5.73-5.24,1.2-10.52,1.8-15.83,1.8-10.78,0-21.26-2.13-31.45-6.4Z"/><path class="c" d="M767.39,380.73c-7.41-2.92-13.65-6.94-18.7-12.07-5.05-5.13-9-11.25-11.85-18.36-2.84-7.11-4.27-14.75-4.27-22.91,0-11.01,2.42-20.89,7.24-29.65,4.83-8.76,11.75-15.67,20.78-20.72,9.02-5.05,19.33-7.58,30.94-7.58s21.53,2.41,30.43,7.24,15.87,11.66,20.89,20.5c5.02,8.83,7.52,18.9,7.52,30.21s-2.51,21.24-7.52,30.04c-5.02,8.8-12,15.61-20.94,20.44-8.95,4.83-19.07,7.24-30.38,7.24-8.68,0-16.73-1.46-24.15-4.38Zm47.39-28.69c6.29-6.48,9.43-14.69,9.43-24.65s-3.11-18.49-9.32-24.93c-6.21-6.44-14-9.66-23.36-9.66s-17.63,3.29-23.7,9.88c-6.06,6.59-9.1,14.82-9.1,24.71s3.09,17.89,9.27,24.48c6.18,6.59,14.02,9.88,23.53,9.88s16.96-3.24,23.25-9.71Z"/><path class="c" d="M898.45,377.92c-8.68-4.79-15.48-11.59-20.38-20.38-4.9-8.8-7.36-18.85-7.36-30.15s2.47-21.36,7.41-30.15c4.94-8.8,11.81-15.63,20.61-20.5,8.8-4.87,18.81-7.3,30.04-7.3,9.06,0,17.82,1.8,26.28,5.39s15.42,8.76,20.89,15.5l-17.52,15.16c-3.37-3.97-7.45-7.08-12.24-9.32s-10.14-3.37-16.06-3.37c-6.59,0-12.39,1.44-17.41,4.32-5.02,2.88-8.91,6.93-11.68,12.13-2.77,5.2-4.16,11.17-4.16,17.91s1.4,12.84,4.21,18.08c2.81,5.24,6.74,9.3,11.79,12.19,5.05,2.88,10.84,4.32,17.35,4.32,2.4,0,4.77-.21,7.13-.62,2.36-.41,4.55-.99,6.57-1.74,2.02-.75,3.93-1.63,5.73-2.64s3.44-2.12,4.94-3.31c1.5-1.2,2.84-2.47,4.04-3.82l17.74,15.72c-5.17,5.84-11.96,10.59-20.38,14.26-8.42,3.67-17.8,5.5-28.13,5.5-10.93,0-20.74-2.4-29.42-7.19Z"/><path class="c" d="M1002,249.39c-3.37-3.33-5.05-7.36-5.05-12.07s1.68-8.74,5.05-12.07c3.37-3.33,7.49-5,12.35-5s8.78,1.68,12.19,5.05c3.41,3.37,5.11,7.37,5.11,12.02,0,3.07-.79,5.91-2.36,8.54-1.57,2.62-3.69,4.7-6.34,6.23-2.66,1.53-5.52,2.3-8.59,2.3-4.87,0-8.98-1.67-12.35-5Zm-.67,21.73h25.72v112.19h-25.72v-112.19Z"/><path class="c" d="M1170.34,271.12v112.19h-24.59v-15.05h-.34c-8.54,11.23-20.44,16.85-35.71,16.85-6.14,0-12-.86-17.58-2.58-5.58-1.72-10.59-4.27-15.05-7.64-4.46-3.37-8.31-7.36-11.57-11.96-3.26-4.6-5.76-9.92-7.52-15.95-1.76-6.03-2.64-12.45-2.64-19.26,0-8.31,1.38-16.1,4.16-23.36,2.77-7.26,6.55-13.44,11.34-18.53,4.79-5.09,10.52-9.1,17.18-12.02s13.81-4.38,21.45-4.38c14.6,0,26.17,5.05,34.7,15.16h.45v-13.48h25.72Zm-33.97,81.14c6.18-6.33,9.26-14.47,9.26-24.43s-3.01-18.29-9.04-24.99c-6.03-6.7-13.61-10.05-22.74-10.05-4.49,0-8.7,.82-12.63,2.47-3.93,1.65-7.36,3.95-10.28,6.91-2.92,2.96-5.22,6.66-6.91,11.12-1.69,4.45-2.53,9.3-2.53,14.54,0,9.96,3,18.1,8.98,24.43,5.99,6.33,13.74,9.49,23.25,9.49,8.91,0,16.45-3.16,22.63-9.49Z"/><path class="c" d="M1204.48,213.95h25.72v169.36h-25.72V213.95Z"/><path class="b" d="M1268.61,219.91h59.18c6.36,0,12.24,.6,17.63,1.8,5.39,1.2,10.13,2.92,14.21,5.17,4.08,2.25,7.66,4.94,10.72,8.09s5.56,6.7,7.47,10.67c1.91,3.97,3.35,8.22,4.32,12.75,.97,4.53,1.46,9.38,1.46,14.54,0,6.96-.92,13.29-2.75,18.98-1.83,5.69-4.45,10.58-7.86,14.66-3.41,4.08-7.54,7.51-12.41,10.28-4.87,2.77-10.31,4.83-16.34,6.18-6.03,1.35-12.6,2.02-19.71,2.02h-28.19v58.29h-27.74V219.91Zm53.23,80.07c11.01,0,19.26-2.49,24.76-7.47,5.5-4.98,8.25-11.7,8.25-20.16s-2.7-15.44-8.09-20.27-13.06-7.24-23.02-7.24h-27.4v55.14h25.49Z"/><path class="b" d="M1516.13,271.12v112.19h-24.59v-15.05h-.34c-8.54,11.23-20.44,16.85-35.71,16.85-6.14,0-12-.86-17.58-2.58-5.58-1.72-10.59-4.27-15.05-7.64-4.45-3.37-8.31-7.36-11.57-11.96-3.26-4.6-5.77-9.92-7.53-15.95-1.76-6.03-2.64-12.45-2.64-19.26,0-8.31,1.38-16.1,4.16-23.36,2.77-7.26,6.55-13.44,11.34-18.53,4.79-5.09,10.52-9.1,17.18-12.02s13.81-4.38,21.45-4.38c14.6,0,26.17,5.05,34.7,15.16h.45v-13.48h25.72Zm-33.97,81.14c6.18-6.33,9.27-14.47,9.27-24.43s-3.01-18.29-9.04-24.99c-6.03-6.7-13.61-10.05-22.74-10.05-4.49,0-8.7,.82-12.63,2.47-3.93,1.65-7.36,3.95-10.28,6.91-2.92,2.96-5.22,6.66-6.91,11.12-1.68,4.45-2.53,9.3-2.53,14.54,0,9.96,3,18.1,8.98,24.43,5.99,6.33,13.74,9.49,23.25,9.49,8.91,0,16.45-3.16,22.63-9.49Z"/><path class="b" d="M1539.15,368.71l13.03-19.32c4.57,4.57,9.42,7.92,14.54,10.05,5.13,2.13,11.06,3.2,17.8,3.2,4.87,0,8.7-1.01,11.51-3.03,2.81-2.02,4.21-4.68,4.21-7.97,0-2.7-1.59-4.92-4.77-6.68-3.18-1.76-9-4.1-17.46-7.02-3.37-1.12-6.36-2.25-8.98-3.37s-5.3-2.45-8.03-3.99c-2.73-1.54-5.07-3.24-7.02-5.11-1.95-1.87-3.72-3.99-5.33-6.35-1.61-2.36-2.83-5.04-3.65-8.03-.82-3-1.24-6.29-1.24-9.88,0-9.13,3.72-16.71,11.17-22.74,7.45-6.03,16.9-9.04,28.36-9.04,14.82,0,28.08,4.68,39.76,14.04l-12.92,20.21c-2.92-2.7-6.05-4.96-9.38-6.79-3.33-1.83-6.53-3.16-9.6-3.99-3.07-.82-6.14-1.24-9.21-1.24s-5.78,.82-8.37,2.47c-2.58,1.65-3.87,4.04-3.87,7.19,0,1.8,.79,3.5,2.36,5.11,1.57,1.61,3.56,3.05,5.95,4.32,2.4,1.27,5.58,2.7,9.55,4.27,11.9,4.72,19.32,7.82,22.24,9.32,7.41,3.97,12.28,8.8,14.6,14.49,1.35,3.52,2.02,7.6,2.02,12.24s-.86,9.23-2.58,13.31c-1.72,4.08-4.27,7.67-7.64,10.78-3.37,3.11-7.75,5.54-13.14,7.3-5.39,1.76-11.57,2.64-18.53,2.64-17.82,0-32.94-5.47-45.37-16.4Z"/><path class="b" d="M1642.36,368.71l13.03-19.32c4.57,4.57,9.42,7.92,14.54,10.05,5.13,2.13,11.06,3.2,17.8,3.2,4.87,0,8.7-1.01,11.51-3.03,2.81-2.02,4.21-4.68,4.21-7.97,0-2.7-1.59-4.92-4.77-6.68-3.18-1.76-9-4.1-17.46-7.02-3.37-1.12-6.36-2.25-8.98-3.37s-5.3-2.45-8.03-3.99c-2.73-1.54-5.07-3.24-7.02-5.11-1.95-1.87-3.72-3.99-5.33-6.35-1.61-2.36-2.83-5.04-3.65-8.03-.82-3-1.24-6.29-1.24-9.88,0-9.13,3.72-16.71,11.17-22.74,7.45-6.03,16.9-9.04,28.36-9.04,14.82,0,28.08,4.68,39.76,14.04l-12.92,20.21c-2.92-2.7-6.05-4.96-9.38-6.79-3.33-1.83-6.53-3.16-9.6-3.99-3.07-.82-6.14-1.24-9.21-1.24s-5.78,.82-8.37,2.47c-2.58,1.65-3.88,4.04-3.88,7.19,0,1.8,.79,3.5,2.36,5.11,1.57,1.61,3.56,3.05,5.95,4.32,2.4,1.27,5.58,2.7,9.55,4.27,11.9,4.72,19.32,7.82,22.24,9.32,7.41,3.97,12.28,8.8,14.6,14.49,1.35,3.52,2.02,7.6,2.02,12.24s-.86,9.23-2.58,13.31c-1.72,4.08-4.27,7.67-7.64,10.78-3.37,3.11-7.75,5.54-13.14,7.3-5.39,1.76-11.57,2.64-18.53,2.64-17.82,0-32.94-5.47-45.37-16.4Z"/></g></svg>