<svg width="13" height="13" viewBox="0 0 13 13" fill="none" xmlns="http://www.w3.org/2000/svg">
<g clip-path="url(#clip0_730_17)">
<path d="M6.5 13C6.5 13 11.375 8.38013 11.375 4.875C11.375 3.58207 10.8614 2.34209 9.94715 1.42785C9.03291 0.513615 7.79293 0 6.5 0C5.20707 0 3.96709 0.513615 3.05285 1.42785C2.13861 2.34209 1.625 3.58207 1.625 4.875C1.625 8.38013 6.5 13 6.5 13ZM6.5 7.3125C5.85353 7.3125 5.23355 7.05569 4.77643 6.59857C4.31931 6.14145 4.0625 5.52147 4.0625 4.875C4.0625 4.22853 4.31931 3.60855 4.77643 3.15143C5.23355 2.69431 5.85353 2.4375 6.5 2.4375C7.14647 2.4375 7.76645 2.69431 8.22357 3.15143C8.68069 3.60855 8.9375 4.22853 8.9375 4.875C8.9375 5.52147 8.68069 6.14145 8.22357 6.59857C7.76645 7.05569 7.14647 7.3125 6.5 7.3125Z" fill="#959191"/>
</g>
<defs>
<clipPath id="clip0_730_17">
<rect width="13" height="13" fill="white"/>
</clipPath>
</defs>
</svg>
