<?xml version="1.0" encoding="utf-8"?>
<!-- Generator: Adobe Illustrator 16.0.0, SVG Export Plug-In . SVG Version: 6.00 Build 0)  -->
<!DOCTYPE svg PUBLIC "-//W3C//DTD SVG 1.1//EN" "http://www.w3.org/Graphics/SVG/1.1/DTD/svg11.dtd">
<svg version="1.1" id="Layer_1" xmlns="http://www.w3.org/2000/svg" xmlns:xlink="http://www.w3.org/1999/xlink" x="0px" y="0px"
	 width="406px" height="306px" viewBox="0 0 406 306" enable-background="new 0 0 406 306" xml:space="preserve">
<title>#138_password_twocolour</title>
<path opacity="0.1" fill="#E6E6E6" enable-background="new    " d="M168.612,76.256c-61.113-3.218-106.169,57.784-83.585,114.695
	c3.902,10.035,9.938,19.102,17.691,26.572c50.07,48.04,157.325,31.8,190.657,6.76c33.333-25.04,46.985-100.901,17.083-124.845
	C273.238,69.709,224.092,79.179,168.612,76.256z"/>
<polygon fill="#F4A28C" points="214.977,207.811 245.935,245.111 287.215,198.756 254.085,169.666 "/>
<polygon fill="#3995B8" points="231.734,235.977 280.181,192.585 336.27,240.371 268.944,285.711 "/>
<polygon opacity="0.08" enable-background="new    " points="235.449,196.32 296.188,267.37 268.944,285.711 231.734,235.977 
	235.592,232.678 216.286,209.383 "/>
<path fill="#F4A28C" d="M131.412,161.973c0,0,32.673,45.4,63.894,47.137c31.221,1.735,47.918,0.172,60.9-30.156L131.412,161.973z"/>
<path opacity="0.08" enable-background="new    " d="M131.412,161.973c0,0,32.673,45.4,63.894,47.137
	c31.221,1.735,47.918,0.172,60.9-30.156L131.412,161.973z"/>
<rect x="140.456" y="32.611" fill="#C9C9C9" width="91.279" height="163.709"/>
<rect x="148.007" y="51.277" fill="#FFFFFF" width="75.557" height="115.212"/>
<circle opacity="0.56" fill="#FFFFFF" enable-background="new    " cx="186.375" cy="181.237" r="8.933"/>
<rect x="178.376" y="39.005" opacity="0.12" enable-background="new    " width="25.589" height="3.735"/>
<circle fill="#FFFFFF" cx="169.109" cy="41.279" r="4.172"/>
<path opacity="0.08" enable-background="new    " d="M160.573,161.566c0,0,5.795,10.384-1.269,13.591
	c-7.064,3.208-18.849-2.03-18.849-2.03v-7.652L160.573,161.566z"/>
<path opacity="0.08" enable-background="new    " d="M158.929,131.898c0,0,6.496,14.769-0.558,17.986
	c-7.054,3.218-17.915-2.375-17.915-2.375v-7.704L158.929,131.898z"/>
<path opacity="0.08" enable-background="new    " d="M158.929,118.155c0,0,5.542,11.774-1.522,14.991
	c-7.064,3.218-16.951,0.609-16.951,0.609v-7.653L158.929,118.155z"/>
<path fill="#F4A28C" d="M135.695,100.626c0,0-13.896,18.808,0,22.33s28.694,4.06,21.914-12.079
	C150.829,94.739,135.695,100.626,135.695,100.626z"/>
<path fill="#F4A28C" d="M135.695,120.388c0,0-13.896,18.818,0,22.33c13.896,3.512,26.827,4.426,22.858-12.637
	C155.782,118.135,135.695,120.388,135.695,120.388z"/>
<path fill="#F4A28C" d="M135.695,141.926c0,0-13.896,18.818,0,22.33s24.817,9.136,25.619-7.938
	C161.852,144.738,135.695,141.926,135.695,141.926z"/>
<path opacity="0.46" fill="#FFFFFF" enable-background="new    " d="M145.937,108.208l-1.238,9.267
	c-0.161,1.217,0.696,2.334,1.913,2.495c0.005,0.001,0.011,0.001,0.016,0.002l3.045,0.386c2.594,0.357,5.035-1.317,5.633-3.867
	l0.771-3.136c0.694-2.715-0.944-5.479-3.659-6.174c-0.052-0.013-0.105-0.026-0.157-0.038l-3.563-0.842
	c-1.196-0.3-2.409,0.427-2.708,1.624C145.965,108.017,145.948,108.112,145.937,108.208z"/>
<path opacity="0.08" enable-background="new    " d="M129.727,113.354c0,0-0.883,3.806,0.518,5.674h79.658v-21.66L129.727,113.354z"
	/>
<rect x="125.972" y="51.277" fill="#24285B" width="86.894" height="62.077"/>
<circle fill="#FFD200" cx="186.526" cy="141.419" r="14.86"/>
<polyline fill="none" stroke="#FFFFFF" stroke-width="3" stroke-linecap="round" stroke-linejoin="round" points="181.015,141.541 
	186.019,147.306 192.749,136.709 "/>
<polygon fill="#24285B" points="182.314,112.238 185.786,122.398 189.612,112.238 "/>
<path fill="#3995B8" d="M174.875,69.425h-2.325v-5.521c0.103-1.881-1.338-3.489-3.219-3.591s-3.489,1.339-3.591,3.219
	c-0.007,0.124-0.007,0.248,0,0.372v5.521h-2.365v-5.521c0.134-3.187,2.826-5.662,6.012-5.528c3,0.126,5.402,2.529,5.528,5.528
	L174.875,69.425z"/>
<path opacity="0.46" fill="#FFFFFF" enable-background="new    " d="M174.875,69.425h-2.325v-5.521
	c0.103-1.881-1.338-3.489-3.219-3.591s-3.489,1.339-3.591,3.219c-0.007,0.124-0.007,0.248,0,0.372v5.521h-2.365v-5.521
	c0.134-3.187,2.826-5.662,6.012-5.528c3,0.126,5.402,2.529,5.528,5.528L174.875,69.425z"/>
<rect x="160.279" y="65.203" fill="#3995B8" width="17.651" height="14.068"/>
<path fill="#24285B" d="M170.713,70.318c0.011-1.032-0.816-1.876-1.848-1.887c-1.031-0.011-1.876,0.816-1.887,1.848
	c-0.006,0.532,0.216,1.041,0.608,1.399v3.958h2.558v-3.989C170.505,71.299,170.709,70.82,170.713,70.318z"/>
<rect x="142.668" y="86.934" fill="#FFFFFF" width="54.607" height="13.682"/>
<rect x="183.248" y="86.934" fill="#FFD200" width="14.038" height="13.682"/>
<circle fill="#24285B" cx="149.002" cy="93.785" r="1.827"/>
<circle fill="#24285B" cx="155.782" cy="93.785" r="1.827"/>
<circle fill="#24285B" cx="162.4" cy="93.785" r="1.827"/>
<circle fill="#24285B" cx="169.18" cy="93.785" r="1.827"/>
<circle fill="#24285B" cx="176.103" cy="93.785" r="1.827"/>
<path fill="#F4A28C" d="M243.266,107.894c-0.214-3.472-0.346-6.943-0.305-10.049c0.07-6.384-6.172-11.236-12.18-9.135
	c-3.046,1.015-5.482,3.613-5.482,9.135c0,10.982,3.441,26.806,5.381,34.845c0.815,3.394,1.042,6.903,0.67,10.373
	c-1.26,11.866-3.259,39.87,5.49,41.737c10.15,2.162,34.764-1.411,15.5-42.458C247.176,131.532,244.098,119.845,243.266,107.894z"/>
<path opacity="0.46" fill="#FFFFFF" enable-background="new    " d="M146.312,152.756l-0.243,8.181
	c-0.051,1.069,0.775,1.978,1.845,2.027c0.018,0.002,0.035,0.002,0.053,0.002l2.649,0.071c2.283,0.058,4.243-1.614,4.547-3.877
	l0.386-2.792c0.35-2.447-1.351-4.714-3.798-5.063c-0.026-0.004-0.053-0.008-0.08-0.011l-3.167-0.406
	c-1.067-0.135-2.042,0.621-2.178,1.689C146.319,152.637,146.314,152.696,146.312,152.756z"/>
<path opacity="0.46" fill="#FFFFFF" enable-background="new    " d="M145.023,128l-1.239,9.287
	c-0.166,1.216,0.685,2.337,1.901,2.503c0.009,0.001,0.018,0.003,0.027,0.004l3.045,0.386c2.591,0.333,5.02-1.331,5.644-3.867
	l0.761-3.136c0.675-2.755-1.012-5.536-3.767-6.21c-0.016-0.004-0.033-0.008-0.049-0.012l-3.562-0.832
	c-1.196-0.302-2.41,0.423-2.712,1.619C145.051,127.827,145.035,127.913,145.023,128z"/>
</svg>
