<?xml version="1.0" encoding="utf-8"?>
<!-- Generator: Adobe Illustrator 16.0.0, SVG Export Plug-In . SVG Version: 6.00 Build 0)  -->
<!DOCTYPE svg PUBLIC "-//W3C//DTD SVG 1.1//EN" "http://www.w3.org/Graphics/SVG/1.1/DTD/svg11.dtd">
<svg version="1.1" id="Layer_1" xmlns="http://www.w3.org/2000/svg" xmlns:xlink="http://www.w3.org/1999/xlink" x="0px" y="0px"
	 width="406px" height="306px" viewBox="0 0 406 306" enable-background="new 0 0 406 306" xml:space="preserve">
<title>_</title>
<path opacity="0.1" fill="#E6E6E6" enable-background="new    " d="M293.934,67.639c32.48,11.165,63.499,41.676,64.442,81.119
	c0.944,39.443-9.835,79.606-69.091,95.176c-55.652,14.627-187.785,19.925-223.006-29.09
	C33.079,168.631,43.645,93.612,101.663,69.618C142.354,52.799,230.404,45.887,293.934,67.639z"/>
<rect x="94.791" y="90.699" fill="#3995B8" width="216.429" height="136.984"/>
<rect x="113.558" y="104.148" fill="#24285B" width="178.874" height="110.086"/>
<rect x="84.813" y="227.684" fill="#3995B8" width="238.434" height="19.874"/>
<rect x="84.813" y="227.684" opacity="0.08" enable-background="new    " width="238.434" height="19.874"/>
<polygon fill="#FFD200" points="209.263,214.245 219.98,210.135 203.7,167.586 126.307,197.203 132.823,214.245 "/>
<polygon opacity="0.08" enable-background="new    " points="209.263,214.245 219.98,210.135 183.897,199.559 170.022,195.488 
	162.4,207.779 158.401,214.245 "/>
<polygon opacity="0.08" enable-background="new    " points="203.711,167.586 126.307,197.203 176.275,211.85 "/>
<rect x="152.949" y="108.321" transform="matrix(-0.9679 0.2512 -0.2512 -0.9679 416.0843 209.4029)" fill="#FFD200" width="83.453" height="45.878"/>
<polygon opacity="0.08" enable-background="new    " points="240.829,142.972 160.055,163.941 192.464,122.712 "/>
<polygon opacity="0.08" enable-background="new    " points="229.299,98.565 148.525,119.536 196.9,139.795 "/>
<rect x="211.586" y="47.205" transform="matrix(-0.9145 -0.4047 0.4047 -0.9145 456.5752 236.7941)" fill="#FFD200" width="83.454" height="45.878"/>
<polygon opacity="0.08" enable-background="new    " points="282.2,108.005 205.883,74.236 256.896,62.076 "/>
<polygon opacity="0.08" enable-background="new    " points="300.765,66.045 224.447,32.276 249.762,78.205 "/>
<rect x="184.425" y="227.684" opacity="0.08" enable-background="new    " width="39.219" height="9.938"/>
<polygon opacity="0.08" enable-background="new    " points="263.656,133.197 263.656,142.799 263.656,188.87 311.209,188.87 
	311.209,142.799 311.209,133.197 "/>
<rect x="268.833" y="137.998" fill="#E6E6E6" width="60.139" height="46.071"/>
<rect x="268.833" y="128.396" fill="#B3B3B3" width="60.139" height="9.602"/>
<path fill="#B3B3B3" d="M309.94,169.494h3.522c-1.105,2.236-2.879,4.074-5.075,5.258c-2.948,1.531-6.24,2.282-9.562,2.182
	c-3.236,0.079-6.452-0.551-9.42-1.848c-2.52-1.105-4.598-3.02-5.906-5.439c-1.294-2.404-1.961-5.096-1.939-7.826
	c-0.014-3.026,0.744-6.006,2.203-8.658c1.359-2.562,3.456-4.659,6.019-6.019c2.699-1.383,5.697-2.08,8.729-2.03
	c2.562-0.045,5.1,0.511,7.409,1.624c2.075,1.006,3.8,2.611,4.953,4.608c1.135,1.983,1.724,4.231,1.705,6.516
	c0.02,2.76-0.893,5.445-2.588,7.623c-1.898,2.731-5.028,4.344-8.354,4.304c-0.708,0.038-1.413-0.128-2.03-0.478
	c-0.471-0.34-0.801-0.842-0.924-1.41c-1.184,1.209-2.805,1.89-4.496,1.888c-1.721,0.047-3.379-0.644-4.557-1.897
	c-1.26-1.381-1.912-3.21-1.807-5.076c-0.021-2.536,0.74-5.018,2.182-7.104c1.412-2.408,3.988-3.893,6.78-3.908
	c1.753-0.108,3.423,0.758,4.345,2.253l0.416-1.837h4.363l-2.537,11.947c-0.113,0.478-0.191,0.962-0.233,1.451
	c-0.015,0.224,0.054,0.444,0.193,0.619c0.112,0.136,0.28,0.214,0.456,0.214c0.765-0.125,1.473-0.479,2.03-1.016
	c1.162-0.866,2.102-1.997,2.74-3.299c0.672-1.363,1.02-2.864,1.016-4.385c0.055-2.587-1.02-5.07-2.943-6.8
	c-1.956-1.827-4.692-2.741-8.212-2.741c-2.652-0.083-5.277,0.548-7.602,1.827c-2.057,1.191-3.694,2.989-4.689,5.146
	c-1.043,2.152-1.584,4.512-1.584,6.902c-0.023,2.238,0.586,4.438,1.756,6.344c1.156,1.893,2.895,3.359,4.953,4.182
	c4.532,1.67,9.498,1.745,14.078,0.214C307.144,172.154,308.736,171.003,309.94,169.494z M292.066,162.693
	c-0.078,1.083,0.224,2.16,0.853,3.045c0.507,0.643,1.282,1.017,2.101,1.016c0.623,0.002,1.236-0.159,1.776-0.468
	c0.47-0.262,0.89-0.605,1.239-1.015c0.689-0.875,1.202-1.874,1.512-2.943c0.404-1.163,0.62-2.383,0.639-3.613
	c0.066-1.029-0.244-2.046-0.872-2.863c-0.537-0.655-1.345-1.029-2.192-1.015c-0.986,0.017-1.928,0.413-2.629,1.106
	c-0.879,0.857-1.506,1.938-1.816,3.127C292.299,160.242,292.094,161.463,292.066,162.693z"/>
<rect x="94.689" y="132.943" opacity="0.08" enable-background="new    " width="31.018" height="35.343"/>
<rect x="83.91" y="127.462" fill="#E6E6E6" width="37.748" height="35.342"/>
<polygon fill="#B3B3B3" points="110.757,142.058 102.779,133.816 94.801,142.058 98.455,142.058 98.455,156.461 107.103,156.461 
	107.103,142.058 "/>
</svg>
