<?xml version="1.0" encoding="utf-8"?>
<!-- Generator: Adobe Illustrator 16.0.0, SVG Export Plug-In . SVG Version: 6.00 Build 0)  -->
<!DOCTYPE svg PUBLIC "-//W3C//DTD SVG 1.1//EN" "http://www.w3.org/Graphics/SVG/1.1/DTD/svg11.dtd">
<svg version="1.1" id="Layer_1" xmlns="http://www.w3.org/2000/svg" xmlns:xlink="http://www.w3.org/1999/xlink" x="0px" y="0px"
	 width="342px" height="256.5px" viewBox="0 0 342 256.5" enable-background="new 0 0 342 256.5" xml:space="preserve">
<title>#15 calendar</title>
<ellipse opacity="0.1" fill="#E6E6E6" enable-background="new    " cx="170.999" cy="225.312" rx="139.239" ry="20.014"/>
<rect x="88.531" y="41.611" fill="#E6E6E6" width="159.799" height="183.702"/>
<rect x="207.359" y="145.73" fill="#24285B" width="22.325" height="20.619"/>
<rect x="207.359" y="176.229" fill="#A5A5A5" width="22.325" height="20.619"/>
<path opacity="0.08" enable-background="new    " d="M213.548,160.279c0,0-40.665,6.754-21.612,65.033h43.521L213.548,160.279z"/>
<rect x="85.903" y="28.261" fill="#3995B8" width="165.253" height="46.01"/>
<circle fill="#FF1E00" cx="239.096" cy="187.783" r="37.539"/>
<rect x="117.829" y="11.173" fill="#F2F2F2" width="13.25" height="40.098"/>
<rect x="131.079" y="27.954" opacity="0.08" enable-background="new    " width="8.748" height="23.308"/>
<rect x="218.517" y="27.954" opacity="0.08" enable-background="new    " width="8.747" height="23.308"/>
<rect x="205.266" y="11.173" fill="#F2F2F2" width="13.251" height="40.098"/>
<rect x="110.301" y="92.6" fill="#24285B" width="36.271" height="10.969"/>
<rect x="111.382" y="115.42" fill="#FFFFFF" width="22.326" height="20.621"/>
<rect x="143.784" y="115.42" opacity="0.32" fill="#A5A5A5" enable-background="new    " width="22.325" height="20.621"/>
<rect x="175.849" y="115.42" fill="#FFD200" width="22.326" height="20.621"/>
<rect x="207.359" y="115.42" fill="#24285B" width="22.325" height="20.621"/>
<rect x="111.382" y="145.73" fill="#FFFFFF" width="22.326" height="20.619"/>
<rect x="143.784" y="145.73" opacity="0.32" fill="#A5A5A5" enable-background="new    " width="22.325" height="20.619"/>
<rect x="175.849" y="145.73" opacity="0.32" fill="#A5A5A5" enable-background="new    " width="22.326" height="20.619"/>
<rect x="111.382" y="176.229" fill="#FFFFFF" width="22.326" height="20.619"/>
<rect x="143.784" y="176.229" opacity="0.32" fill="#A5A5A5" enable-background="new    " width="22.325" height="20.619"/>
<rect x="175.849" y="176.229" opacity="0.32" fill="#A5A5A5" enable-background="new    " width="22.326" height="20.619"/>
<rect x="88.531" y="74.271" opacity="0.32" fill="#A5A5A5" enable-background="new    " width="159.799" height="9.541"/>
<g>
	
		<line fill="none" stroke="#FFFFFF" stroke-width="10" stroke-linecap="round" stroke-linejoin="round" x1="253.229" y1="172.717" x2="224.963" y2="202.846"/>
	
		<line fill="none" stroke="#FFFFFF" stroke-width="10" stroke-linecap="round" stroke-linejoin="round" x1="224.963" y1="172.717" x2="253.229" y2="202.846"/>
</g>
</svg>
