<?xml version="1.0" encoding="utf-8"?>
<!-- Generator: Adobe Illustrator 16.0.0, SVG Export Plug-In . SVG Version: 6.00 Build 0)  -->
<!DOCTYPE svg PUBLIC "-//W3C//DTD SVG 1.1//EN" "http://www.w3.org/Graphics/SVG/1.1/DTD/svg11.dtd">
<svg version="1.1" id="Layer_1" xmlns="http://www.w3.org/2000/svg" xmlns:xlink="http://www.w3.org/1999/xlink" x="0px" y="0px"
	 width="406px" height="306px" viewBox="0 0 406 306" enable-background="new 0 0 406 306" xml:space="preserve">
<ellipse opacity="0.1" fill="#E6E6E6" enable-background="new    " cx="204.411" cy="158.149" rx="140.135" ry="101.693"/>
<path fill="#3995B8" d="M179.45,93.687c0,0,32.084-4.71,82.677-72.446l17.743,140.783c0,0-54.525-34.569-91.695-20.816
	C188.175,141.206,168.042,119.661,179.45,93.687z"/>
<ellipse transform="matrix(-0.9949 0.1009 -0.1009 -0.9949 574.839 148.3238)" fill="#24285B" cx="283.668" cy="88.699" rx="40.21" ry="74.341"/>
<path fill="#3995B8" d="M149.451,145.116c0,0-3.793,18.449,14.622,21.474c18.415,3.027,39.75,49.877,39.75,49.877l22.747-13.883
	c0,0-39.102-52.677-27.328-64.063L149.451,145.116z"/>
<path opacity="0.46" fill="#FFFFFF" enable-background="new    " d="M149.451,145.116c0,0-3.792,18.449,14.622,21.476
	c18.415,3.025,39.75,49.875,39.75,49.875l22.746-13.883c0,0-39.102-52.676-27.327-64.062L149.451,145.116z"/>
<path fill="#3995B8" d="M250.588,125.312l35.899-12.069l-4.273-42.045l-39.279,2.543C242.935,73.742,239.779,96.936,250.588,125.312
	z"/>
<path opacity="0.3" enable-background="new    " d="M250.588,125.312l35.899-12.069l-4.273-42.045l-39.279,2.543
	C242.935,73.742,239.779,96.936,250.588,125.312z"/>
<ellipse transform="matrix(-0.9949 0.1009 -0.1009 -0.9949 576.5494 155.2992)" fill="#3995B8" cx="284.348" cy="92.227" rx="11.433" ry="21.134"/>
<path fill="#24285B" d="M183.253,92.734c0,0-52.983,12.574-55.95,23.735c-2.968,11.161,6.335,36.499,19.498,36.04
	c13.164-0.46,40.408-12.398,40.408-12.398S173.646,114.185,183.253,92.734z"/>
<polygon fill="#F4A28C" points="81.55,263.975 164.097,197.521 189.718,217.926 146.235,284.463 "/>
<path fill="#D68676" d="M203.139,159.998c6.973-0.588,13.511,3.443,16.119,9.938c4.709,11.314,4.532,18.695-7.876,22.781
	c-12.409,4.086-15.4-29.092-15.4-29.092L203.139,159.998z"/>
<path fill="#24285B" d="M191.494,139.558l10.102,21.77l10.667-6.029c2.637-1.455,3.749-4.666,2.581-7.441l-4.076-9.807
	C210.77,138.05,199.242,136.19,191.494,139.558z"/>
<path fill="#F4A28C" d="M162.048,202.455c0,0,3.851-36.418,16.978-40.773c13.128-4.355,29.142,4.711,21.464,14.459
	c-7.677,9.748-17.448-0.906-17.448-0.906l15.141,30.26l-8.465,12.432L162.048,202.455z"/>
<path fill="#F4A28C" d="M198.959,145.623c1.714-1.259,4.046-1.259,5.757,0c2.003,1.448,4.204,3.933,3.238,7.43
	c-1.66,6.016-12.175,13.975-16.484,10.739C187.845,161.059,193.108,149.93,198.959,145.623z"/>
<polygon fill="#FFD200" points="72.378,261.654 149.121,286.908 187.21,231.195 146.93,202.736 "/>
<polygon opacity="0.06" enable-background="new    " points="173.221,221.305 118.614,276.867 149.121,286.908 187.21,231.195 "/>
</svg>
