<?xml version="1.0" encoding="utf-8"?>
<!-- Generator: Adobe Illustrator 16.0.0, SVG Export Plug-In . SVG Version: 6.00 Build 0)  -->
<!DOCTYPE svg PUBLIC "-//W3C//DTD SVG 1.1//EN" "http://www.w3.org/Graphics/SVG/1.1/DTD/svg11.dtd">
<svg version="1.1" id="Layer_1" xmlns="http://www.w3.org/2000/svg" xmlns:xlink="http://www.w3.org/1999/xlink" x="0px" y="0px"
	 width="406px" height="306px" viewBox="0 0 406 306" enable-background="new 0 0 406 306" xml:space="preserve">
<rect x="104.778" y="73.617" fill="#E6E6E6" width="195.813" height="142.192"/>
<path opacity="0.05" enable-background="new    " d="M295.436,111.7c0,0-4.06-1.147-5.471,5.004c-1.41,6.151-0.751,7.48,2.244,9.023
	c2.994,1.542,1.461,11.53-3.99,11.317c-5.45-0.213-9.886-4.618-12.555,0c-2.67,4.619-5.369,38.57-16.524,31.201
	c-11.155-7.368-13.651-35.434-13.651-35.434l-19.936-0.294v22.016l15.51-0.315c0,0,2.03,27.04,23.802,33.079
	c4.42,1.179,7.048,5.717,5.869,10.137c-0.035,0.131-0.073,0.26-0.114,0.389l-5.856,17.976h33.708v-23.71
	C298.471,192.088,300.074,118.49,295.436,111.7z"/>
<ellipse opacity="0.1" fill="#E6E6E6" enable-background="new    " cx="296.989" cy="242.919" rx="58.524" ry="8.719"/>
<ellipse opacity="0.1" fill="#E6E6E6" enable-background="new    " cx="91.938" cy="242.919" rx="51.105" ry="8.719"/>
<path opacity="0.58" fill="#3995B8" enable-background="new    " d="M339.781,234.2c0,0,5.969-1.604,7.288-7.105
	c0,0-9.227-1.908-9.531,7.623L339.781,234.2z"/>
<path opacity="0.73" fill="#3995B8" enable-background="new    " d="M339.01,233.621c0,0,4.192-6.557,0.559-12.728
	c-4.157,2.777-5.807,8.083-3.959,12.728H339.01z"/>
<path fill="#3995B8" d="M337.995,233.621c0,0-2.173-6.952-8.811-8.303c0,0-1.269,4.507,4.263,8.303H337.995z"/>
<polygon fill="#24285B" points="342.309,233.489 341.061,241.741 333.458,241.741 332.372,233.489 "/>
<path fill="#F4A28C" d="M294.451,132.822c0,0-12.677-1.695-15.225,8.902c-2.548,10.596-2.902,25.263-13.094,28.196
	c-10.19,2.934-15.813-17.428-15.813-17.428s-2.365-5.714-4.913-6.496c-2.547-0.782-4.364,4.862,0,8.313
	c0,0,3.686,26.004,23.203,25.091C288.128,178.486,294.451,151.681,294.451,132.822z"/>
<path opacity="0.08" enable-background="new    " d="M294.451,132.822c0,0-12.677-1.695-15.225,8.902
	c-2.548,10.596-2.902,25.263-13.094,28.196c-10.19,2.934-15.813-17.428-15.813-17.428s-2.365-5.714-4.913-6.496
	c-2.547-0.782-4.364,4.862,0,8.313c0,0,3.686,26.004,23.203,25.091C288.128,178.486,294.451,151.681,294.451,132.822z"/>
<path fill="#3995B8" d="M294.451,132.822c0,0-13.611-2.69-15.52,8.313c-1.038,6.304-2.806,12.466-5.268,18.361l10.394,3.369
	L294.451,132.822z"/>
<path opacity="0.46" fill="#FFFFFF" enable-background="new    " d="M294.451,132.822c0,0-13.611-2.69-15.52,8.313
	c-1.038,6.304-2.806,12.466-5.268,18.361l10.394,3.369L294.451,132.822z"/>
<path fill="#F4A28C" d="M295.102,114.948c-0.962,2.059-1.645,4.236-2.03,6.476c-0.128,1.114,0.673,2.12,1.786,2.248
	c0.021,0.002,0.041,0.004,0.061,0.006c1.76,0.288,3.523-0.483,4.507-1.969l2.386-2.923c0.854-1.305,0.789-3.007-0.162-4.243
	C300.044,112.187,296.045,112.633,295.102,114.948z"/>
<polygon fill="#F4A28C" points="300.887,119.454 301.851,132.822 294.451,132.822 296.664,123.342 "/>
<path fill="#F4A28C" d="M294.117,117.333l-1.614,1.076c-0.306,0.199-0.393,0.607-0.194,0.913c0.051,0.078,0.117,0.144,0.194,0.194
	l1.36,0.822L294.117,117.333z"/>
<path opacity="0.31" fill="#CE8172" enable-background="new    " d="M296.604,123.565c0.891-0.157,1.723-0.553,2.405-1.147
	c0,0,0.487,2.893-3.045,3.867L296.604,123.565z"/>
<path fill="#F4A28C" d="M298.471,119.292c0,0,0.578-1.472,1.645-0.944c1.065,0.528,0.254,2.649-1.33,2.284L298.471,119.292z"/>
<polygon fill="#F4A28C" points="281.074,208.927 274.812,237.387 278.455,237.387 290.635,208.927 "/>
<polygon fill="#F4A28C" points="301.445,205.476 308.123,237.387 311.787,237.387 311.229,205.242 "/>
<path fill="#3995B8" d="M274.812,237.387c0,0-2.03,2.559-4.608,2.437s-2.964,3.522,1.197,3.146c1.296-0.108,2.58-0.329,3.837-0.66
	c1.158-0.264,2.365-0.222,3.502,0.122c0.455,0.111,0.931-0.076,1.188-0.467c1.178-1.391-1.716-4.578-1.716-4.578H274.812z"/>
<path fill="#3995B8" d="M311.514,237.387c0,0,2.03,2.559,4.608,2.437c2.577-0.122,2.964,3.522-1.188,3.146
	c-1.295-0.107-2.579-0.328-3.836-0.66c-1.162-0.264-2.371-0.222-3.512,0.122c-0.452,0.113-0.926-0.074-1.178-0.467
	c-1.188-1.391,1.715-4.578,1.715-4.578H311.514z"/>
<path fill="#3995B8" d="M294.451,132.822h7.399c0,0,0.508,0,1.381,0c16.148,0.518,25.527,18.453,16.95,32.145
	c-4.771,7.612-10.465,17.874-10.84,24.005l-28.775-1.462c0,0,2.172-18.666-3.156-29.333
	C277.41,158.187,267.604,141.389,294.451,132.822z"/>
<path opacity="0.08" enable-background="new    " d="M307.301,142.596c0,0-3.572,7.399-4.425,20.707
	c-0.853,13.307-21.041-2.416-21.041-2.416l-0.934,21.984l29.384,1.594l2.446-8.912C312.731,175.553,320.436,161.719,307.301,142.596
	z"/>
<rect x="278.576" y="149.565" transform="matrix(0.9932 -0.1163 0.1163 0.9932 -17.179 34.6499)" fill="#FFD200" width="19.315" height="29.841"/>
<rect x="282.082" y="147.784" transform="matrix(0.9932 -0.1164 0.1164 0.9932 -15.5039 34.3647)" fill="#24285B" width="8.993" height="4.375"/>
<polygon fill="#24285B" points="280.901,182.871 310.285,184.424 318.142,214.184 275.664,212.672 "/>
<polygon opacity="0.08" enable-background="new    " points="278.069,160.928 298.471,169.067 299.547,178.213 280.363,180.466 "/>
<path fill="#F4A28C" d="M307.545,144.017c-0.129-3.456,2.569-6.362,6.025-6.491c1.953-0.073,3.827,0.77,5.068,2.278
	c4.172,5.006,6.381,11.36,6.212,17.875c-0.243,17.417-2.588,36.275-40.163,15.671l2.029-5.521c0,0,16.677,8.019,23.64,5.42
	C315.473,171.32,308.072,155.984,307.545,144.017z"/>
<path fill="#F4A28C" d="M286.707,167.818c0,0-6.263-2.973-8.932,0c-2.67,2.975,1.572,5.645,6.912,5.522L286.707,167.818z"/>
<path fill="#24285B" d="M294.451,112.979l-1.289,3.218l5.309,2.03c0,0,0.305,3.573-1.573,4.222c0.88-0.045,1.704-0.444,2.284-1.106
	c0.465-0.511,1.251-0.56,1.775-0.112l0.062,0.061c1.524-1.498,2.597-3.394,3.096-5.471c0.609-3.146-2.913-3.633-2.913-3.633
	S296.543,108.918,294.451,112.979z"/>
<path fill="#24285B" d="M301.201,112.197c0,0,0.244-3.045,5.704-2.548c5.461,0.497,0,7.846,4.486,14.717
	c0,0-8.252-1.746-8.485-9.135L301.201,112.197z"/>
<path fill="#FFD200" d="M300.866,111.984c0.845-0.46,1.884-0.373,2.64,0.223c1.542,1.015,2.223,4.537-0.214,5.765
	C303.292,117.972,305.312,113.141,300.866,111.984z"/>
<path fill="#3995B8" d="M309.93,162.865h16.007c0,0,1.757-23.345-11.489-26.39S309.93,162.865,309.93,162.865z"/>
<path opacity="0.46" fill="#FFFFFF" enable-background="new    " d="M309.93,162.865h16.007c0,0,1.757-23.345-11.489-26.39
	S309.93,162.865,309.93,162.865z"/>
<rect x="233.48" y="130.782" fill="#24285B" width="24.005" height="20.026"/>
<polygon opacity="0.62" fill="#FFFFFF" enable-background="new    " points="254.988,147.702 249.264,137.491 245.254,145.053 
	240.402,138.638 235.541,147.702 "/>
<circle fill="#FFFFFF" cx="244.371" cy="136.344" r="1.908"/>
<path opacity="0.05" enable-background="new    " d="M119.272,142.292l-12.728,0.345l-4.192,73.172h18.27
	c1.015-3.482,3.654-21.59,13.581-32.074c9.765-10.322,49.634-37.078,35.028-55.145c-7.105-8.8-19.042,24.796-19.042,24.796
	l-18.798,2.233l1.289-0.67L119.272,142.292z"/>
<polygon fill="#F4A28C" points="91.218,124.021 93.329,130.345 88.325,133.522 86.529,122.57 "/>
<path fill="#F4A28C" d="M84.813,116.46c0.85-1.996,3.157-2.925,5.153-2.075c0.528,0.225,1,0.562,1.384,0.989
	c2.121,2.273,4.689,5.887,1.786,7.846c-4.436,3.045-8.516-2.608-8.516-2.608C84.27,119.239,84.337,117.793,84.813,116.46z"/>
<path fill="#F4A28C" d="M88.062,120.337c0,0-1.147-0.954-1.654,0.406c-0.508,1.36,1.492,2.03,2.091,1.319
	C89.097,121.353,88.062,120.337,88.062,120.337z"/>
<path fill="#3995B8" d="M78.013,136.76c0,0-20.563,12.403-23.274,41.615c-0.483,5.018,2.789,9.629,7.684,10.83l24.106,5.816
	L78.013,136.76z"/>
<path opacity="0.2" fill="#FFFFFF" enable-background="new    " d="M78.013,136.76c0,0-20.563,12.403-23.274,41.615
	c-0.483,5.018,2.789,9.629,7.684,10.83l24.106,5.816L78.013,136.76z"/>
<rect x="58.208" y="178.393" transform="matrix(-0.9086 0.4176 -0.4176 -0.9086 223.5217 330.62)" fill="#FFD200" width="34.774" height="22.736"/>
<path fill="#24285B" d="M88.69,118.703c0,0,2.355,6.76-1.756,6.333c-4.11-0.426-1.867-3.329-3.908-6.333
	c-2.04-3.004-1.015-5.075,2.152-7.684c1.431-1.208,2.385-1.776,2.964-2.416c0.792-0.931,2.188-1.044,3.119-0.252
	c0.251,0.213,0.451,0.479,0.585,0.78C92.913,111.73,92.923,115.201,88.69,118.703z"/>
<path fill="#3995B8" d="M73.252,142.85c1.975-4.386,5.762-7.696,10.374-9.064c8.8-2.639,25.497-8.181,30.45,0
	c6.75,11.256-3.644,55.46-3.644,55.46l-29.567,2.324C80.865,191.57,64.615,162.246,73.252,142.85z"/>
<polygon fill="#24285B" points="110.412,189.266 106.524,240.066 100.384,240.066 94.893,200.594 81.312,191.561 "/>
<polygon fill="#24285B" points="81.312,191.561 72.836,240.066 79.424,240.066 93.644,199.771 "/>
<path opacity="0.08" enable-background="new    " d="M86.184,132.994c0,0-13.824,44.518,26.085,47.461l-1.857,8.811l-29.546,2.305
	c-6.79-11.973-10.232-25.551-9.968-39.312c0,0,0.254-11.348,8.242-16.372C81.256,134.434,83.657,133.448,86.184,132.994z"/>
<path fill="#3995B8" d="M74.034,240.066l-4.06,3.045c-0.398,0.301-0.477,0.867-0.176,1.266c0.167,0.221,0.427,0.354,0.704,0.359
	h6.851c0.495,0,0.898-0.398,0.903-0.894v-3.735L74.034,240.066z"/>
<path fill="#3995B8" d="M106.352,240.066l3.847,3.045c0.398,0.301,0.478,0.867,0.177,1.266c-0.174,0.23-0.447,0.363-0.735,0.359
	h-4.882c-1.435,0-2.599-1.164-2.599-2.6v-2.029L106.352,240.066z"/>
<path fill="#3995B8" d="M166.785,129.229l-4.385-1.289l-19.478,16.94l0,0c-2.914,2.525-6.956,3.299-10.596,2.03
	c-5.296-1.802-9.8-5.39-12.738-10.15c-6.983-11.327-18.849-7.237-18.849-7.237s-8.942,8.81,8.77,23.923
	c10.576,9.023,21.406,9.592,28.42,8.587c0.856-0.104,1.716-0.16,2.578-0.172c0.829-0.029,1.644-0.211,2.406-0.538
	c0.942-0.403,1.861-0.861,2.75-1.37l0,0C152.849,155.801,160.593,147.012,166.785,129.229z"/>
<path opacity="0.2" fill="#FFFFFF" enable-background="new    " d="M166.785,129.229l-4.385-1.289l-19.478,16.94l0,0
	c-2.914,2.525-6.956,3.299-10.596,2.03c-5.296-1.802-9.8-5.39-12.738-10.15c-6.983-11.327-18.849-7.237-18.849-7.237
	s-8.942,8.81,8.77,23.923c10.576,9.023,21.406,9.592,28.42,8.587c0.856-0.104,1.716-0.16,2.578-0.172
	c0.829-0.029,1.644-0.211,2.406-0.538c0.942-0.403,1.861-0.861,2.75-1.37l0,0C152.849,155.801,160.593,147.012,166.785,129.229z"/>
<path fill="#F4A28C" d="M162.4,127.939c0,0,2.466-7.105,4.425-7.602c1.959-0.498,0,3.796,0,3.796s5.38,2.639,0,5.075L162.4,127.939z
	"/>
<path opacity="0.55" fill="#878787" enable-background="new    " d="M183.786,146.656l-4.162,5.217
	c-4.426,5.555-6.515,12.613-5.826,19.682l0.802,8.119l12.18-11.062L183.786,146.656z"/>
<path opacity="0.55" fill="#878787" enable-background="new    " d="M213.008,146.656l4.162,5.217
	c4.43,5.553,6.52,12.612,5.826,19.682l-0.792,8.119l-12.181-11.062L213.008,146.656z"/>
<path opacity="0.55" fill="#FFFFFF" enable-background="new    " d="M192.85,170.336c0,0,3.796,22.33-2.446,24.208
	s-9.135-8.201-17.376-2.202c-8.242,5.998,2.324,12.605-12.231,10.769s-20.199,5.339-16.768,12.698h107.417
	c0,0,5.391-6.832-0.608-11.48c-2.639-1.984-6.009-2.725-9.236-2.029c-1.658,0.28-3.229-0.837-3.511-2.495
	c-0.03-0.182-0.045-0.366-0.042-0.55c0.062-2.203-0.314-4.699-2.03-6.223c-2.029-1.857-6.344,0.082-9.551,2.03
	c-3.642,2.245-7.928,3.209-12.18,2.741c-3.726-0.447-7.542-1.686-8.577-4.751c-2.202-6.485-0.862-23.151-0.862-23.151
	L192.85,170.336z"/>
<path fill="#C1C1C1" d="M198.412,100.332c0,0-30.754,16.879-11.622,68.269h23.253C229.177,117.211,198.412,100.332,198.412,100.332z
	"/>
<polygon fill="#878787" points="210.044,168.601 209.009,172.539 187.907,172.539 186.791,168.134 "/>
<circle fill="#E6E6E6" cx="198.636" cy="130.477" r="7.897"/>
<circle fill="#FFD200" cx="118.785" cy="88.131" r="4.943"/>
<circle fill="#3995B8" cx="132.691" cy="88.131" r="4.943"/>
<circle fill="#24285B" cx="146.018" cy="88.131" r="4.943"/>
<rect x="220.123" y="58.768" fill="#F4F4F4" width="66.584" height="46.172"/>
<rect x="235.876" y="85.401" fill="#C1C1C1" width="7.491" height="9.582"/>
<rect x="249.873" y="78.032" fill="#C1C1C1" width="7.49" height="16.95"/>
<rect x="263.605" y="70.511" fill="#C1C1C1" width="7.49" height="24.472"/>
</svg>
