<svg width="220" height="218" viewBox="0 0 220 218" fill="none" xmlns="http://www.w3.org/2000/svg">
<path d="M103 0L0 0L219.5 217.5L219.5 116.5L103 0Z" fill="#A045AC"/>
<path fill-rule="evenodd" clip-rule="evenodd" d="M139.796 95.7611C147.17 93.921 152 87.396 152 79.6506C152 76.0303 150.578 72.5582 148.046 69.9982C145.514 67.4382 142.08 66 138.5 66C134.92 66 131.486 67.4382 128.954 69.9982C126.422 72.5582 125 76.0303 125 79.6506C125 87.396 129.83 93.921 137.204 95.7611L136.545 97.0907C136.505 97.171 136.482 97.2585 136.476 97.348C136.469 97.4376 136.48 97.5275 136.509 97.6127C136.565 97.7847 136.687 97.9269 136.848 98.008C137.008 98.0891 137.194 98.1025 137.364 98.0451C137.534 97.9878 137.675 97.8645 137.755 97.7023L137.863 97.4838C137.887 97.948 137.928 98.3438 138 98.7124C138.184 99.6516 138.562 100.411 139.21 101.721L139.245 101.797C139.818 102.95 139.737 104.118 139.38 105.199C139.016 106.297 138.392 107.25 137.938 107.938C137.839 108.088 137.803 108.273 137.838 108.45C137.872 108.628 137.976 108.784 138.125 108.885C138.274 108.986 138.456 109.022 138.632 108.987C138.807 108.952 138.962 108.847 139.062 108.696L139.072 108.677C139.521 108 140.236 106.914 140.66 105.633C141.092 104.326 141.232 102.764 140.455 101.186C139.758 99.7799 139.469 99.1875 139.324 98.4449C139.274 98.1842 139.241 97.9207 139.224 97.6558L139.245 97.7023C139.325 97.8645 139.466 97.9878 139.636 98.0451C139.806 98.1025 139.992 98.0891 140.152 98.008C140.313 97.9269 140.435 97.7847 140.491 97.6127C140.548 97.4407 140.535 97.2529 140.455 97.0907L139.796 95.7611ZM128.65 75.1623C129.412 73.4566 130.594 71.9772 132.083 70.8657C133.573 69.7543 135.319 69.0481 137.155 68.8148C137.89 68.7219 138.5 69.3417 138.5 70.0952C138.5 70.8487 137.89 71.4493 137.155 71.5749C134.59 72.0172 132.433 73.7044 131.288 75.9895C131.162 76.2606 130.964 76.4909 130.716 76.6552C130.468 76.8195 130.18 76.9114 129.884 76.9205C128.95 76.9205 128.267 76.0223 128.65 75.1623Z" fill="white"/>
</svg>
