<?xml version="1.0" encoding="utf-8"?>
<!-- Generator: Adobe Illustrator 16.0.0, SVG Export Plug-In . SVG Version: 6.00 Build 0)  -->
<!DOCTYPE svg PUBLIC "-//W3C//DTD SVG 1.1//EN" "http://www.w3.org/Graphics/SVG/1.1/DTD/svg11.dtd">
<svg version="1.1" id="Layer_1" xmlns="http://www.w3.org/2000/svg" xmlns:xlink="http://www.w3.org/1999/xlink" x="0px" y="0px"
	 width="540px" height="540px" viewBox="0 0 540 540" enable-background="new 0 0 540 540" xml:space="preserve">
<path fill="#F0B90B" d="M123.864,270l-60.152,60.151L3.409,270l60.151-60.151L123.864,270z M270.076,123.788L373.258,226.97
	l60.151-60.151L270.076,3.333L106.591,166.818l60.151,60.151L270.076,123.788z M476.439,209.849L416.288,270l60.151,60.151
	L536.591,270L476.439,209.849z M270.076,416.212L166.895,313.03l-60.152,60.151l163.334,163.485l163.333-163.485l-60.151-60.151
	L270.076,416.212z M270.076,330.151L330.228,270l-60.151-60.151L209.772,270L270.076,330.151z"/>
</svg>
