<?xml version="1.0" encoding="utf-8"?>
<!-- Generator: Adobe Illustrator 16.0.0, SVG Export Plug-In . SVG Version: 6.00 Build 0)  -->
<!DOCTYPE svg PUBLIC "-//W3C//DTD SVG 1.1//EN" "http://www.w3.org/Graphics/SVG/1.1/DTD/svg11.dtd">
<svg version="1.1" id="Layer_1" xmlns="http://www.w3.org/2000/svg" xmlns:xlink="http://www.w3.org/1999/xlink" x="0px" y="0px"
	 width="540px" height="540px" viewBox="0 0 540 540" enable-background="new 0 0 540 540" xml:space="preserve">
<path fill="#F0B90B" d="M151.63,270l-48.723,48.721L54.062,270l48.722-48.722L151.63,270z M270.062,151.568l83.577,83.578
	l48.723-48.723L270.062,54L137.639,186.422l48.723,48.722L270.062,151.568z M437.217,221.277L388.494,270l48.723,48.721L485.938,270
	L437.217,221.277z M270.062,388.431l-83.577-83.577l-48.723,48.723l132.301,132.423l132.3-132.423l-48.723-48.723L270.062,388.431z
	 M270.062,318.721L318.785,270l-48.722-48.722L221.216,270L270.062,318.721z"/>
</svg>
