<?xml version="1.0" encoding="utf-8"?>
<!-- Generator: Adobe Illustrator 16.0.0, SVG Export Plug-In . SVG Version: 6.00 Build 0)  -->
<!DOCTYPE svg PUBLIC "-//W3C//DTD SVG 1.1//EN" "http://www.w3.org/Graphics/SVG/1.1/DTD/svg11.dtd">
<svg version="1.1" id="Layer_1" xmlns="http://www.w3.org/2000/svg" xmlns:xlink="http://www.w3.org/1999/xlink" x="0px" y="0px"
	 width="600px" height="600px" viewBox="0 0 600 600" enable-background="new 0 0 600 600" xml:space="preserve">
<path d="M600,588c0,6.627-5.373,12-12,12H12c-6.627,0-12-5.373-12-12V12C0,5.373,5.373,0,12,0h576c6.627,0,12,5.373,12,12V588z"/>
<g>
	<path fill="#FFFFFF" d="M289.51,184.546c3.995-4.015,9.395-6.56,14.995-7.295c2.95-0.035,6.01-0.365,8.86,0.595
		c4.09,1.405,7.895,4.03,10.055,7.845c0.47,0.69,0.24,1.58,0.324,2.36c-1.484,2.14-4.104,0.94-6.095,0.4
		c-5.104-1.055-10.63,0.78-14.364,4.355c-3.131,3.57-5.49,7.74-7.325,12.105c-4.061,9.78-6.845,20.015-9.62,30.21
		c-2.33,7.81-4.52,15.665-6.425,23.595c-0.575,3.271-1.54,6.51-1.21,9.86c0.21,1.39-0.476,2.87-1.94,3.155
		c-4.025,0.715-8.22,0.6-12.165-0.51c-1.375-0.7-2.71-1.76-3.35-3.189c-0.47-2.805,0.314-5.63,0.955-8.351
		c2.02-9.74,4.649-19.35,7.194-28.965c2.755-9.68,4.73-19.64,8.795-28.895C281.035,195.542,284.3,189.211,289.51,184.546z"/>
	<path fill="#FFFFFF" d="M309.8,197.372c2.825-0.275,6.09-0.6,8.365,1.465c2.215,1.66,2.85,4.585,3.015,7.19
		c-0.335,3.585-1.67,7.279-4.465,9.685c-2.115,1.65-4.815,2.78-7.53,2.38c-2.42-0.495-5.064-1.485-6.29-3.795
		c-1.59-3.05-1.34-6.665-0.149-9.81C303.88,201.221,306.699,198.751,309.8,197.372z"/>
	<g>
		<path fill="#FFFFFF" d="M167.155,197.437c8.45-0.58,17.235-0.12,25.015,3.54c4.28,2.085,7.985,5.52,9.645,10.065
			c1.795,4.74,1.29,10.195-1.189,14.6c-1.601,3.525-4.555,6.1-7.23,8.79c-4.99,4.285-10.915,7.385-17.1,9.565
			c7.35,12.285,10.625,26.425,17.08,39.13c2.314,3.93,4.82,7.785,7.87,11.185c3.654,3.365,8.01,6.23,12.955,7.204
			c4.155,1.191,8.535,0.855,12.805,0.746c12.37-1.51,24.32-5.465,35.585-10.715c3.185-1.415,6.145-3.285,9.335-4.69
			c3.505-1.555,6.725-3.655,10.16-5.34c5.115-2.49,9.85-5.755,15.22-7.73c3.63-1.71,7.295-3.365,11.085-4.695
			c5.63-2.36,11.646-3.564,17.61-4.735c2.939-1,6.095-0.205,9.074-0.935c1.865,0.385,3.771,0.305,5.66,0.46
			c4.186,0.8,8.75,2.45,11.04,6.305c1.115,1.645,1.91,3.49,2.405,5.415c0.18,2.31,0.125,4.635,0.064,6.95
			c-1.274,7.19-5.189,13.775-10.494,18.736c-1.83,1.779-3.405,3.885-5.615,5.225c-2.68,1.811-5.405,3.859-8.68,4.369
			c-1.66,0.26-3.79-0.934-3.306-2.844c-0.375-1.971,1.535-2.951,2.55-4.295c3.235-4.041,6.03-8.661,6.961-13.816
			c0.535-3.689-0.541-7.68-3.141-10.399c-2.27-2.16-5.56-2.385-8.51-2.655c-5.085,0.565-10.311,0.705-15.16,2.575
			c-5.195,1.205-10.06,3.479-14.87,5.729c-2.585,1.05-5.075,2.32-7.41,3.845c-4.96,2.415-9.79,5.07-14.59,7.785
			c-5.165,2.681-9.99,6.01-15.354,8.305c-9.905,5.135-20.226,9.605-31.12,12.16c-8.365,1.664-17.295,2.625-25.51-0.33
			c-4.415-1.41-8.325-4.045-11.57-7.32c-5.455-5.189-9.185-11.915-12.055-18.794c-5.89-13.85-8.5-28.785-13.86-42.81
			c-2.15,6.865-3.26,14.02-4.255,21.13c-0.56,3.13-0.04,6.44-1.225,9.445c-0.47,1.425-2.19,1.725-3.5,1.73
			c-3.825,0.045-7.785,0.465-11.47-0.805c-1.55-0.5-2.99-1.495-3.73-2.98c-0.155-1.91-0.09-3.84,0.03-5.75
			c2.39-15.13,5.88-30.065,9.895-44.84c1.525-5.255,3.125-10.555,5.845-15.33c-3.85,0.715-7.155,3.02-10.265,5.28
			c-3.27,2.18-5.77,5.54-6.915,9.295c-1.36,3.88-0.37,8.21,1.465,11.765c0.675,1.43,2.255,2.43,2.34,4.11
			c-0.48,1.105-1.5,2.215-2.795,2.175c-5.65,0.4-11.41-1.73-15.58-5.535c-3.075-2.825-4.815-7.005-4.54-11.18
			c0.04-7.41,5.21-13.585,11.065-17.561c10.14-6.79,22.365-9.385,34.25-11.125C164.475,197.767,165.84,197.787,167.155,197.437z
			 M172.74,209.511c-2.045,5.351-3.415,10.915-5.075,16.385c-0.795,3.705-2.26,7.275-2.62,11.065c1.4-0.05,2.845-0.045,4.155-0.61
			c3.975-1.485,7.78-3.91,10.115-7.535c2.565-2.855,3.86-6.58,4.465-10.32c0.265-2.4-0.05-4.935-1.2-7.08
			c-1.81-2.52-4.71-4.4-7.87-4.5C173.54,207.171,173.09,208.501,172.74,209.511z"/>
	</g>
	<path fill="#FFFFFF" d="M346.439,210.501c4.266-2.77,9.355-4.81,14.53-4.19c2.215,0.475,4.615,1.46,5.71,3.6
		c1.925,3.505,1.311,7.715,0.42,11.435c-2.18,7.545-5.765,15.075-4.855,23.115c0.601,2.65,2.025,5.47,4.65,6.595
		c1.84,1.115,4.07,0.84,6.13,0.79c2.761-0.01,5.115-2.905,7.925-1.66c1.36,0.4,0.716,2.115,0.795,3.155
		c-0.494,1.595-1.475,3.07-2.664,4.26c-2.705,2.955-6.09,5.43-9.965,6.575c-5.976,2.12-12.961,2.635-18.686-0.5
		c-2.23-1.02-3.88-2.89-5.49-4.675c-3.274-4.29-3.529-9.995-3.01-15.16c0.72-4.185,1.564-8.385,3.13-12.345
		c1.015-2.48,1.84-5.025,2.806-7.52c0.604-1.39,0.574-2.92,0.494-4.395c-1.75,0.195-2.625,1.9-3.85,2.945
		c-2.295,2.045-3.29,5.04-4.615,7.72c-2.854,6.745-5.3,13.945-4.984,21.365c0.334,1.685-1.58,2.225-2.881,2.25
		c-3.649,0-7.435,0.495-10.965-0.695c-2.07-0.79-4.024-2.745-3.83-5.1c-0.295-3.86,0.99-7.555,1.715-11.3
		c1.646-6.63,3.9-13.155,4.596-19.985c0.604-1.55-0.875-3.25,0.115-4.695c0.645-1.365,2.285-1.64,3.584-2.04
		c4.951-1.1,10.65,1.335,12.775,6.07C342.14,214.221,343.979,211.987,346.439,210.501z"/>
	<g>
		<path fill="#FFFFFF" d="M410.475,207.751c5.29-0.995,10.945-0.355,15.766,2.105c1.64,1.01,3.51,1.975,4.439,3.76
			c0.875,3.04-0.895,5.854-1.814,8.64c-2.9,8.76-3.98,17.97-5.931,26.955c-0.989,4.86-2.05,9.705-3.36,14.49
			c20.496,1.76,40.396,7.78,60.91,9.38c3.65,0.465,7.351,0.235,11.025,0.31c9.415,0.085,19.189-1.115,27.49-5.855
			c2.71-1.525,4.85-3.81,7.015-6c1.465-1.44,2.195-3.62,4.146-4.55c0.965-0.641,2.02,0.16,2.944,0.479
			c0.05,1.811,0.16,3.63-0.01,5.44c-2.905,12.854-12.66,23.955-25.101,28.354c-6.114,1.985-12.619,2.311-18.994,1.95
			c-15.94-1.03-31.006-6.775-46.18-11.285c-8.666-2.985-17.57-5.189-26.496-7.205c-3.375,9.891-8.33,19.771-16.77,26.281
			c-4.064,3.209-9.04,5-14.115,5.785c-2.854,0.049-5.715,1.164-8.54,0.215c-3.79-0.18-7.399-1.736-10.575-3.746
			c-1.979-1.834-4.18-3.625-5.289-6.154c-0.766-1.49-1.291-3.085-1.766-4.68c-0.17-2.765-0.15-5.545-0.005-8.305
			c0.775-4.265,3.185-8.07,6.235-11.085c4.135-3.686,9.104-6.485,14.505-7.8c3.72-1.175,7.625-1.425,11.46-1.945
			c3.895,0.04,7.71-0.75,11.609-0.565c1.811-4.76,3.426-9.645,4.291-14.67c-3.541,2.095-6.936,4.745-11.075,5.535
			c-3.655,0.84-7.921,1.2-11.115-1.15c-2.88-2.005-3.8-5.65-4.306-8.925c-0.664-9.54,3.426-19.225,10.391-25.725
			C396.38,212.562,403.205,208.806,410.475,207.751z M407.555,220.591c-4.095,4.69-7.105,10.436-8.055,16.625
			c-0.43,0.9,0.21,1.75,0.435,2.61c0.255-0.025,0.765-0.075,1.021-0.1c1.904-1.33,3.42-3.17,4.699-5.1
			c2.891-4.365,4.815-9.29,6.33-14.28c0.306-0.895,0.4-1.845,0.485-2.78C410.455,217.761,408.869,219.181,407.555,220.591z
			 M377.71,278.737c-2.66,2.24-3.646,6.635-1.311,9.435c1.72,1.97,4.62,1.86,6.97,1.43c4.285-1.01,7.315-4.405,10.101-7.575
			c1.805-2.825,3.91-5.561,5.015-8.75C391.295,272.961,383.29,273.697,377.71,278.737z"/>
	</g>
	<path fill="#FFFFFF" d="M250.205,215.431c2.564-3.029,7-2.335,10.26-0.975c2.89,1.315,6.07,3.035,7.21,6.205
		c0.08,0.925,0.065,1.855,0.005,2.785c-1.215,7.729-3.785,15.155-5.76,22.71c-3.19,10.865-6.675,21.705-8.575,32.899
		c-0.38,2.23,0.97,5.391-1.595,6.646c-2.765,0.205-5.54,0.955-8.3,0.26c-2.915-0.05-6.385-1.03-7.63-3.965
		c-0.2-1.78-0.135-3.585,0.07-5.36c3.425-17.645,9.705-34.575,13.405-52.155C249.785,221.487,250.439,218.492,250.205,215.431z"/>
	<path fill="#FFFFFF" d="M296.89,223.372c2.34-2.02,5.76-2.475,8.675-1.6c4.26,0.77,8.565,4.175,8.76,8.76
		c-0.114,3.85-1.274,7.57-2.51,11.185c-1.455,5.135-3.494,10.12-4.415,15.396c-0.295,1.975,0.016,3.965-0.069,5.939
		c0.08,0.985-0.815,1.525-1.36,2.2c-3.149,0.295-6.325,0.235-9.48,0.135c-2.655-0.064-5.59-1.295-6.67-3.885
		c-0.715-6.07,1.36-11.96,3.24-17.63c1.271-4.46,2.74-8.875,3.635-13.43C297.005,228.091,296.774,225.727,296.89,223.372z"/>
	<g>
		<path fill="#FFFFFF" d="M202.785,235.827c4.955-4.165,11.33-6.285,17.71-6.915c4.135-0.17,8.47-0.12,12.22,1.855
			c3.425,1.535,5.97,4.725,6.82,8.365c1.12,6.08,0.16,12.5-2.8,17.94c-1.55,2.604-3.095,5.274-5.46,7.234
			c-3.274,3.67-7.564,6.24-12.02,8.205c-6.575,2.295-14.22,3.795-20.76,0.62c-3.32-1.525-5.63-4.645-6.615-8.1
			c-0.215-2.055-1.095-4.115-0.275-6.16c0.355-5.965,3.891-11.28,8.21-15.21C199.14,240.721,200.715,237.812,202.785,235.827z
			 M215.04,247.947c0.745,1.64,1.625,4.149-0.285,5.325c-1.875,0.39-3.8,0.085-5.67-0.17c0.205,3.435-0.715,7.165,1.195,10.275
			c1.13-0.03,2.575,0.465,3.43-0.515c5.189-4.45,6.63-11.575,7.85-17.97c0.42-1.62,0.045-3.28-0.345-4.86
			c-0.12-0.71-0.935-1.42-1.68-1.22C215.774,239.652,212.81,244.412,215.04,247.947z"/>
	</g>
	<path fill="#FFFFFF" d="M68.915,291.372c0.425-0.015,0.85-0.025,1.275-0.04c2,8.84,4.71,17.709,9.77,25.331
		c5.5,8.529,13.79,15.17,23.26,18.805c8.225,3.16,17.015,4.65,25.78,5.234c15.175,0.496,30.37-0.039,45.485-1.324
		c3.31,0.025,6.61-0.195,9.9-0.516c7.225-0.045,14.455-0.18,21.675,0.064c2.48,0.576,5.045,0.246,7.53,0.75
		c5.58,0.791,11.245,1.295,16.61,3.121c3.09,0.715,5.945,2.125,8.91,3.205c3.835,1.375,7.11,3.859,10.56,5.959
		c2.635,1.695,4.66,4.166,7.475,5.611c0.91-2.066,1.285-4.307,1.86-6.471c1.07-4.734,2.31-9.436,3.585-14.115
		c2.425-8.475,7.45-16.709,15.47-20.869c2.43-0.98,4.936-1.852,7.51-2.352c3.805-0.139,7.63-0.234,11.435,0.051
		c4.229,0.895,8.535,3.025,10.63,7c1.045,2.205,1.939,4.654,1.53,7.131c-0.695,1.734-1.061,3.625-2.056,5.225
		c-1.734,1.904-3.074,4.225-5.35,5.57c-3.04,2.51-6.675,4.889-10.795,4.574c-0.41-0.404-0.82-0.801-1.235-1.195
		c-0.155-1.719-0.305-3.574,0.54-5.15c1.46-3.125,1.061-6.619,1.055-9.959c0.07-1.09-0.66-1.955-1.235-2.795
		c-1.805,0.004-3.9-0.285-5.225,1.23c-3.32,4.33-4.305,9.814-5.965,14.879c-1.27,5.17-2.729,10.285-3.845,15.49
		c-0.84,4.811-2.41,9.449-3.4,14.23c-1.61,4.814-3.14,9.684-5.35,14.264c-0.595,1.375-1.185,2.795-2.215,3.916
		c5.055,1.41,10.285,2.09,15.31,3.609c15.505,4.076,30.73,9.545,46.681,11.705c1.97,0.34,4.005,0.08,5.949,0.656
		c7.105,0.238,14.311,0.264,21.24-1.535c3.15-1.041,6.346-2.061,9.2-3.785c3.925-1.891,7.146-4.91,10.115-8.035
		c1.17-0.346,2.395-0.105,3.585,0.01c0.3,1.725,0.564,3.66-0.32,5.266c-1.24,2.439-2.365,5-4.355,6.943
		c-6.539,8.311-15.204,15.342-25.504,18.266c-2.795,0.625-5.575,1.545-8.471,1.484c-2.8,0.035-5.6,0.041-8.395-0.104
		c-4.58-0.99-9.21-1.861-13.631-3.455c-3.129-1.186-6.444-1.82-9.479-3.26c-5.194-2.08-10.405-4.115-15.6-6.201
		c-10.675-4.955-21.715-9.109-32.97-12.549c-3.98,4.139-9.26,6.805-14.74,8.344c-3.49,0.67-7.235,1.27-10.67,0.031
		c-2.93-0.996-5.605-3.131-6.665-6.105c-0.165-1.291-0.141-2.6-0.021-3.891c1.61-4.58,6.26-7.375,10.855-8.174
		c3.375-0.342,6.745-0.721,10.145-0.65c3.13-4.135,4.945-9.125,6.7-13.971c0.445-1.465,1.41-3.18,0.44-4.629
		c-3.615-4.432-8.805-7.111-13.71-9.846c-10.44-4.895-21.52-9.311-33.19-9.621c-3.465-0.729-7.045-0.324-10.56-0.354
		c-2.405,0.639-4.925,0.18-7.345,0.719c-8.755,0.906-17.335,2.965-26.025,4.32c-9.27,1.996-18.71,3.125-28.15,3.865
		c-9.335,0.275-18.865-0.02-27.8-3.004c-7.88-2.471-15.215-6.596-21.605-11.807c-6.08-4.865-11.1-11.094-14.405-18.154
		c-2.215-4.135-3.085-8.82-3.805-13.41c-0.04-4.154-0.36-8.375,0.635-12.459C67.805,296.051,68.755,293.787,68.915,291.372z"/>
	<g>
		<path fill="#FFFFFF" d="M437.35,295.886c1.745-1.725,4.471-2.385,6.82-1.68c3.805,0.465,7.26,2.62,9.665,5.55
			c1.284,1.599,1.005,3.75,0.665,5.625c-0.535,4.406-1.965,8.631-2.99,12.936c-2.08,7.57-4.55,15.039-6.55,22.635
			c-1.67,4.705-2.556,9.641-3.08,14.59c0.245,2.57,0.86,5.1,1.765,7.52c0.62,1.545-0.96,2.756-2.285,3.115
			c-5.369,0.846-10.744-1.199-14.899-4.529c-4.811,4.52-10.905,7.955-17.55,8.66c-2.67,0.189-5.365-0.615-7.62-2.02
			c-3.36-2.432-4.341-6.816-4.396-10.736c0.075-9.91,4.91-19.369,12.105-26.029c4.555-4.131,10.274-7.385,16.535-7.711
			c2.09-0.184,4.09,0.49,6.084,1.035c2.046-7.895,4.355-15.744,5.625-23.814C437.375,299.316,437.295,297.602,437.35,295.886z
			 M418.255,344.412c-2.035,3.609-3.271,7.764-2.89,11.934c1.994,0.531,3.145-1.295,4.375-2.504
			c3.765-4.916,6.379-10.625,8.17-16.535c0.425-0.996,0.369-2.086,0.334-3.135C423.41,335.586,420.225,340.012,418.255,344.412z"/>
	</g>
	<path fill="#FFFFFF" d="M468.774,319.246c1.355-0.98,3.186-0.549,4.745-0.49c1.305,0.92,2.54,2.225,2.646,3.906
		c0.25,1.965-0.745,3.975-2.405,5.035c-2.01,0.385-4.3,0.469-5.96-0.916C465.949,324.572,466.39,320.902,468.774,319.246z"/>
	<path fill="#FFFFFF" d="M483.654,323.066c1.49-0.686,3.266-0.395,4.875-0.381c2.521,0.125,4.15,2.49,4.87,4.682
		c1.136,3.564-0.95,7.789-4.55,8.898c-2.029,0.102-4.375,0.49-6.01-1.02c-2.275-1.32-3.005-4.004-2.715-6.475
		C479.915,326.322,481.675,324.266,483.654,323.066z"/>
	<path fill="#FFFFFF" d="M377.824,328.527c0.67-1.396,2.195-1.906,3.655-1.73c4.665-0.41,9.535,1.059,13.08,4.145
		c2.125,1.785,2.085,4.836,1.265,7.266c-2.069,6.648-4.569,13.299-4.975,20.314c-0.23,3.154,0.92,6.141,1.93,9.064
		c-0.465,0.986-1.095,2.27-2.354,2.266c-2.285,0.074-4.601,0.205-6.86-0.15c-2.925-0.795-5.76-2.119-8.04-4.145
		c-3.819,3.035-7.7,6.305-12.5,7.619c-2.71,0.68-5.6,1.555-8.354,0.551c-3.87-0.85-6.83-4.311-7.36-8.18
		c-0.12-2.65-0.16-5.33,0.511-7.916c1.564-6.25,3.595-12.389,4.795-18.729c0.324-2.285-0.061-4.592,0.119-6.875
		c0.625-1.32,2.235-1.781,3.551-2.105c5.584-0.781,11.625,2.365,13.904,7.574c0.355,2.145,0.235,4.336,0.085,6.496
		c-0.975,5.27-4.159,10.238-3.385,15.754c1.665,0.125,3.12-0.945,4.115-2.189c1.66-2.141,2.845-4.609,3.735-7.16
		c1.18-3.5,2.414-7.055,2.635-10.77C378.255,335.992,377.57,332.217,377.824,328.527z"/>
	<path fill="#FFFFFF" d="M463.399,333.096c2.386-0.734,5.63-0.475,7,1.926c1.021,1.475,1.04,3.305,0.896,5.025
		c-0.676,4.17-6.555,6.4-9.63,3.34C458.615,340.531,459.3,334.566,463.399,333.096z"/>
	<g>
		<path fill="#FFFFFF" d="M315.85,336.031c5.35-2.439,11.355-2.635,17.13-2.285c4.5,0.58,8.79,3.201,11.035,7.189
			c1.056,2.096,1.28,4.441,1.665,6.721c0.1,7.984-3.2,16.02-9.13,21.43c-2.26,2.455-4.84,4.625-7.755,6.266
			c-4.045,1.965-8.37,3.439-12.846,3.994c-2.604,0.086-5.225,0.156-7.824-0.014c-3.771-1.086-7.955-2.855-9.601-6.705
			c-1.819-3.041-1.415-6.705-1.35-10.086c0.675-5.605,4.015-10.535,8.11-14.264c0.09-1.451-0.351-3.066,0.51-4.352
			C307.824,339.986,311.785,337.48,315.85,336.031z M321.365,345.877c-1.621,1.434-1.325,3.754-1.23,5.689
			c0.475,1.75,1.83,3.686,0.875,5.49c-1.365,2.266-4.245,1.035-6.266,0.555c-0.875,3.506-1.029,7.82,1.511,10.699
			c1.395,0.211,2.825-0.234,3.815-1.26c4.215-4.869,6.069-11.285,7.034-17.539c0.056-1.826,0.235-4.064-1.069-5.5
			C324.295,342.861,322.56,344.766,321.365,345.877z"/>
	</g>
</g>
</svg>
