<svg width="26" height="26" viewBox="0 0 26 26" fill="none" xmlns="http://www.w3.org/2000/svg">
<circle cx="13" cy="13" r="13" fill="white"/>
<path d="M13 1C9.8174 1 6.76516 2.26428 4.51472 4.51472C2.26428 6.76516 1 9.8174 1 13C1 16.1826 2.26428 19.2348 4.51472 21.4853C6.76516 23.7357 9.8174 25 13 25C16.1826 25 19.2348 23.7357 21.4853 21.4853C23.7357 19.2348 25 16.1826 25 13C25 9.8174 23.7357 6.76516 21.4853 4.51472C19.2348 2.26428 16.1826 1 13 1V1ZM18.25 12.25C18.4489 12.25 18.6397 12.329 18.7803 12.4697C18.921 12.6103 19 12.8011 19 13C19 13.1989 18.921 13.3897 18.7803 13.5303C18.6397 13.671 18.4489 13.75 18.25 13.75H9.5605L12.781 16.969C12.8507 17.0387 12.906 17.1215 12.9438 17.2126C12.9815 17.3037 13.0009 17.4014 13.0009 17.5C13.0009 17.5986 12.9815 17.6963 12.9438 17.7874C12.906 17.8785 12.8507 17.9613 12.781 18.031C12.7113 18.1007 12.6285 18.156 12.5374 18.1938C12.4463 18.2315 12.3486 18.2509 12.25 18.2509C12.1514 18.2509 12.0537 18.2315 11.9626 18.1938C11.8715 18.156 11.7887 18.1007 11.719 18.031L7.219 13.531C7.14916 13.4613 7.09374 13.3786 7.05593 13.2874C7.01812 13.1963 6.99866 13.0987 6.99866 13C6.99866 12.9013 7.01812 12.8037 7.05593 12.7125C7.09374 12.6214 7.14916 12.5387 7.219 12.469L11.719 7.969C11.8598 7.82817 12.0508 7.74905 12.25 7.74905C12.4492 7.74905 12.6402 7.82817 12.781 7.969C12.9218 8.10983 13.0009 8.30084 13.0009 8.5C13.0009 8.69916 12.9218 8.89017 12.781 9.031L9.5605 12.25H18.25Z" fill="#EF7C4E"/>
</svg>
