<svg width="220" height="218" viewBox="0 0 220 218" fill="none" xmlns="http://www.w3.org/2000/svg">
<path d="M103 0L0 0L219.5 217.5L219.5 116.5L103 0Z" fill="#71C055"/>
<g clip-path="url(#clip0_456_158)">
<path d="M114.482 71.0132C114.482 69.9938 114.887 69.0161 115.608 68.2952C116.328 67.5744 117.306 67.1694 118.326 67.1694H151.638C152.657 67.1694 153.635 67.5744 154.356 68.2952C155.077 69.0161 155.482 69.9938 155.482 71.0132V74.8569C155.482 75.1967 155.347 75.5226 155.107 75.7629C154.866 76.0032 154.54 76.1382 154.201 76.1382C153.181 76.1382 152.203 76.5431 151.483 77.264C150.762 77.9848 150.357 78.9625 150.357 79.9819C150.357 81.0014 150.762 81.979 151.483 82.6999C152.203 83.4207 153.181 83.8257 154.201 83.8257C154.54 83.8257 154.866 83.9607 155.107 84.201C155.347 84.4412 155.482 84.7671 155.482 85.1069V88.9507C155.482 89.9701 155.077 90.9478 154.356 91.6686C153.635 92.3895 152.657 92.7944 151.638 92.7944H118.326C117.306 92.7944 116.328 92.3895 115.608 91.6686C114.887 90.9478 114.482 89.9701 114.482 88.9507V85.1069C114.482 84.7671 114.617 84.4412 114.857 84.201C115.097 83.9607 115.423 83.8257 115.763 83.8257C116.782 83.8257 117.76 83.4207 118.481 82.6999C119.202 81.979 119.607 81.0014 119.607 79.9819C119.607 78.9625 119.202 77.9848 118.481 77.264C117.76 76.5431 116.782 76.1382 115.763 76.1382C115.423 76.1382 115.097 76.0032 114.857 75.7629C114.617 75.5226 114.482 75.1967 114.482 74.8569V71.0132ZM124.732 68.4507V71.0132H127.294V68.4507H124.732ZM127.294 76.1382V73.5757H124.732V76.1382H127.294ZM145.232 76.1382V73.5757H142.669V76.1382H145.232ZM142.669 71.0132H145.232V68.4507H142.669V71.0132ZM127.294 78.7007H124.732V81.2632H127.294V78.7007ZM145.232 81.2632V78.7007H142.669V81.2632H145.232ZM127.294 83.8257H124.732V86.3882H127.294V83.8257ZM145.232 86.3882V83.8257H142.669V86.3882H145.232ZM124.732 88.9507V91.5132H127.294V88.9507H124.732ZM142.669 91.5132H145.232V88.9507H142.669V91.5132Z" fill="white"/>
</g>
<defs>
<clipPath id="clip0_456_158">
<rect width="41" height="41" fill="white" transform="translate(114.482 59.4819)"/>
</clipPath>
</defs>
</svg>
